<svg width="24" height="24" viewBox="0 0 24 24" fill="none" xmlns="http://www.w3.org/2000/svg">
<path d="M11.0001 2C12.9428 1.9997 14.8192 2.70631 16.2791 3.98794C17.739 5.26957 18.6827 7.03865 18.9341 8.965L21.1841 12.504C21.3321 12.737 21.3021 13.084 20.9591 13.232L19.0001 14.07V17C19.0001 17.5304 18.7894 18.0391 18.4143 18.4142C18.0392 18.7893 17.5305 19 17.0001 19H15.0011L15.0001 22H6.00007V18.306C6.00007 17.126 5.56407 16.009 4.75507 15.001C3.81278 13.8245 3.22205 12.4056 3.05097 10.908C2.87988 9.41036 3.13539 7.89486 3.78807 6.53611C4.44074 5.17737 5.46401 4.03066 6.73998 3.22811C8.01595 2.42557 9.4927 1.99985 11.0001 2ZM11.0001 4C9.86965 3.99995 8.76222 4.31925 7.80534 4.9211C6.84845 5.52295 6.08106 6.38287 5.59155 7.40181C5.10204 8.42075 4.91034 9.55724 5.03852 10.6804C5.16671 11.8035 5.60956 12.8676 6.31607 13.75C7.41007 15.114 8.00007 16.667 8.00007 18.306V20H13.0001L13.0021 17H17.0001V12.752L18.5501 12.088L17.0071 9.663L16.9501 9.221C16.761 7.77682 16.053 6.45074 14.9582 5.49008C13.8634 4.52943 12.4566 3.99981 11.0001 4ZM10.4701 7.763L11.0001 8.293L11.5301 7.763C11.8601 7.44416 12.3021 7.26768 12.7609 7.27157C13.2198 7.27546 13.6587 7.45942 13.9833 7.78382C14.3078 8.10822 14.4919 8.5471 14.496 9.00595C14.5001 9.46479 14.3238 9.90688 14.0051 10.237L11.0001 13.243L7.99507 10.237C7.82796 10.0755 7.69469 9.8824 7.60301 9.66888C7.51134 9.45535 7.46311 9.22571 7.46114 8.99334C7.45917 8.76098 7.50349 8.53055 7.59153 8.3155C7.67956 8.10045 7.80954 7.90509 7.97389 7.74081C8.13823 7.57653 8.33365 7.44662 8.54874 7.35868C8.76382 7.27073 8.99427 7.2265 9.22664 7.22856C9.459 7.23063 9.68862 7.27895 9.90211 7.37071C10.1156 7.46247 10.3087 7.59582 10.4701 7.763Z" fill="#3F3F3F"/>
</svg>
