<svg width="46" height="45" viewBox="0 0 46 45" fill="none" xmlns="http://www.w3.org/2000/svg">
<mask id="mask0_2121_1567" style="mask-type:luminance" maskUnits="userSpaceOnUse" x="4" y="0" width="38" height="39">
<path d="M4.58124 0.907227H41.5452V38.3461H4.58124V0.907227Z" fill="white"/>
</mask>
<g mask="url(#mask0_2121_1567)">
<path d="M18.0243 36.1746C17.905 36.1746 17.7964 36.1265 17.7184 36.0477H17.7176V36.0469C17.6396 35.9689 17.5907 35.8611 17.5907 35.7418C17.5907 35.6225 17.6396 35.5139 17.7176 35.436C17.7199 35.4344 17.7214 35.4321 17.7237 35.4306C17.8017 35.3557 17.908 35.309 18.0243 35.309C18.1435 35.309 18.2514 35.358 18.3301 35.436C18.4081 35.5139 18.4571 35.6225 18.4571 35.7418C18.4571 35.8611 18.4081 35.9689 18.3294 36.0477H18.3301C18.2514 36.1265 18.1435 36.1746 18.0243 36.1746ZM7.48769 26.2429C6.62743 24.2127 6.15103 21.9798 6.15103 19.6361C6.15103 19.1995 6.16785 18.7666 6.20073 18.3384L6.19844 18.3354L6.20073 18.33C6.2252 18.0127 6.25809 17.6976 6.30014 17.3849C6.20379 17.2403 6.04015 17.144 5.84363 17.0285C5.54464 16.8534 5.17835 16.6385 4.83348 16.153C4.61631 15.8486 4.58114 15.5894 4.65378 15.4074C4.68896 15.321 4.74707 15.2522 4.82125 15.2048C4.89389 15.1581 4.98183 15.1313 5.07742 15.1268C5.32594 15.1145 5.63869 15.2537 5.88798 15.5917C6.16479 15.9664 6.31773 16.377 6.40338 16.7119C6.45308 16.4244 6.51043 16.1392 6.57466 15.857C6.56166 15.8295 6.56319 15.7981 6.57696 15.7729C6.58078 15.763 6.59225 15.7393 6.60984 15.7041C6.70695 15.2958 6.8186 14.8935 6.94477 14.4982C6.76354 14.343 6.28409 13.8658 5.85816 12.8618C5.66928 12.4167 5.66163 12.1101 5.74651 11.9365C5.79087 11.847 5.85816 11.7897 5.93921 11.7622C6.01721 11.7362 6.10515 11.7392 6.19615 11.7721C6.40414 11.8455 6.6366 12.0795 6.7666 12.4557C6.95471 12.9979 7.05947 13.5897 7.11377 13.9912C7.6001 12.6155 8.25849 11.3217 9.06294 10.1349C9.19294 9.58128 9.26023 9.15383 9.32217 8.76154C9.39022 8.3295 9.4514 7.93798 9.57987 7.47535C9.61886 7.33388 9.65022 7.21459 9.67775 7.10907C9.83068 6.52638 9.88039 6.3375 10.3652 5.65846C10.9135 4.88996 11.3738 4.42197 11.4075 4.38833C11.435 4.35851 11.4793 4.34933 11.5176 4.36768C11.5642 4.38986 11.5833 4.44644 11.5612 4.49232C11.4419 4.73855 11.3524 5.14001 11.2476 5.6057C11.1108 6.21821 10.9486 6.9416 10.6596 7.59464C10.4807 7.99839 10.2528 8.43885 10.0318 8.84184C10.3751 8.42661 10.7368 8.02898 11.1176 7.64893C11.3279 7.43864 11.5436 7.23371 11.7653 7.03413C11.7745 6.9806 11.8839 6.91943 11.9007 6.91025L11.9099 6.9049C12.4 6.47362 12.9162 6.06986 13.4537 5.6967C13.4553 5.69058 13.4568 5.6837 13.4591 5.67758C13.4599 5.67605 13.6694 5.16142 14.2207 4.32486C14.4975 3.90505 14.7185 3.61294 15.0175 3.3453C15.315 3.07843 15.6881 2.83908 16.2678 2.52556C17.4064 1.90923 18.6016 0.938846 18.6046 0.935788C18.6352 0.911318 18.6788 0.907494 18.714 0.92967C18.7576 0.956434 18.7713 1.01455 18.7438 1.05814C18.74 1.06425 17.5846 2.94078 16.3794 3.66723C15.7822 4.0274 15.0802 4.56497 14.5319 5.00848C15.7279 4.30498 17.0187 3.74523 18.3791 3.35142C18.3875 3.34759 18.3967 3.34454 18.4058 3.34301L18.4097 3.34224C19.1239 3.13731 19.8572 2.97749 20.6066 2.86661C20.6211 2.85055 20.641 2.83908 20.6639 2.83526H20.6632C20.6662 2.83449 21.6534 2.68615 22.7752 2.33057C23.0605 2.23957 23.3082 2.13481 23.5453 2.03464C24.2664 1.72876 24.8865 1.46648 26.0274 1.78382C27.4948 2.19293 28.1509 2.10193 28.1532 2.10116C28.2052 2.09428 28.2519 2.13022 28.2588 2.18222C28.2633 2.21587 28.2488 2.24722 28.2243 2.26786C28.1762 2.30839 27.5889 2.77867 25.6283 2.83373C24.8001 2.85667 24.0981 2.89643 23.4413 2.9339C22.5649 2.98284 21.7697 3.02796 20.8452 3.02337C20.4796 3.07231 20.118 3.13348 19.7601 3.20613C20.3091 3.17325 20.927 3.1679 21.4072 3.24972C22.0182 3.35295 22.3631 3.45618 22.6666 3.54718C22.9175 3.62212 23.14 3.68864 23.4573 3.73911C24.1822 3.85305 24.7527 4.06257 24.7542 4.06334C24.8032 4.08093 24.8284 4.13445 24.8108 4.18339C24.7955 4.22392 24.7565 4.24763 24.7152 4.24457C24.7129 4.24457 24.0652 4.18951 23.1339 4.30115C22.9847 4.31951 22.8609 4.33556 22.7393 4.35162C21.941 4.45791 21.2007 4.55732 20.4361 4.25757C20.1554 4.14745 19.9314 4.04193 19.728 3.94558C19.3158 3.75058 18.9893 3.59612 18.4318 3.53188C16.2846 4.15434 14.314 5.19354 12.6157 6.55773C13.0706 6.35662 13.7061 6.11422 14.4104 5.95975C15.0993 5.80911 15.588 5.595 16.0583 5.39006C16.5232 5.18666 16.969 4.99166 17.5731 4.86855C18.7905 4.62156 19.3854 4.67891 19.3869 4.67891C19.4389 4.68349 19.4764 4.72938 19.4718 4.78061C19.4687 4.81884 19.4435 4.84943 19.4091 4.8609H19.4099C19.406 4.86167 18.2888 5.25318 16.8864 6.07675C15.8074 6.70914 15.2752 6.76572 14.3607 6.86207C14.0663 6.89343 13.7306 6.92937 13.3153 6.99207C12.5629 7.10448 12.1599 7.13124 11.955 7.11748C11.7133 7.33235 11.4786 7.55411 11.2499 7.78275C10.2834 8.74931 9.43381 9.83363 8.72572 11.0128C9.26176 10.5532 10.2069 9.80228 11.0809 9.40923C11.6468 9.15536 12.2371 8.86248 12.7548 8.59026C13.4224 8.2408 13.9699 7.92728 14.1901 7.77969C14.233 7.7514 14.2911 7.76287 14.3201 7.80569C14.3415 7.83781 14.3408 7.87757 14.3217 7.90816C14.3201 7.91045 13.9554 8.48702 13.1318 9.09953C12.8871 9.28153 12.6699 9.49411 12.4512 9.70822C11.9473 10.2007 11.435 10.7023 10.5365 10.9034C9.41622 11.1542 8.58196 11.48 8.41831 11.5458C7.91439 12.4588 7.49228 13.4238 7.16347 14.4309C7.16576 14.4584 7.16729 14.4737 7.16729 14.4745C7.16882 14.4951 7.16347 14.5165 7.15047 14.5349C7.14206 14.5464 7.13288 14.5548 7.12218 14.5617C7.05871 14.7605 6.99983 14.9608 6.94324 15.1627C7.20859 14.7941 7.61769 14.3407 8.17744 14.0409C8.60948 13.8092 8.96659 13.7939 9.18376 13.8918C9.27476 13.9323 9.34358 13.9935 9.38564 14.0669C9.42922 14.1434 9.44452 14.2313 9.42769 14.3254C9.39328 14.5173 9.21817 14.7337 8.86336 14.9042C8.46037 15.0977 8.15144 15.22 7.87539 15.3294C7.48999 15.4823 7.16806 15.6093 6.7666 15.8601C6.65878 16.3296 6.57008 16.8075 6.50202 17.2916C6.50814 17.3573 6.50814 17.394 6.50814 17.3948C6.5089 17.4216 6.4982 17.4468 6.47908 17.4652C6.4592 17.6204 6.44084 17.7749 6.42555 17.9308C6.6779 17.5309 7.13824 16.9337 7.78439 16.6171C8.16979 16.4275 8.49708 16.439 8.69972 16.5552C8.79071 16.6072 8.85801 16.6798 8.897 16.7662C8.936 16.8534 8.94594 16.9536 8.92147 17.0568C8.86718 17.2862 8.64007 17.5424 8.1805 17.729C7.19635 18.1289 6.57696 18.3652 6.38196 18.4386C6.35367 18.8347 6.33914 19.2339 6.33914 19.6361C6.33914 21.9837 6.82166 24.2181 7.69339 26.2468C7.77216 26.3821 7.98703 26.7515 8.15297 27.0191C8.2325 27.1483 8.24932 27.2462 8.23097 27.3097C8.21644 27.3601 8.18432 27.393 8.14073 27.4098H8.13997C8.10556 27.4244 8.06427 27.4251 8.02297 27.4137C7.94115 27.3923 7.8448 27.3158 7.79586 27.198C7.69951 26.9671 7.49152 26.2689 7.49152 26.2674C7.48922 26.259 7.48769 26.2514 7.48769 26.2429ZM21.6741 2.82532V2.82685C22.2652 2.81155 22.828 2.7802 23.4298 2.74579C24.0844 2.70909 24.784 2.67009 25.6229 2.64638C26.8082 2.6135 27.4627 2.43227 27.7977 2.2931C27.4474 2.27704 26.8472 2.20745 25.9769 1.96505C24.8987 1.66453 24.3061 1.91535 23.6171 2.20745C23.374 2.31069 23.1186 2.41851 22.831 2.5095C22.4128 2.64256 22.0128 2.74655 21.6741 2.82532ZM12.0192 7.0586L12.0123 7.06548C12.0842 7.03642 12.3679 6.9439 13.287 6.80549C13.6977 6.74355 14.0403 6.70761 14.3415 6.67549C15.2301 6.58067 15.7478 6.52638 16.7916 5.91387C17.6503 5.40994 18.4043 5.06584 18.8677 4.87237C18.5771 4.89225 18.1604 4.94043 17.6098 5.05207C17.0271 5.1706 16.5889 5.36177 16.1324 5.56135C15.6537 5.77087 15.1559 5.98881 14.4501 6.14327C13.2121 6.41474 12.1936 6.96225 12.0192 7.0586ZM7.86698 16.7846C7.15965 17.1325 6.68554 17.8429 6.48137 18.2C6.76966 18.0899 7.32176 17.875 8.11015 17.5546C8.50549 17.394 8.69666 17.1906 8.73872 17.0132C8.75324 16.9513 8.74789 16.8924 8.72572 16.8427C8.70354 16.7938 8.66301 16.7502 8.60643 16.7181C8.45196 16.6294 8.18967 16.6271 7.86698 16.7846ZM6.29097 17.0989C6.23973 16.7624 6.10362 16.1988 5.73734 15.7033C5.52934 15.4212 5.27929 15.3049 5.08659 15.3141C5.02389 15.3172 4.9673 15.334 4.92295 15.3623C4.88089 15.3898 4.84801 15.4288 4.82813 15.477C4.7769 15.6039 4.81131 15.7997 4.98642 16.0444C5.30835 16.4978 5.65552 16.7012 5.93768 16.8672C6.07074 16.9444 6.19079 17.0148 6.29097 17.0989ZM8.26538 14.2061C7.5741 14.5762 7.12447 15.1956 6.90424 15.5611C7.21547 15.3883 7.48999 15.2797 7.8058 15.1543C8.08338 15.0449 8.39384 14.9218 8.78307 14.7345C9.07594 14.5938 9.21817 14.4301 9.24341 14.2917C9.25182 14.2428 9.24494 14.1977 9.22276 14.1602C9.19982 14.1204 9.16082 14.0868 9.10653 14.0623C8.93524 13.9859 8.64007 14.005 8.26538 14.2061ZM6.95777 14.2558C6.91724 13.8933 6.81554 13.1669 6.58919 12.5169C6.47908 12.1996 6.29479 12.0061 6.13344 11.9487C6.08221 11.9312 6.03556 11.9281 5.99809 11.9403C5.96445 11.9518 5.93539 11.9778 5.91474 12.0191C5.85051 12.1499 5.8658 12.4007 6.03098 12.7891C6.37508 13.6005 6.74748 14.0478 6.95777 14.2558ZM11.1566 9.58052C10.2681 9.97968 9.29846 10.7635 8.78536 11.2085C9.17305 11.0724 9.77639 10.8812 10.4967 10.7199C11.3417 10.531 11.8349 10.0485 12.3197 9.57364C12.543 9.3557 12.7648 9.13853 13.0194 8.94889C13.3849 8.67743 13.6556 8.41438 13.8422 8.20944C13.5738 8.36315 13.2266 8.55432 12.8412 8.75619C12.319 9.02995 11.7248 9.32512 11.1566 9.58052ZM9.36193 9.63558C9.67163 9.1133 10.1626 8.25227 10.4868 7.51894C10.7697 6.88043 10.9288 6.16851 11.0641 5.56594C11.123 5.30442 11.1765 5.06354 11.2346 4.85555C11.0488 5.06889 10.7949 5.37936 10.5181 5.76705C10.0524 6.41856 10.005 6.59979 9.85897 7.15571C9.83068 7.26353 9.79856 7.38588 9.76033 7.52505C9.63416 7.98004 9.57451 8.36467 9.50722 8.78984C9.46593 9.04906 9.42311 9.32359 9.36193 9.63558ZM13.8277 5.34571C14.3652 4.89149 15.4282 4.02128 16.2823 3.50588C17.0722 3.02949 17.8468 2.03158 18.2651 1.43665C17.8078 1.78 17.0722 2.3038 16.3557 2.6915C15.7883 2.99814 15.4266 3.22983 15.1414 3.48447C14.8569 3.73911 14.6451 4.02128 14.3767 4.42886C14.1251 4.80967 13.947 5.12166 13.8277 5.34571ZM21.3766 3.43477C20.6716 3.31548 19.6561 3.38812 19.0214 3.45618C19.3043 3.53724 19.5383 3.64812 19.8075 3.77582C20.0078 3.87064 20.2288 3.97463 20.5041 4.08245C21.2244 4.36386 21.941 4.26904 22.7148 4.16581C22.8532 4.14745 22.9939 4.12834 23.1117 4.11457C23.465 4.07251 23.7785 4.0534 24.0339 4.04651C23.855 4.00293 23.6493 3.95858 23.4283 3.92417C23.0941 3.8714 22.8685 3.80335 22.6131 3.72688C22.3141 3.63741 21.9738 3.53571 21.3766 3.43477ZM40.0096 20.9368L40.0073 20.9429C39.979 21.3039 39.9408 21.6625 39.8911 22.0181C40.1771 22.3385 40.7667 22.4264 41.2981 23.1735C41.9007 24.02 40.9785 24.4154 40.395 23.6247C40.0616 23.1727 39.9125 22.6642 39.846 22.3132C39.7871 22.6849 39.716 23.0519 39.6334 23.4151C39.6464 23.4427 39.6456 23.474 39.6319 23.4993C39.6273 23.5092 39.6158 23.5337 39.5975 23.5696C39.5004 23.9772 39.3895 24.3786 39.2641 24.7748C39.4445 24.9292 39.924 25.4064 40.3499 26.4112C40.5388 26.8555 40.5464 27.1621 40.4616 27.3357C40.418 27.4251 40.3507 27.4825 40.2689 27.51C40.1916 27.536 40.1029 27.533 40.0119 27.5008C39.8039 27.4267 39.5722 27.1927 39.4415 26.8165C39.2534 26.2743 39.1486 25.6817 39.0943 25.2802C38.6087 26.6559 37.9503 27.9505 37.1459 29.1373C37.0151 29.6917 36.9486 30.1184 36.8859 30.5114C36.8186 30.9434 36.7567 31.3342 36.629 31.7968C36.59 31.9383 36.5586 32.0576 36.5303 32.1639C36.3774 32.7458 36.3285 32.9354 35.8436 33.6137C35.2946 34.3822 34.8343 34.851 34.8006 34.8846C34.7731 34.9137 34.7287 34.9228 34.6913 34.9053C34.6439 34.8823 34.6247 34.8265 34.6477 34.7799C34.7662 34.5336 34.8564 34.1329 34.9604 33.6665C35.0981 33.054 35.2602 32.3313 35.5485 31.6783C35.7274 31.2746 35.9553 30.8333 36.1763 30.4303C35.8337 30.8456 35.4712 31.2432 35.0912 31.624C34.8809 31.8335 34.6645 32.0385 34.4435 32.2381C34.4343 32.2916 34.325 32.3528 34.3082 32.3619L34.2982 32.3673C33.8081 32.7986 33.2927 33.2023 32.7543 33.5755C32.7536 33.5816 32.752 33.5885 32.749 33.5946C32.7482 33.5961 32.5387 34.1108 31.9874 34.9473C31.7105 35.3679 31.4895 35.66 31.1913 35.9269C30.8931 36.1938 30.5207 36.4331 29.9411 36.7474C28.8017 37.3629 27.6065 38.3341 27.6034 38.3364C27.5728 38.3609 27.5293 38.3647 27.4941 38.3433C27.4505 38.3157 27.4367 38.2576 27.4643 38.214C27.4673 38.2079 28.6243 36.3322 29.8287 35.6057C30.4259 35.2448 31.1278 34.708 31.6761 34.2645C30.4802 34.9672 29.1901 35.5269 27.829 35.9208C27.8206 35.9253 27.8114 35.9276 27.8022 35.9292L27.7984 35.9299C27.0842 36.1356 26.3509 36.2947 25.6023 36.4056C25.5877 36.4224 25.5678 36.4339 25.5449 36.4369V36.4377C25.5418 36.4377 24.5554 36.5868 23.4329 36.9424C23.1476 37.0326 22.8999 37.1374 22.6636 37.2375C21.9417 37.5434 21.3216 37.8057 20.1814 37.4884C18.7132 37.0793 18.0571 37.171 18.0548 37.171C18.0036 37.1779 17.9562 37.142 17.9493 37.0907C17.9447 37.0563 17.9593 37.025 17.9837 37.0051C18.0319 36.9638 18.6199 36.4935 20.5798 36.4384C21.408 36.4155 22.1107 36.3757 22.7668 36.339C23.6431 36.2893 24.4384 36.245 25.3629 36.2488C25.7284 36.1999 26.0901 36.1387 26.4488 36.0668C25.899 36.0989 25.2819 36.1043 24.8009 36.0232C24.1899 35.9192 23.845 35.816 23.5414 35.725C23.2906 35.6508 23.0689 35.5835 22.7508 35.5338C22.0258 35.4191 21.4554 35.2104 21.4539 35.2096C21.4049 35.192 21.3797 35.1377 21.3973 35.0888C21.4126 35.049 21.4523 35.0246 21.4936 35.0276C21.4951 35.0276 22.1428 35.0827 23.0742 34.9718C23.2233 34.9534 23.3472 34.9366 23.4688 34.9206C24.2679 34.8143 25.0073 34.7156 25.772 35.0146C26.0534 35.1247 26.2767 35.231 26.4801 35.3266C26.8923 35.5224 27.2188 35.6761 27.7762 35.7403C29.9242 35.1178 31.8941 34.0786 33.5924 32.7144C33.1374 32.9163 32.502 33.158 31.7977 33.3124C31.1087 33.4638 30.6201 33.6772 30.1498 33.8829C29.6857 34.0863 29.2383 34.2813 28.6357 34.4036C27.4176 34.6514 26.8227 34.5933 26.8212 34.5933C26.7692 34.5887 26.7317 34.5428 26.7363 34.4916C26.7393 34.4541 26.7653 34.4235 26.7982 34.4113C26.802 34.4105 27.9192 34.019 29.3224 33.1962C30.4006 32.5638 30.9336 32.5072 31.8474 32.4101C32.1418 32.3788 32.4775 32.3436 32.8927 32.2809C33.6452 32.1677 34.0482 32.1409 34.2531 32.1555C34.4947 31.9406 34.7295 31.7188 34.9581 31.4902C35.9255 30.5229 36.7743 29.4385 37.4824 28.2602C36.9471 28.7197 36.0012 29.4707 35.1279 29.8629C34.5613 30.1176 33.9717 30.4105 33.4532 30.6819C32.7864 31.0314 32.2389 31.3449 32.0179 31.4925C31.9751 31.5208 31.917 31.5093 31.8879 31.4665C31.8665 31.4351 31.8673 31.3946 31.8864 31.364C31.8879 31.3625 32.2535 30.7852 33.077 30.1726C33.321 29.9907 33.5381 29.7788 33.7568 29.5647C34.2608 29.0715 34.7731 28.5699 35.6716 28.3688C36.7926 28.1179 37.6269 27.7922 37.7905 27.7272C38.2937 26.8134 38.7158 25.8484 39.0446 24.8413C39.0423 24.8138 39.0415 24.7985 39.0408 24.7977H39.0415C39.04 24.777 39.0446 24.7556 39.0584 24.7373C39.066 24.7266 39.076 24.7174 39.0867 24.7105C39.1494 24.5117 39.209 24.3114 39.2648 24.1095C38.9995 24.4781 38.5911 24.9315 38.0306 25.2313C37.5986 25.463 37.2415 25.4783 37.0243 25.3811C36.9333 25.3399 36.8645 25.2794 36.8224 25.2053C36.7789 25.1296 36.7636 25.0409 36.7804 24.9468C36.8156 24.7556 36.9907 24.5385 37.3447 24.3679C37.7477 24.1745 38.0566 24.0521 38.3327 23.9428C38.7181 23.7898 39.0393 23.6629 39.4415 23.4121C39.5975 22.7361 39.7114 22.0456 39.7825 21.3413C39.5302 21.7413 39.0698 22.3385 38.4229 22.6551C38.0383 22.8439 37.711 22.8332 37.5076 22.717C37.4174 22.6658 37.3501 22.5924 37.3111 22.5052C37.2721 22.418 37.2621 22.3186 37.2866 22.2146C37.3417 21.9852 37.5688 21.7298 38.0276 21.5432C39.011 21.1433 39.6311 20.907 39.8261 20.8336C39.8544 20.4382 39.8689 20.0383 39.8689 19.6361C39.8689 17.2885 39.3864 15.0533 38.5147 13.0254C38.4359 12.8893 38.221 12.5207 38.0559 12.2531C37.9756 12.1239 37.9588 12.026 37.9771 11.9625C37.9924 11.912 38.0238 11.8792 38.0673 11.8616C38.1033 11.8478 38.1438 11.8463 38.1851 11.8577C38.2669 11.8799 38.364 11.9564 38.4122 12.0734C38.5086 12.3043 38.7158 13.0032 38.7166 13.0055C38.7196 13.0132 38.7204 13.0208 38.7204 13.0285C39.5806 15.0595 40.057 17.2923 40.057 19.6361C40.057 20.0727 40.0402 20.5055 40.0081 20.9338L40.0096 20.9368ZM38.3411 22.4876C39.0484 22.1404 39.5225 21.4293 39.7267 21.0722C39.4384 21.1823 38.8856 21.3972 38.0972 21.7176C37.7034 21.8781 37.5114 22.0823 37.4694 22.2589C37.4548 22.3217 37.4594 22.3798 37.4824 22.4295C37.5045 22.4792 37.5451 22.522 37.6009 22.5541C37.7561 22.6428 38.0184 22.6459 38.3411 22.4876ZM37.9427 25.0669C38.634 24.696 39.0836 24.0766 39.3038 23.7118C38.9918 23.8847 38.7181 23.9932 38.4023 24.1179C38.1247 24.228 37.8142 24.3504 37.425 24.5377C37.1321 24.6784 36.9899 24.8428 36.9647 24.9805C36.9563 25.0294 36.9631 25.0745 36.9853 25.112C37.0083 25.1517 37.048 25.1854 37.1015 25.2099C37.2721 25.2871 37.568 25.2672 37.9427 25.0669ZM39.2503 25.0172C39.2908 25.3789 39.3925 26.1053 39.6181 26.756C39.7282 27.0734 39.9125 27.2661 40.0746 27.3234C40.1259 27.3418 40.1725 27.3448 40.2092 27.3326C40.2436 27.3211 40.2734 27.2944 40.2933 27.2539C40.3568 27.1231 40.3415 26.8723 40.1771 26.4838C39.833 25.6717 39.4606 25.2252 39.2503 25.0172ZM35.0514 29.6924C35.94 29.2925 36.9096 28.5095 37.4235 28.0637C37.0358 28.1998 36.4317 28.3909 35.7114 28.5523C34.8664 28.7419 34.3732 29.2237 33.8884 29.6985C33.6651 29.9172 33.4433 30.1336 33.1887 30.3233C32.8232 30.5955 32.5525 30.8578 32.3666 31.0627C32.6343 30.909 32.9807 30.7186 33.3668 30.516C33.8891 30.243 34.4833 29.9471 35.0514 29.6924ZM36.8461 29.6374C36.5364 30.1596 36.0455 31.0199 35.7213 31.7532C35.4384 32.3918 35.2785 33.1037 35.144 33.707C35.0851 33.9678 35.0308 34.2094 34.9734 34.4174C35.1585 34.2033 35.4131 33.8936 35.6899 33.5051C36.1556 32.8544 36.203 32.6732 36.3483 32.1172C36.3766 32.0086 36.4087 31.8863 36.4477 31.7471C36.5732 31.2929 36.6343 30.9075 36.7009 30.4823C36.7421 30.2231 36.785 29.9494 36.8461 29.6374ZM31.7579 33.1289C32.996 32.8574 34.0138 32.3099 34.1881 32.2136L34.1958 32.2075C34.1239 32.2358 33.8409 32.329 32.921 32.4675C32.5104 32.5294 32.1678 32.5653 31.8665 32.5967C30.978 32.6915 30.4595 32.7466 29.4165 33.3583C28.5578 33.8622 27.803 34.2063 27.3404 34.4006C27.6302 34.3807 28.0477 34.3325 28.5983 34.2201C29.181 34.1023 29.6191 33.9104 30.0749 33.7108C30.5543 33.5013 31.0521 33.2841 31.7579 33.1289ZM32.3796 33.9265C31.8436 34.3807 30.7799 35.2509 29.9258 35.7663C29.1359 36.2427 28.3612 37.2406 27.9429 37.8355C28.3995 37.4929 29.1351 36.9691 29.8516 36.5814C30.4198 36.274 30.7814 36.0431 31.0667 35.7877C31.3504 35.5331 31.563 35.2517 31.8314 34.8441C32.0829 34.4625 32.2611 34.1513 32.3796 33.9265ZM24.8315 35.8374C25.5365 35.9575 26.552 35.8841 27.1867 35.8168C26.9037 35.7357 26.6698 35.6241 26.4006 35.4964C26.2002 35.4023 25.98 35.2975 25.704 35.1897C24.9836 34.9083 24.2671 35.0039 23.494 35.1064C23.3549 35.1247 23.2149 35.1438 23.0964 35.1584C22.7431 35.2004 22.4296 35.2195 22.1749 35.2264C22.3531 35.27 22.5596 35.3136 22.7798 35.3488C23.114 35.4008 23.3403 35.4688 23.5957 35.5453C23.8947 35.6348 24.2342 35.7365 24.8315 35.8374ZM23.377 36.7627C23.7953 36.6304 24.1952 36.5264 24.534 36.4469V36.4453C23.9429 36.4606 23.3793 36.4927 22.7775 36.5264C22.1237 36.5631 21.4233 36.6029 20.5852 36.6266C19.3999 36.6594 18.7453 36.8399 18.4104 36.9791C18.7614 36.9951 19.3602 37.0647 20.2319 37.3079C21.3093 37.6076 21.902 37.3568 22.5909 37.0647C22.8341 36.9615 23.0895 36.8537 23.377 36.7627ZM28.1846 3.09754C28.3031 3.09754 28.4109 3.14572 28.4897 3.22448L28.4905 3.22525C28.5692 3.30324 28.6174 3.41106 28.6174 3.53035C28.6174 3.64964 28.5685 3.75823 28.4905 3.83623C28.4889 3.83776 28.4866 3.84005 28.4843 3.84158C28.4063 3.91652 28.3008 3.96316 28.1846 3.96316C28.0645 3.96316 27.9567 3.91499 27.8787 3.83623C27.8 3.75823 27.7518 3.64964 27.7518 3.53035C27.7518 3.41106 27.8 3.30324 27.8787 3.22448C27.9567 3.14572 28.0645 3.09754 28.1846 3.09754ZM28.3566 3.35677C28.3131 3.31318 28.2519 3.28566 28.1846 3.28566C28.1165 3.28566 28.0554 3.31318 28.011 3.35677C27.9667 3.40112 27.9391 3.4623 27.9391 3.53035C27.9391 3.59765 27.9674 3.65882 28.011 3.70317C28.0554 3.74752 28.1165 3.77429 28.1846 3.77429C28.2496 3.77429 28.3092 3.74905 28.3536 3.707L28.3566 3.70317C28.4018 3.65882 28.4285 3.59765 28.4285 3.53035C28.4285 3.4623 28.401 3.40112 28.3574 3.35677H28.3566ZM29.4448 3.66188C29.5381 3.66188 29.623 3.70011 29.6841 3.76129C29.7453 3.82246 29.7835 3.90734 29.7835 4.00063C29.7835 4.09392 29.7453 4.17804 29.6841 4.23998C29.623 4.30115 29.5381 4.33939 29.4448 4.33939C29.3515 4.33939 29.2674 4.30115 29.2054 4.23998C29.1443 4.17804 29.106 4.09392 29.106 4.00063C29.106 3.90734 29.1443 3.82246 29.2054 3.76129C29.2674 3.70011 29.3515 3.66188 29.4448 3.66188ZM29.5511 3.89358C29.5243 3.86681 29.4868 3.84999 29.4448 3.84999C29.4027 3.84999 29.3653 3.86681 29.3385 3.89358C29.311 3.92111 29.2941 3.95934 29.2941 4.00063C29.2941 4.04269 29.311 4.08016 29.3385 4.10692C29.3653 4.13445 29.4027 4.15128 29.4448 4.15128C29.4868 4.15128 29.5243 4.13445 29.5511 4.10692C29.5786 4.08016 29.5954 4.04269 29.5954 4.00063C29.5954 3.95934 29.5786 3.92111 29.5511 3.89358ZM17.8507 35.9154C17.895 35.959 17.9562 35.9865 18.0243 35.9865C18.0915 35.9865 18.1527 35.959 18.1971 35.9154C18.2414 35.8711 18.2682 35.8099 18.2682 35.7418C18.2682 35.6745 18.2407 35.6134 18.1971 35.569C18.1527 35.5254 18.0915 35.4979 18.0243 35.4979C17.9585 35.4979 17.8988 35.5239 17.8553 35.5652L17.8514 35.569C17.8071 35.6134 17.7796 35.6745 17.7796 35.7418C17.7796 35.8099 17.8071 35.8711 17.8507 35.9154ZM16.7633 35.6103C16.67 35.6103 16.5859 35.5728 16.5247 35.5109H16.5239C16.462 35.4497 16.4245 35.3648 16.4245 35.2715C16.4245 35.179 16.462 35.0941 16.5239 35.033L16.5247 35.0322C16.5859 34.971 16.67 34.9328 16.7633 34.9328C16.8566 34.9328 16.9407 34.971 17.0019 35.0322L17.0026 35.033C17.0646 35.0941 17.102 35.179 17.102 35.2715C17.102 35.3648 17.0646 35.4497 17.0026 35.5109H17.0019C16.9407 35.5728 16.8566 35.6103 16.7633 35.6103ZM16.6562 35.3786C16.6838 35.4054 16.722 35.4222 16.7633 35.4222C16.8046 35.4222 16.8428 35.4054 16.8703 35.3786C16.8971 35.3511 16.9139 35.3136 16.9139 35.2715C16.9139 35.2303 16.8971 35.192 16.8703 35.1653C16.8428 35.1377 16.8046 35.1209 16.7633 35.1209C16.722 35.1209 16.6838 35.1377 16.6562 35.1653C16.6295 35.192 16.6126 35.2303 16.6126 35.2715C16.6126 35.3136 16.6295 35.3511 16.6562 35.3786Z" fill="#FFD500"/>
</g>
<mask id="mask1_2121_1567" style="mask-type:luminance" maskUnits="userSpaceOnUse" x="7" y="26" width="9" height="10">
<path d="M7.67981 26.3906H15.3144V35.3955H7.67981V26.3906Z" fill="white"/>
</mask>
<g mask="url(#mask1_2121_1567)">
<mask id="mask2_2121_1567" style="mask-type:luminance" maskUnits="userSpaceOnUse" x="6" y="25" width="11" height="12">
<path d="M6.47333 28.5424L13.4595 25.8477L16.4708 33.6558L9.48465 36.3498L6.47333 28.5424Z" fill="white"/>
</mask>
<g mask="url(#mask2_2121_1567)">
<mask id="mask3_2121_1567" style="mask-type:luminance" maskUnits="userSpaceOnUse" x="6" y="25" width="11" height="12">
<path d="M6.4729 28.5424L13.459 25.8477L16.4704 33.6558L9.48422 36.3498L6.4729 28.5424Z" fill="white"/>
</mask>
<g mask="url(#mask3_2121_1567)">
<path d="M10.3772 28.5139C10.3711 28.4589 10.3665 28.4206 10.3635 28.3816C10.3375 28.0161 10.4575 27.7041 10.7083 27.4396C10.8429 27.2981 10.9928 27.175 11.1457 27.0557C11.2987 26.9372 11.4356 26.8041 11.5541 26.6504C11.6275 26.5556 11.6833 26.5548 11.7583 26.6512C12.1169 27.1123 12.2079 27.8739 11.694 28.4329C11.5051 28.6386 11.2887 28.7999 11.0196 28.8848C10.9118 28.9185 10.8001 28.9299 10.6839 28.9376C10.7213 29.0209 10.7581 29.0982 10.7917 29.1762C10.8383 29.284 10.8712 29.3964 10.8934 29.5118C10.9095 29.599 10.8865 29.6464 10.8047 29.6824C10.7045 29.7267 10.599 29.7336 10.4912 29.7229C10.2205 29.6961 9.94978 29.6816 9.67832 29.7175C9.0291 29.8032 8.5183 30.1068 8.19101 30.6841C8.01972 30.9862 7.98531 31.3211 7.99525 31.6621C8.00596 32.046 8.12219 32.4031 8.2843 32.7457C8.45559 33.1066 8.66282 33.4461 8.9404 33.7344C9.42062 34.2322 9.94596 34.6742 10.5745 34.9763C10.9515 35.1567 11.3476 35.2408 11.769 35.1835C12.0129 35.1506 12.2224 35.0611 12.383 34.8684C12.4755 34.7568 12.5872 34.6658 12.7072 34.5848C12.8082 34.5159 12.9206 34.4876 13.0383 34.4785C13.1377 34.4708 13.2379 34.4609 13.3381 34.4785C13.6585 34.5343 13.9231 34.4158 14.1655 34.22C14.4912 33.9562 14.7084 33.6167 14.8437 33.2274C15.0946 32.5071 15.2108 31.7638 15.1588 31.0015C15.1259 30.5113 15.002 30.038 14.7734 29.6006C14.5379 29.1494 14.2106 28.7823 13.7296 28.5858C13.358 28.4344 12.9718 28.4298 12.5849 28.5353C12.188 28.6432 11.8638 28.8688 11.5709 29.1486C11.4149 29.2985 11.3056 29.4813 11.1832 29.6548C10.9798 29.9439 10.7061 30.1121 10.3474 30.1282C10.2625 30.1312 10.1807 30.1152 10.0997 30.0961C10.0545 30.0861 10.0071 30.0716 10.0201 30.0127C10.0324 29.9538 10.0805 29.9577 10.1257 29.9691C10.2342 29.9967 10.3436 30.0074 10.4552 29.9882C10.7221 29.9431 10.9248 29.7986 11.0769 29.5799C11.1794 29.4323 11.2712 29.2771 11.3927 29.1433C11.5992 28.9185 11.8378 28.7319 12.1062 28.5881C12.4969 28.3786 12.9137 28.2968 13.3557 28.3541C13.8298 28.4153 14.2029 28.6554 14.5188 29.0026C14.8162 29.3283 14.9974 29.716 15.1229 30.1328C15.2605 30.5908 15.3309 31.058 15.298 31.5375C15.2567 32.1385 15.171 32.7312 14.9569 33.2986C14.7933 33.7337 14.5448 34.1099 14.1609 34.3859C13.9192 34.5595 13.6585 34.6536 13.3549 34.6115C13.2402 34.5947 13.1217 34.5962 13.0055 34.6123C12.8258 34.636 12.6927 34.743 12.5681 34.8646C12.4686 34.9625 12.3807 35.0741 12.2622 35.1506C12.0649 35.2783 11.8401 35.3166 11.6107 35.3288C11.1779 35.3517 10.7749 35.2393 10.4002 35.0344C9.71196 34.6589 9.11016 34.1734 8.62459 33.5563C8.3103 33.1563 8.07937 32.7067 7.94937 32.2127C7.81249 31.6912 7.81249 31.1704 8.05108 30.6749C8.23613 30.2895 8.53435 30.0081 8.91517 29.8139C9.35792 29.5868 9.83126 29.5417 10.3191 29.5768C10.4392 29.586 10.5592 29.6097 10.6808 29.5876C10.7626 29.5723 10.7756 29.5585 10.755 29.482C10.6066 28.9292 10.2878 28.5071 9.7869 28.2272C9.69132 28.1744 9.58732 28.1408 9.47721 28.1316C9.42827 28.1278 9.38392 28.1117 9.39156 28.0544C9.39921 27.9978 9.44739 27.9947 9.49403 28.0008C9.75249 28.0352 9.96737 28.1607 10.1647 28.3228C10.2335 28.3786 10.2969 28.4421 10.3772 28.5139ZM10.7053 28.8038C10.8162 28.7992 10.9087 28.7854 10.9974 28.7563C11.2627 28.6684 11.4684 28.4994 11.6451 28.2899C12.0213 27.8441 11.9915 27.2209 11.6963 26.7819C11.6665 26.7376 11.6504 26.7322 11.6145 26.7789C11.5266 26.8959 11.4226 26.9983 11.3079 27.0909C11.1855 27.1887 11.0632 27.2874 10.9462 27.3906C10.7519 27.5619 10.5891 27.7554 10.5233 28.0146C10.4606 28.2616 10.4889 28.5009 10.5822 28.7403C10.5952 28.7288 10.6036 28.7219 10.6105 28.7151C10.9546 28.3488 11.2322 27.9389 11.4172 27.4694C11.447 27.3921 11.4776 27.3669 11.5189 27.3876C11.5839 27.4212 11.5548 27.4724 11.5373 27.5183C11.4356 27.7791 11.3033 28.023 11.1465 28.2547C11.018 28.4451 10.8743 28.6241 10.7053 28.8038ZM8.94346 32.8298C9.2241 33.3108 9.59344 33.7138 10.0331 34.0525C10.391 34.3278 10.7802 34.5458 11.21 34.6872C11.2536 34.7017 11.2972 34.7063 11.314 34.6536C11.3308 34.6008 11.2926 34.5794 11.2497 34.5633C11.161 34.5312 11.0716 34.5014 10.9852 34.4632C10.1861 34.1106 9.55368 33.5624 9.09028 32.8222C8.8777 32.4819 8.72782 32.1148 8.685 31.7118C8.64447 31.3349 8.70106 30.9816 8.94958 30.678C8.95722 30.6688 8.96334 30.6566 8.96793 30.6451C8.97711 30.6191 8.97252 30.5954 8.95111 30.5771C8.9297 30.5587 8.90599 30.5572 8.88076 30.5694C8.85705 30.5809 8.84252 30.6023 8.82723 30.6214C8.67047 30.821 8.58482 31.0496 8.555 31.2997C8.51141 31.666 8.58482 32.0154 8.71405 32.3557C8.77523 32.5209 8.85476 32.6784 8.94346 32.8298ZM9.18816 30.4769C9.22333 30.4646 9.2371 30.4371 9.22639 30.4019C9.21492 30.366 9.18663 30.353 9.15222 30.3645C9.11704 30.3752 9.10404 30.4019 9.11398 30.4402C9.12851 30.4708 9.15222 30.4891 9.18816 30.4769Z" fill="#FFD500"/>
<path d="M10.3772 28.5139C10.3711 28.4589 10.3665 28.4206 10.3635 28.3816C10.3375 28.0161 10.4575 27.7041 10.7083 27.4396C10.8429 27.2981 10.9928 27.175 11.1457 27.0557C11.2987 26.9372 11.4356 26.8041 11.5541 26.6504C11.6275 26.5556 11.6833 26.5548 11.7583 26.6512C12.1169 27.1123 12.2079 27.8739 11.694 28.4329C11.5051 28.6386 11.2887 28.7999 11.0196 28.8848C10.9118 28.9185 10.8001 28.9299 10.6839 28.9376C10.7213 29.0209 10.7581 29.0982 10.7917 29.1762C10.8383 29.284 10.8712 29.3964 10.8934 29.5118C10.9095 29.599 10.8865 29.6464 10.8047 29.6824C10.7045 29.7267 10.599 29.7336 10.4912 29.7229C10.2205 29.6961 9.94978 29.6816 9.67832 29.7175C9.0291 29.8032 8.5183 30.1068 8.19101 30.6841C8.01972 30.9862 7.98531 31.3211 7.99525 31.6621C8.00596 32.046 8.12219 32.4031 8.2843 32.7457C8.45559 33.1066 8.66282 33.4461 8.9404 33.7344C9.42062 34.2322 9.94596 34.6742 10.5745 34.9763C10.9515 35.1567 11.3476 35.2408 11.769 35.1835C12.0129 35.1506 12.2224 35.0611 12.383 34.8684C12.4755 34.7568 12.5872 34.6658 12.7072 34.5848C12.8082 34.5159 12.9206 34.4876 13.0383 34.4785C13.1377 34.4708 13.2379 34.4609 13.3381 34.4785C13.6585 34.5343 13.9231 34.4158 14.1655 34.22C14.4912 33.9562 14.7084 33.6167 14.8437 33.2274C15.0946 32.5071 15.2108 31.7638 15.1588 31.0015C15.1259 30.5113 15.002 30.038 14.7734 29.6006C14.5379 29.1494 14.2106 28.7823 13.7296 28.5858C13.358 28.4344 12.9718 28.4298 12.5849 28.5353C12.188 28.6432 11.8638 28.8688 11.5709 29.1486C11.4149 29.2985 11.3056 29.4813 11.1832 29.6548C10.9798 29.9439 10.7061 30.1121 10.3474 30.1282C10.2625 30.1312 10.1807 30.1152 10.0997 30.0961C10.0545 30.0861 10.0071 30.0716 10.0201 30.0127C10.0324 29.9538 10.0805 29.9577 10.1257 29.9691C10.2342 29.9967 10.3436 30.0074 10.4552 29.9882C10.7221 29.9431 10.9248 29.7986 11.0769 29.5799C11.1794 29.4323 11.2712 29.2771 11.3927 29.1433C11.5992 28.9185 11.8378 28.7319 12.1062 28.5881C12.4969 28.3786 12.9137 28.2968 13.3557 28.3541C13.8298 28.4153 14.2029 28.6554 14.5188 29.0026C14.8162 29.3283 14.9974 29.716 15.1229 30.1328C15.2605 30.5908 15.3309 31.058 15.298 31.5375C15.2567 32.1385 15.171 32.7312 14.9569 33.2986C14.7933 33.7337 14.5448 34.1099 14.1609 34.3859C13.9192 34.5595 13.6585 34.6536 13.3549 34.6115C13.2402 34.5947 13.1217 34.5962 13.0055 34.6123C12.8258 34.636 12.6927 34.743 12.5681 34.8646C12.4686 34.9625 12.3807 35.0741 12.2622 35.1506C12.0649 35.2783 11.8401 35.3166 11.6107 35.3288C11.1779 35.3517 10.7749 35.2393 10.4002 35.0344C9.71196 34.6589 9.11016 34.1734 8.62459 33.5563C8.3103 33.1563 8.07937 32.7067 7.94937 32.2127C7.81249 31.6912 7.81249 31.1704 8.05108 30.6749C8.23613 30.2895 8.53435 30.0081 8.91517 29.8139C9.35792 29.5868 9.83126 29.5417 10.3191 29.5768C10.4392 29.586 10.5592 29.6097 10.6808 29.5876C10.7626 29.5723 10.7756 29.5585 10.755 29.482C10.6066 28.9292 10.2878 28.5071 9.7869 28.2272C9.69132 28.1744 9.58732 28.1408 9.47721 28.1316C9.42827 28.1278 9.38392 28.1117 9.39156 28.0544C9.39921 27.9978 9.44739 27.9947 9.49403 28.0008C9.75249 28.0352 9.96737 28.1607 10.1647 28.3228C10.2335 28.3786 10.2969 28.4421 10.3772 28.5139ZM10.7053 28.8038C10.8162 28.7992 10.9087 28.7854 10.9974 28.7563C11.2627 28.6684 11.4684 28.4994 11.6451 28.2899C12.0213 27.8441 11.9915 27.2209 11.6963 26.7819C11.6665 26.7376 11.6504 26.7322 11.6145 26.7789C11.5266 26.8959 11.4226 26.9983 11.3079 27.0909C11.1855 27.1887 11.0632 27.2874 10.9462 27.3906C10.7519 27.5619 10.5891 27.7554 10.5233 28.0146C10.4606 28.2616 10.4889 28.5009 10.5822 28.7403C10.5952 28.7288 10.6036 28.7219 10.6105 28.7151C10.9546 28.3488 11.2322 27.9389 11.4172 27.4694C11.447 27.3921 11.4776 27.3669 11.5189 27.3876C11.5839 27.4212 11.5548 27.4724 11.5373 27.5183C11.4356 27.7791 11.3033 28.023 11.1465 28.2547C11.018 28.4451 10.8743 28.6241 10.7053 28.8038ZM8.94346 32.8298C9.2241 33.3108 9.59344 33.7138 10.0331 34.0525C10.391 34.3278 10.7802 34.5458 11.21 34.6872C11.2536 34.7017 11.2972 34.7063 11.314 34.6536C11.3308 34.6008 11.2926 34.5794 11.2497 34.5633C11.161 34.5312 11.0716 34.5014 10.9852 34.4632C10.1861 34.1106 9.55368 33.5624 9.09028 32.8222C8.8777 32.4819 8.72782 32.1148 8.685 31.7118C8.64447 31.3349 8.70106 30.9816 8.94958 30.678C8.95722 30.6688 8.96334 30.6566 8.96793 30.6451C8.97711 30.6191 8.97252 30.5954 8.95111 30.5771C8.9297 30.5587 8.90599 30.5572 8.88076 30.5694C8.85705 30.5809 8.84252 30.6023 8.82723 30.6214C8.67047 30.821 8.58482 31.0496 8.555 31.2997C8.51141 31.666 8.58482 32.0154 8.71405 32.3557C8.77523 32.5209 8.85476 32.6784 8.94346 32.8298ZM9.18816 30.4769C9.22333 30.4646 9.2371 30.4371 9.22639 30.4019C9.21492 30.366 9.18663 30.353 9.15222 30.3645C9.11704 30.3752 9.10404 30.4019 9.11398 30.4402C9.12851 30.4708 9.15222 30.4891 9.18816 30.4769Z" fill="#FFD500"/>
</g>
</g>
</g>
<mask id="mask4_2121_1567" style="mask-type:luminance" maskUnits="userSpaceOnUse" x="30" y="1" width="10" height="12">
<path d="M30.5822 1.72559H39.5871V12.1008H30.5822V1.72559Z" fill="white"/>
</mask>
<g mask="url(#mask4_2121_1567)">
<mask id="mask5_2121_1567" style="mask-type:luminance" maskUnits="userSpaceOnUse" x="28" y="0" width="13" height="14">
<path d="M32.5616 0.119141L40.8499 3.88214L36.4201 13.641L28.131 9.87878L32.5616 0.119141Z" fill="white"/>
</mask>
<g mask="url(#mask5_2121_1567)">
<mask id="mask6_2121_1567" style="mask-type:luminance" maskUnits="userSpaceOnUse" x="28" y="0" width="13" height="14">
<path d="M32.5597 0.119141L40.8481 3.88214L36.4183 13.641L28.1292 9.87878L32.5597 0.119141Z" fill="white"/>
</mask>
<g mask="url(#mask6_2121_1567)">
<path d="M39.1345 7.73466C39.2179 7.54043 39.198 7.22462 39.0466 6.95698C39.2837 6.91263 39.3945 6.76963 39.4871 6.56699C39.5849 6.35059 39.5689 6.09059 39.4442 5.88719C39.3754 5.77325 39.2722 5.68225 39.1529 5.62108C39.3349 5.38403 39.3731 5.04527 39.2515 4.77305C39.1552 4.55894 38.9617 4.39377 38.7361 4.32265C38.8233 4.25612 38.8929 4.15901 38.9281 4.04889C38.9755 3.89749 38.9694 3.71932 38.9097 3.53197C38.7751 3.11828 38.4165 2.78258 37.9944 2.67323C37.661 2.58912 37.2924 2.65105 36.998 2.82923C36.777 2.46371 36.3412 2.22971 35.9145 2.25571C35.6759 2.27101 35.4442 2.36659 35.2553 2.51571C35.0618 2.13413 34.6405 1.88637 34.2123 1.91084C33.8124 1.93302 33.4323 2.19607 33.2557 2.56235C33.1448 2.47824 32.9926 2.4553 32.8687 2.505C32.7342 2.55776 32.6416 2.68852 32.624 2.82999C32.3572 2.72982 32.0016 2.6327 31.7294 2.95999C31.5917 3.12745 31.5413 3.35686 31.5795 3.56791C31.175 3.59544 30.8691 3.84396 30.7781 4.22018C30.7139 4.48706 30.7835 4.77687 30.9433 4.99863C30.7766 5.21733 30.7789 5.54844 30.9586 5.75949C31.0151 5.82296 31.084 5.87572 31.1589 5.90937C31.2767 5.96289 31.4082 5.97895 31.5351 5.95601C31.5313 5.96978 31.5328 5.98354 31.5397 5.9973C31.5902 6.09518 31.6781 6.16324 31.7768 6.20759C31.8708 6.25041 31.9786 6.27335 32.0781 6.28253C32.0781 6.28788 32.075 6.294 32.0773 6.30012C32.2073 7.27509 32.1675 8.16441 31.9611 8.94821C31.8747 9.27473 31.7569 9.59743 31.6085 9.90712C31.5443 10.0425 31.4709 10.1824 31.3898 10.3208C31.3669 10.3598 31.3378 10.4003 31.3073 10.4455C31.2453 10.5311 31.1811 10.6206 31.1551 10.7123C31.045 11.0855 31.3463 11.2858 31.5879 11.4472C31.6154 11.4655 31.6422 11.4854 31.6682 11.5023C31.8234 11.6085 31.9924 11.7034 32.1759 11.7867C32.3625 11.8708 32.5659 11.9458 32.7854 12.0069C33.2083 12.1262 33.3994 11.8188 33.5072 11.5757C33.5684 11.4357 33.609 11.2897 33.6487 11.1451C33.6701 11.0694 33.6892 10.993 33.7137 10.9165C33.8896 10.3644 34.2413 9.82301 34.7269 9.34967C35.1643 8.92451 35.6927 8.59111 36.1737 8.43358C36.1951 8.42746 36.2081 8.40988 36.2135 8.39229C36.2678 8.4657 36.3343 8.52381 36.4107 8.55899C36.4429 8.57352 36.4796 8.58499 36.514 8.59264C36.5545 8.60105 36.5943 8.60334 36.6356 8.6041C36.6998 8.72875 36.8076 8.82663 36.9338 8.88398C37.0561 8.9398 37.1945 8.95815 37.3268 8.92833C37.5998 8.86639 37.8063 8.60946 37.8094 8.33035C37.8094 8.2967 37.7834 8.26917 37.7474 8.26841C37.7138 8.26841 37.6862 8.29441 37.6855 8.33035C37.6832 8.55134 37.5134 8.7601 37.3001 8.81057C37.102 8.85492 36.8818 8.7601 36.7709 8.59111C36.8611 8.5674 36.9521 8.52611 37.037 8.46417C37.0646 8.44276 37.0714 8.40529 37.0508 8.37776C37.0294 8.34947 36.9911 8.34258 36.9636 8.364C36.829 8.46264 36.673 8.50546 36.5407 8.4787C36.4345 8.45652 36.3511 8.39535 36.2915 8.29364C36.205 8.14835 36.1959 7.94801 36.2655 7.75531C36.2662 7.75301 36.2662 7.75301 36.2647 7.74996C36.3282 7.75301 36.3909 7.75072 36.4497 7.74613C36.4605 7.74613 36.4704 7.74001 36.4811 7.73466C36.5392 7.83866 36.6164 7.92507 36.7105 7.99083C36.712 7.99159 36.7143 7.99312 36.7166 7.99389C36.7334 8.00154 36.7549 7.99542 36.7648 7.97936C36.7778 7.96177 36.7732 7.9373 36.7549 7.92583C36.5866 7.80807 36.4742 7.60772 36.4452 7.37526C36.4421 7.35385 36.423 7.33932 36.4023 7.34009C36.3802 7.34314 36.3664 7.36303 36.3672 7.38367C36.3771 7.46855 36.3985 7.54731 36.4283 7.62302C36.283 7.63143 36.1186 7.62914 35.9909 7.55343C35.8801 7.48461 35.7875 7.32938 35.8395 7.17033C35.8418 7.16574 35.8418 7.16039 35.8411 7.15503C35.9619 7.12215 36.0651 7.05333 36.15 6.95239C36.2165 6.86904 36.2609 6.7704 36.2777 6.66487C36.4222 6.70463 36.5813 6.67864 36.7052 6.59299C36.8474 6.49511 36.9315 6.32765 36.9261 6.15712C36.9246 6.09748 36.9108 6.03707 36.8879 5.97972C36.9323 5.95142 36.9728 5.91778 37.0064 5.87878C37.0141 5.87725 37.0194 5.87725 37.0271 5.87266C37.1525 5.80078 37.3085 5.78166 37.4477 5.82143C37.5868 5.86119 37.7099 5.9583 37.7788 6.08524C37.7956 6.11659 37.8331 6.12501 37.8629 6.11048C37.8935 6.09365 37.9026 6.05618 37.8881 6.02636C37.8025 5.86884 37.6549 5.75031 37.4805 5.70214C37.362 5.66925 37.2351 5.67078 37.1165 5.70443C37.1479 5.62873 37.1617 5.54767 37.1609 5.46432C37.1548 5.25556 37.0401 5.05369 36.8604 4.93363C36.7556 4.86252 36.6272 4.82199 36.4949 4.81128C36.4612 4.48935 36.2555 4.19724 35.9657 4.06801C35.6843 3.94566 35.3325 3.99231 35.0779 4.18348C34.9762 3.93113 34.7491 3.72773 34.4799 3.67267C34.145 3.60308 33.7741 3.76749 33.6013 4.06266C33.5837 4.09095 33.5937 4.13148 33.622 4.14677C33.6242 4.14754 33.6265 4.14907 33.6288 4.14983C33.6564 4.16283 33.6915 4.15289 33.7076 4.12383C33.8544 3.87302 34.1687 3.73232 34.4539 3.79196C34.7392 3.85161 34.9731 4.10242 35.0091 4.39224C35.0106 4.40065 35.0129 4.40676 35.016 4.41059C34.9387 4.41671 34.8607 4.43582 34.7866 4.46182C34.7682 4.4687 34.7575 4.49241 34.7644 4.51076C34.7682 4.51994 34.7751 4.52835 34.785 4.53294C34.7942 4.53676 34.8064 4.53753 34.8156 4.5337C34.9839 4.471 35.1758 4.46794 35.3463 4.52453C35.3662 4.53141 35.3891 4.5207 35.396 4.50082C35.4021 4.48017 35.3922 4.458 35.3715 4.45112C35.2943 4.42359 35.2125 4.40982 35.1299 4.40524C35.1345 4.39529 35.136 4.38535 35.1368 4.37312C35.1345 4.34865 35.1268 4.32724 35.1215 4.3043C35.3425 4.11771 35.6644 4.06801 35.9206 4.17965C36.1676 4.289 36.3442 4.53676 36.3756 4.80899C36.3373 4.81205 36.3022 4.81663 36.2647 4.82505C36.2303 4.83269 36.2104 4.86557 36.218 4.89998C36.2257 4.9344 36.2578 4.95351 36.2922 4.94663C36.4673 4.90687 36.6547 4.93822 36.7946 5.03227C36.9414 5.13015 37.0355 5.29685 37.0401 5.46356C37.0439 5.62567 36.9613 5.78396 36.8321 5.8696C36.7923 5.81531 36.7426 5.76713 36.6845 5.73043C36.6539 5.71131 36.6157 5.72202 36.5996 5.75108C36.582 5.77937 36.592 5.8199 36.621 5.83596C36.7296 5.90325 36.8046 6.02713 36.8084 6.15559C36.8122 6.28329 36.7457 6.41329 36.6402 6.4867C36.54 6.55399 36.4054 6.57082 36.2915 6.53182C36.2907 6.50582 36.2892 6.48211 36.2838 6.45382C36.2785 6.42017 36.2448 6.39723 36.2112 6.40259C36.1775 6.40794 36.1546 6.44158 36.1607 6.47523C36.1836 6.61211 36.1469 6.76046 36.0598 6.86751C35.9672 6.98068 35.8464 7.04186 35.7027 7.04568C35.5168 7.0518 35.3096 6.95774 35.1658 6.80251C35.1192 6.75281 35.0466 6.73522 34.9823 6.76275C34.7445 6.86139 34.46 6.84075 34.2429 6.7054C34.0288 6.5754 33.8842 6.33682 33.8598 6.08295C33.8567 6.04548 33.8338 6.00954 33.7986 5.99654C33.7649 5.98048 33.7237 5.98507 33.6923 6.00954C33.5233 6.13724 33.284 6.16477 33.0989 6.07301C32.8886 5.97283 32.7556 5.73196 32.7808 5.50026C32.9674 5.54385 33.1723 5.52397 33.3474 5.44061C33.3773 5.42532 33.3918 5.38862 33.3765 5.35803C33.362 5.32821 33.3245 5.31444 33.2947 5.32897C33.1394 5.40315 32.9544 5.4192 32.7884 5.37485C32.6233 5.33127 32.4711 5.2288 32.3702 5.08733C32.3495 5.0598 32.3113 5.05292 32.2838 5.07357C32.2562 5.09498 32.2486 5.13245 32.27 5.15998C32.3587 5.28309 32.4833 5.38326 32.6225 5.44673C32.6347 5.45209 32.6477 5.4582 32.6615 5.46203C32.66 5.46661 32.6585 5.46814 32.6592 5.4735C32.6393 5.6249 32.6776 5.7786 32.7556 5.90937L32.754 5.91166C32.6539 6.04624 32.494 6.13877 32.3296 6.15942C32.1301 6.18465 31.7745 6.15024 31.6667 5.94378C31.6644 5.93766 31.6598 5.93536 31.6544 5.93078C31.6919 5.91701 31.7309 5.89866 31.7653 5.87495C31.7936 5.85737 31.802 5.81684 31.7829 5.79007C31.7653 5.76178 31.7248 5.75337 31.698 5.77249C31.5061 5.89942 31.2178 5.8589 31.0671 5.68455C30.9326 5.52779 30.9242 5.27391 31.0373 5.10339C31.0985 5.16762 31.1681 5.22497 31.2461 5.2678C31.2484 5.26933 31.2507 5.27009 31.2507 5.27009C31.2805 5.28385 31.3134 5.27315 31.3294 5.24409C31.3463 5.21274 31.334 5.1768 31.3065 5.15845C30.9983 4.98563 30.8293 4.59641 30.9096 4.25383C30.9899 3.92425 31.2621 3.71014 31.6223 3.69561C31.6407 3.74531 31.6605 3.79273 31.6896 3.83708C31.695 3.84702 31.7049 3.8539 31.7156 3.85925C31.7202 3.86078 31.7248 3.86078 31.7301 3.86078C31.6621 3.94337 31.6078 4.03436 31.5749 4.1353C31.5665 4.16513 31.5803 4.19724 31.6078 4.21024C31.6101 4.21101 31.6124 4.21177 31.6147 4.21254C31.646 4.22248 31.6827 4.20489 31.6919 4.17354C31.7676 3.9319 31.9855 3.74149 32.2348 3.6979C32.2685 3.69255 32.2914 3.65891 32.2861 3.62526C32.2807 3.59238 32.2471 3.56944 32.2134 3.57479C32.0589 3.60232 31.9159 3.67955 31.8005 3.78661C31.7974 3.78049 31.7967 3.77208 31.7913 3.76673C31.6514 3.55185 31.669 3.23986 31.8311 3.04257C32.0765 2.74664 32.4038 2.87664 32.6684 2.9814C32.6768 2.98522 32.6875 2.98522 32.6982 2.98446L32.6997 2.98599C32.7036 2.98446 32.7043 2.98216 32.7066 2.98293C32.7097 2.98216 32.715 2.98216 32.7189 2.97834C32.7219 2.97757 32.7257 2.97451 32.7273 2.97222C32.7311 2.9684 32.7342 2.96763 32.7357 2.96304C32.7403 2.95999 32.741 2.95769 32.7433 2.95387C32.7441 2.95157 32.7472 2.95005 32.7456 2.94699C32.7472 2.94469 32.7472 2.94469 32.7479 2.94316C32.7494 2.93857 32.7487 2.93552 32.7502 2.93093C32.7502 2.92558 32.7517 2.92405 32.751 2.91869C32.7525 2.9164 32.7525 2.9164 32.751 2.91334C32.7326 2.79405 32.806 2.66711 32.9184 2.62353C33.0033 2.58988 33.1073 2.60594 33.1861 2.66482C33.2037 2.67782 33.2251 2.68776 33.2473 2.69005C33.2006 2.72293 33.1593 2.76346 33.1257 2.81011C33.1127 2.82693 33.1165 2.85217 33.1341 2.86517C33.1356 2.86593 33.1379 2.86746 33.1402 2.86822C33.157 2.87587 33.1754 2.87128 33.1868 2.85599C33.2748 2.73593 33.4231 2.6587 33.5745 2.65564C33.596 2.65488 33.6135 2.63729 33.6128 2.61588C33.612 2.59523 33.5952 2.57688 33.5738 2.57765C33.5111 2.57994 33.4484 2.59294 33.3895 2.61511C33.5378 2.28783 33.8751 2.0569 34.2261 2.03854C34.6176 2.01713 35.0022 2.24883 35.1658 2.60441C35.0466 2.71988 34.9517 2.85981 34.8944 3.01428C34.8829 3.04563 34.8982 3.08081 34.9257 3.09304C34.928 3.09457 34.928 3.09457 34.9303 3.09533C34.9632 3.10757 34.9984 3.09304 35.0106 3.05939C35.1521 2.68547 35.5314 2.40636 35.929 2.38342C36.3136 2.35895 36.7021 2.57153 36.8979 2.90263C36.8589 2.93169 36.8221 2.96152 36.7862 2.9944C36.7617 3.01887 36.7602 3.0571 36.7854 3.08157C36.8084 3.10451 36.8481 3.10757 36.8726 3.08234C37.1578 2.81164 37.5876 2.69999 37.9676 2.79481C38.3492 2.89116 38.6727 3.19551 38.7943 3.5702C38.8279 3.68338 38.8593 3.85237 38.8088 4.00989C38.7736 4.12077 38.6964 4.21177 38.6023 4.25918C38.5932 4.263 38.5847 4.26989 38.5794 4.27677C38.3829 4.23165 38.1756 4.23318 37.9806 4.28365C37.9478 4.29206 37.9271 4.32647 37.9355 4.35935C37.9409 4.37694 37.9539 4.393 37.9707 4.40065C37.9837 4.40676 37.999 4.40829 38.0135 4.40447C38.2024 4.3563 38.4058 4.35859 38.5932 4.40982C38.6031 4.41671 38.6138 4.42206 38.6253 4.42435C38.649 4.42971 38.6742 4.43659 38.6964 4.44423C38.7453 4.46106 38.7927 4.48247 38.8386 4.50617C38.8409 4.50694 38.8409 4.50694 38.8432 4.5077C38.9717 4.58188 39.0803 4.69581 39.1407 4.82887C39.2477 5.06516 39.2125 5.35879 39.0504 5.56143C39.0458 5.56679 39.0428 5.57367 39.0428 5.57826C38.9847 5.55991 38.925 5.54844 38.8623 5.54538C38.8271 5.54232 38.7989 5.57061 38.7973 5.60349C38.7943 5.63867 38.8226 5.66696 38.8554 5.66849C39.0497 5.6769 39.2408 5.79007 39.341 5.95601C39.4435 6.12195 39.4565 6.3437 39.3769 6.51958C39.2951 6.69852 39.211 6.81016 39.0191 6.84151C39.0053 6.84304 38.9938 6.85069 38.9839 6.86216C38.9051 6.75663 38.8042 6.66181 38.6765 6.5907C38.6467 6.57158 38.6092 6.58611 38.5932 6.61517C38.5763 6.64575 38.5886 6.68246 38.6176 6.69775C39.0275 6.92563 39.133 7.4372 39.0237 7.68955C38.9258 7.91589 38.7101 7.96024 38.415 7.9503C38.4815 7.88454 38.5282 7.79201 38.5511 7.66813C38.5557 7.64749 38.5419 7.62531 38.5197 7.62302C38.4983 7.61919 38.4792 7.63296 38.4746 7.65437C38.4264 7.90289 38.2896 8.00612 38.0533 7.96865C38.0326 7.96407 38.0128 7.9786 38.0082 8.00001C38.0059 8.01683 38.0158 8.03442 38.0311 8.0413C38.0334 8.04206 38.0372 8.04436 38.0403 8.04283C38.1366 8.05812 38.2192 8.052 38.2903 8.02677C38.2896 8.03442 38.2903 8.04283 38.2926 8.04895C38.3729 8.27606 38.2689 8.40911 38.1925 8.45193C38.0915 8.50928 37.9562 8.5024 37.8461 8.49323C37.8116 8.49093 37.7841 8.51693 37.7811 8.55211C37.7788 8.57887 37.7948 8.60181 37.8178 8.61252C37.8246 8.61558 37.8315 8.61634 37.8392 8.61711C37.9646 8.62475 38.1206 8.63393 38.2552 8.55822C38.3882 8.48176 38.4884 8.30588 38.4303 8.07036C38.7147 8.0803 39.0053 8.03671 39.1345 7.73466ZM35.0672 6.88357C35.2347 7.06556 35.4763 7.17568 35.6988 7.16803C35.7042 7.16803 35.7072 7.1665 35.7126 7.1665C35.6751 7.35079 35.7638 7.52514 35.8869 7.62225C35.2293 7.81113 34.694 8.12541 34.2635 8.57964C34.3966 7.98548 34.6374 7.41579 34.9785 6.90804C34.9839 6.90269 34.9854 6.89351 34.9884 6.88663C35.0007 6.88204 35.0121 6.87975 35.0244 6.87516C35.0389 6.86598 35.055 6.87057 35.0672 6.88357ZM33.7313 6.12271C33.7535 6.30088 33.8315 6.46988 33.9439 6.60905C33.7864 7.21085 33.5042 7.77595 33.1211 8.26229C32.907 7.59243 32.871 6.8591 33.0217 6.17471C33.0263 6.17624 33.0293 6.18083 33.0331 6.18236C33.2518 6.28177 33.5294 6.26035 33.7313 6.12271ZM32.3319 6.27947C32.5216 6.25424 32.6975 6.15636 32.8175 6.0103C32.8466 6.04318 32.8772 6.07301 32.9108 6.1013C32.9093 6.10283 32.9085 6.10512 32.9077 6.10742C32.7357 6.84992 32.7785 7.65284 33.0255 8.37623C32.9819 8.42593 32.9399 8.47946 32.8947 8.5284C32.8703 8.55364 32.8726 8.5934 32.8986 8.61558C32.9047 8.62016 32.9108 8.62322 32.9154 8.62552C32.9383 8.63622 32.9666 8.63087 32.9857 8.61099C33.0362 8.55669 33.0829 8.50011 33.131 8.44505C33.1425 8.43664 33.1517 8.42823 33.154 8.41676C33.5661 7.91742 33.8705 7.3332 34.0433 6.70769C34.0831 6.7444 34.1236 6.77575 34.1695 6.80404C34.2023 6.82393 34.2352 6.84151 34.2696 6.85681C34.4386 6.93404 34.6336 6.95774 34.8179 6.92792C34.3752 7.61919 34.106 8.40988 34.0387 9.22273C34.0364 9.25026 34.0525 9.2732 34.0754 9.28391C34.0823 9.2862 34.0899 9.28697 34.0968 9.28773C34.132 9.29079 34.1611 9.26556 34.1641 9.23114C34.1748 9.08891 34.1955 8.94592 34.2207 8.80522C34.2215 8.80292 34.2245 8.80216 34.2261 8.79986C34.6887 8.25159 35.2591 7.90442 36.0215 7.70637C36.0276 7.70407 36.0338 7.70178 36.0414 7.69719C36.0743 7.71019 36.1095 7.71784 36.1454 7.72396C36.0773 7.93042 36.0865 8.14377 36.1714 8.30817C36.1622 8.30664 36.1515 8.30741 36.1423 8.31047C35.643 8.47334 35.0963 8.81822 34.6451 9.25561C34.1435 9.74272 33.7833 10.3032 33.6005 10.876C33.5761 10.9524 33.5562 11.0304 33.534 11.1084C33.4965 11.2461 33.4568 11.3906 33.3979 11.5214C33.2503 11.8517 33.0844 11.9565 32.8229 11.8846C32.4 11.7645 32.0467 11.607 31.7424 11.396C31.7141 11.3784 31.6873 11.3585 31.659 11.3409C31.451 11.2025 31.253 11.071 31.2606 10.85C31.8058 10.9096 32.4604 11.2117 32.8496 11.5871C32.855 11.5917 32.8603 11.5971 32.8672 11.6001C32.8902 11.6108 32.9184 11.6055 32.9376 11.5856C32.962 11.5604 32.962 11.5221 32.9368 11.4977C32.53 11.1092 31.8532 10.7942 31.2843 10.7292C31.3088 10.6634 31.3608 10.5885 31.412 10.5166C31.4457 10.4699 31.4763 10.4248 31.5015 10.382C31.5833 10.2413 31.6575 10.0998 31.724 9.95912C31.8762 9.64178 31.997 9.3122 32.0865 8.9788C32.296 8.182 32.3365 7.27432 32.205 6.28635C32.2501 6.28865 32.2952 6.28635 32.3319 6.27947Z" fill="#FFD500"/>
</g>
</g>
</g>
<mask id="mask7_2121_1567" style="mask-type:luminance" maskUnits="userSpaceOnUse" x="31" y="8" width="2" height="2">
<path d="M31.7568 8.38184H32.5399V9.94791H31.7568V8.38184Z" fill="white"/>
</mask>
<g mask="url(#mask7_2121_1567)">
<mask id="mask8_2121_1567" style="mask-type:luminance" maskUnits="userSpaceOnUse" x="28" y="0" width="13" height="14">
<path d="M32.5625 0.119141L40.8509 3.88214L36.4211 13.641L28.132 9.87878L32.5625 0.119141Z" fill="white"/>
</mask>
<g mask="url(#mask8_2121_1567)">
<mask id="mask9_2121_1567" style="mask-type:luminance" maskUnits="userSpaceOnUse" x="28" y="0" width="13" height="14">
<path d="M32.5626 0.119141L40.851 3.88214L36.4212 13.641L28.1321 9.87878L32.5626 0.119141Z" fill="white"/>
</mask>
<g mask="url(#mask9_2121_1567)">
<path d="M31.9201 9.82473C31.9109 9.84385 31.9185 9.86755 31.9377 9.87596C31.9568 9.88514 31.9789 9.87673 31.9897 9.85838C32.1785 9.45386 32.3032 9.0264 32.3621 8.58365C32.3643 8.56148 32.3498 8.54159 32.3276 8.5393C32.3055 8.53701 32.2864 8.55154 32.2841 8.57371C32.2267 9.00652 32.1044 9.42863 31.9201 9.82473Z" fill="#FFD500"/>
</g>
</g>
</g>
<mask id="mask10_2121_1567" style="mask-type:luminance" maskUnits="userSpaceOnUse" x="31" y="9" width="1" height="2">
<path d="M31.5618 9.94727H31.9533V10.3388H31.5618V9.94727Z" fill="white"/>
</mask>
<g mask="url(#mask10_2121_1567)">
<mask id="mask11_2121_1567" style="mask-type:luminance" maskUnits="userSpaceOnUse" x="28" y="0" width="13" height="14">
<path d="M32.5628 0.118164L40.8512 3.88117L36.4214 13.64L28.1323 9.8778L32.5628 0.118164Z" fill="white"/>
</mask>
<g mask="url(#mask11_2121_1567)">
<mask id="mask12_2121_1567" style="mask-type:luminance" maskUnits="userSpaceOnUse" x="28" y="0" width="13" height="14">
<path d="M32.563 0.118164L40.8513 3.88117L36.4215 13.64L28.1324 9.8778L32.563 0.118164Z" fill="white"/>
</mask>
<g mask="url(#mask12_2121_1567)">
<path d="M31.9007 10.001C31.8816 9.99264 31.8594 10.0026 31.8503 10.0225L31.7516 10.2511C31.7432 10.2702 31.7531 10.2924 31.7723 10.3016C31.7921 10.31 31.8143 10.3 31.8235 10.2809L31.9221 10.0523C31.9305 10.0332 31.9206 10.0102 31.9007 10.001Z" fill="#FFD500"/>
</g>
</g>
</g>
<mask id="mask13_2121_1567" style="mask-type:luminance" maskUnits="userSpaceOnUse" x="33" y="8" width="2" height="2">
<path d="M33.7141 8.18555H34.1056V9.16434H33.7141V8.18555Z" fill="white"/>
</mask>
<g mask="url(#mask13_2121_1567)">
<mask id="mask14_2121_1567" style="mask-type:luminance" maskUnits="userSpaceOnUse" x="28" y="0" width="13" height="14">
<path d="M32.5616 0.119141L40.8499 3.88214L36.4201 13.641L28.131 9.87878L32.5616 0.119141Z" fill="white"/>
</mask>
<g mask="url(#mask14_2121_1567)">
<mask id="mask15_2121_1567" style="mask-type:luminance" maskUnits="userSpaceOnUse" x="28" y="0" width="13" height="14">
<path d="M32.5597 0.119141L40.8481 3.88214L36.4183 13.641L28.1292 9.87878L32.5597 0.119141Z" fill="white"/>
</mask>
<g mask="url(#mask15_2121_1567)">
<path d="M33.8637 9.09967C33.8683 9.1012 33.8721 9.10349 33.8752 9.10197C33.8974 9.10426 33.9149 9.08897 33.9172 9.06679C33.9432 8.79992 33.9968 8.53304 34.0771 8.27764C34.0832 8.25776 34.0717 8.23711 34.0518 8.23023C34.0319 8.22411 34.0113 8.23482 34.0044 8.25546C33.9218 8.51698 33.8691 8.78692 33.8415 9.05838C33.8377 9.0775 33.8484 9.09279 33.8637 9.09967Z" fill="#FFD500"/>
</g>
</g>
</g>
<mask id="mask16_2121_1567" style="mask-type:luminance" maskUnits="userSpaceOnUse" x="30" y="4" width="2" height="2">
<path d="M30.9739 4.07422H31.3654V5.05301H30.9739V4.07422Z" fill="white"/>
</mask>
<g mask="url(#mask16_2121_1567)">
<mask id="mask17_2121_1567" style="mask-type:luminance" maskUnits="userSpaceOnUse" x="28" y="0" width="13" height="14">
<path d="M32.5628 0.118164L40.8512 3.88117L36.4214 13.64L28.1322 9.8778L32.5628 0.118164Z" fill="white"/>
</mask>
<g mask="url(#mask17_2121_1567)">
<mask id="mask18_2121_1567" style="mask-type:luminance" maskUnits="userSpaceOnUse" x="28" y="0" width="13" height="14">
<path d="M32.5629 0.118164L40.8513 3.88117L36.4215 13.64L28.1323 9.8778L32.5629 0.118164Z" fill="white"/>
</mask>
<g mask="url(#mask18_2121_1567)">
<path d="M31.1165 4.29203C31.1234 4.27138 31.1127 4.2492 31.0928 4.24232C31.0722 4.23544 31.05 4.24615 31.0431 4.26603C30.9689 4.48014 31.0469 4.73478 31.2266 4.87318C31.2289 4.87395 31.2312 4.87471 31.235 4.87701C31.2526 4.88466 31.2702 4.88007 31.2824 4.86477C31.2954 4.84719 31.2931 4.82348 31.2756 4.81048C31.1203 4.69348 31.0538 4.47479 31.1165 4.29203Z" fill="#FFD500"/>
</g>
</g>
</g>
<mask id="mask19_2121_1567" style="mask-type:luminance" maskUnits="userSpaceOnUse" x="35" y="2" width="2" height="2">
<path d="M35.0853 2.50879H36.2598V3.09607H35.0853V2.50879Z" fill="white"/>
</mask>
<g mask="url(#mask19_2121_1567)">
<mask id="mask20_2121_1567" style="mask-type:luminance" maskUnits="userSpaceOnUse" x="28" y="0" width="13" height="14">
<path d="M32.5619 0.120117L40.8503 3.88312L36.4205 13.642L28.1313 9.87976L32.5619 0.120117Z" fill="white"/>
</mask>
<g mask="url(#mask20_2121_1567)">
<mask id="mask21_2121_1567" style="mask-type:luminance" maskUnits="userSpaceOnUse" x="28" y="0" width="13" height="14">
<path d="M32.5611 0.120117L40.8495 3.88312L36.4196 13.642L28.1305 9.87976L32.5611 0.120117Z" fill="white"/>
</mask>
<g mask="url(#mask21_2121_1567)">
<path d="M35.2695 2.99059C35.2863 2.99901 35.3092 2.99365 35.3184 2.97454C35.4568 2.7306 35.7589 2.58914 36.0349 2.63961C36.0563 2.64419 36.0754 2.62966 36.08 2.60825C36.0846 2.58761 36.0701 2.56773 36.0487 2.56314C35.742 2.50655 35.404 2.6656 35.2496 2.93783C35.2389 2.95618 35.2458 2.97989 35.2641 2.99136C35.2672 2.98983 35.2672 2.98983 35.2695 2.99059Z" fill="#FFD500"/>
</g>
</g>
</g>
<mask id="mask22_2121_1567" style="mask-type:luminance" maskUnits="userSpaceOnUse" x="34" y="2" width="2" height="2">
<path d="M34.8889 2.90039H35.2804V3.48767H34.8889V2.90039Z" fill="white"/>
</mask>
<g mask="url(#mask22_2121_1567)">
<mask id="mask23_2121_1567" style="mask-type:luminance" maskUnits="userSpaceOnUse" x="28" y="0" width="13" height="14">
<path d="M32.5624 0.119141L40.8508 3.88214L36.421 13.641L28.1318 9.87878L32.5624 0.119141Z" fill="white"/>
</mask>
<g mask="url(#mask23_2121_1567)">
<mask id="mask24_2121_1567" style="mask-type:luminance" maskUnits="userSpaceOnUse" x="28" y="0" width="13" height="14">
<path d="M32.5625 0.119141L40.8509 3.88214L36.4211 13.641L28.132 9.87878L32.5625 0.119141Z" fill="white"/>
</mask>
<g mask="url(#mask24_2121_1567)">
<path d="M35.1469 3.09431C35.1278 3.08589 35.1041 3.09278 35.0942 3.11419L35.0261 3.26407C35.0177 3.28318 35.0246 3.30689 35.046 3.31683C35.0651 3.32524 35.0888 3.31836 35.0988 3.29695L35.1668 3.14707C35.1768 3.12566 35.1661 3.10272 35.1469 3.09431Z" fill="#FFD500"/>
</g>
</g>
</g>
<mask id="mask25_2121_1567" style="mask-type:luminance" maskUnits="userSpaceOnUse" x="38" y="3" width="1" height="1">
<path d="M38.2171 3.0957H38.8044V3.87874H38.2171V3.0957Z" fill="white"/>
</mask>
<g mask="url(#mask25_2121_1567)">
<mask id="mask26_2121_1567" style="mask-type:luminance" maskUnits="userSpaceOnUse" x="28" y="0" width="13" height="14">
<path d="M32.5628 0.118164L40.8512 3.88117L36.4214 13.64L28.1323 9.8778L32.5628 0.118164Z" fill="white"/>
</mask>
<g mask="url(#mask26_2121_1567)">
<mask id="mask27_2121_1567" style="mask-type:luminance" maskUnits="userSpaceOnUse" x="28" y="0" width="13" height="14">
<path d="M32.563 0.118164L40.8513 3.88117L36.4215 13.64L28.1324 9.8778L32.563 0.118164Z" fill="white"/>
</mask>
<g mask="url(#mask27_2121_1567)">
<path d="M38.5355 3.7858C38.5347 3.80415 38.5439 3.81791 38.5569 3.82403C38.5615 3.82633 38.5653 3.82785 38.5707 3.82785C38.5929 3.83015 38.6112 3.81256 38.6127 3.79268C38.6242 3.58392 38.5103 3.37516 38.3306 3.2727C38.313 3.2597 38.2878 3.26887 38.277 3.28722C38.2663 3.30558 38.2732 3.32928 38.2916 3.33999C38.4483 3.4264 38.5447 3.60686 38.5355 3.7858Z" fill="#FFD500"/>
</g>
</g>
</g>
<mask id="mask28_2121_1567" style="mask-type:luminance" maskUnits="userSpaceOnUse" x="33" y="3" width="2" height="2">
<path d="M33.7141 3.87891H34.3013V4.46618H33.7141V3.87891Z" fill="white"/>
</mask>
<g mask="url(#mask28_2121_1567)">
<mask id="mask29_2121_1567" style="mask-type:luminance" maskUnits="userSpaceOnUse" x="28" y="0" width="13" height="14">
<path d="M32.5616 0.119141L40.8499 3.88214L36.4201 13.641L28.131 9.87878L32.5616 0.119141Z" fill="white"/>
</mask>
<g mask="url(#mask29_2121_1567)">
<mask id="mask30_2121_1567" style="mask-type:luminance" maskUnits="userSpaceOnUse" x="28" y="0" width="13" height="14">
<path d="M32.5597 0.119141L40.8481 3.88214L36.4183 13.641L28.1292 9.87878L32.5597 0.119141Z" fill="white"/>
</mask>
<g mask="url(#mask30_2121_1567)">
<path d="M33.7745 4.30645C33.7936 4.31486 33.8165 4.30416 33.8257 4.28504C33.893 4.13057 34.0666 4.02581 34.2386 4.03958C34.2608 4.04187 34.2792 4.02428 34.2807 4.0044C34.2815 3.98452 34.2654 3.96387 34.2455 3.96234C34.0436 3.94628 33.8379 4.0694 33.7569 4.25445C33.7485 4.27357 33.7554 4.29727 33.7745 4.30645Z" fill="#FFD500"/>
</g>
</g>
</g>
<mask id="mask31_2121_1567" style="mask-type:luminance" maskUnits="userSpaceOnUse" x="35" y="6" width="2" height="2">
<path d="M35.2814 6.61914H36.0645V7.01066H35.2814V6.61914Z" fill="white"/>
</mask>
<g mask="url(#mask31_2121_1567)">
<mask id="mask32_2121_1567" style="mask-type:luminance" maskUnits="userSpaceOnUse" x="28" y="0" width="13" height="14">
<path d="M32.5619 0.119141L40.8502 3.88214L36.4204 13.641L28.1313 9.87878L32.5619 0.119141Z" fill="white"/>
</mask>
<g mask="url(#mask32_2121_1567)">
<mask id="mask33_2121_1567" style="mask-type:luminance" maskUnits="userSpaceOnUse" x="28" y="0" width="13" height="14">
<path d="M32.56 0.119141L40.8484 3.88214L36.4186 13.641L28.1295 9.87878L32.56 0.119141Z" fill="white"/>
</mask>
<g mask="url(#mask33_2121_1567)">
<path d="M35.4834 6.91016C35.6203 6.9721 35.7938 6.95298 35.9108 6.85434C35.9277 6.84057 35.9284 6.81534 35.9154 6.79928C35.9024 6.78322 35.878 6.7794 35.8604 6.79546C35.7518 6.88722 35.5759 6.89334 35.4627 6.80769C35.4451 6.79469 35.4207 6.79928 35.4077 6.8161C35.3947 6.83369 35.3985 6.85893 35.4153 6.87193C35.4375 6.88645 35.4597 6.89945 35.4834 6.91016Z" fill="#FFD500"/>
</g>
</g>
</g>
<mask id="mask34_2121_1567" style="mask-type:luminance" maskUnits="userSpaceOnUse" x="34" y="6" width="1" height="1">
<path d="M34.497 6.42383H34.8885V6.81535H34.497V6.42383Z" fill="white"/>
</mask>
<g mask="url(#mask34_2121_1567)">
<mask id="mask35_2121_1567" style="mask-type:luminance" maskUnits="userSpaceOnUse" x="28" y="0" width="13" height="14">
<path d="M32.5595 0.119141L40.8479 3.88214L36.4181 13.641L28.129 9.87878L32.5595 0.119141Z" fill="white"/>
</mask>
<g mask="url(#mask35_2121_1567)">
<mask id="mask36_2121_1567" style="mask-type:luminance" maskUnits="userSpaceOnUse" x="28" y="0" width="13" height="14">
<path d="M32.5596 0.119141L40.848 3.88214L36.4182 13.641L28.129 9.87878L32.5596 0.119141Z" fill="white"/>
</mask>
<g mask="url(#mask36_2121_1567)">
<path d="M34.5497 6.71841C34.5543 6.7207 34.5566 6.72147 34.562 6.72147C34.6354 6.72912 34.7096 6.71841 34.7791 6.69088C34.799 6.6817 34.8082 6.66029 34.8013 6.64194C34.7921 6.62206 34.7707 6.61212 34.7524 6.61977C34.695 6.64271 34.6323 6.65035 34.5712 6.64271C34.549 6.64041 34.5322 6.65571 34.5299 6.67788C34.526 6.697 34.5352 6.71153 34.5497 6.71841Z" fill="#FFD500"/>
</g>
</g>
</g>
<mask id="mask37_2121_1567" style="mask-type:luminance" maskUnits="userSpaceOnUse" x="38" y="4" width="2" height="2">
<path d="M38.8038 4.85742H39.1954V5.4447H38.8038V4.85742Z" fill="white"/>
</mask>
<g mask="url(#mask37_2121_1567)">
<mask id="mask38_2121_1567" style="mask-type:luminance" maskUnits="userSpaceOnUse" x="28" y="0" width="13" height="14">
<path d="M32.5615 0.119141L40.8499 3.88214L36.4201 13.641L28.1309 9.87878L32.5615 0.119141Z" fill="white"/>
</mask>
<g mask="url(#mask38_2121_1567)">
<mask id="mask39_2121_1567" style="mask-type:luminance" maskUnits="userSpaceOnUse" x="28" y="0" width="13" height="14">
<path d="M32.5597 0.119141L40.848 3.88214L36.4182 13.641L28.1291 9.87878L32.5597 0.119141Z" fill="white"/>
</mask>
<g mask="url(#mask39_2121_1567)">
<path d="M38.9344 5.36982C38.939 5.37135 38.9397 5.37441 38.9443 5.37671C38.9588 5.38359 38.9787 5.37976 38.9902 5.36676C39.0819 5.26124 39.1064 5.09913 39.0452 4.97142C39.0368 4.95154 39.0139 4.9439 38.9948 4.95307C38.9749 4.96225 38.9672 4.98519 38.9764 5.00431C39.0231 5.10601 39.004 5.23371 38.9305 5.3163C38.916 5.33006 38.9168 5.35682 38.9344 5.36982Z" fill="#FFD500"/>
</g>
</g>
</g>
<mask id="mask40_2121_1567" style="mask-type:luminance" maskUnits="userSpaceOnUse" x="17" y="9" width="13" height="22">
<path d="M17.1213 9.06348H29.3073V30.2054H17.1213V9.06348Z" fill="white"/>
</mask>
<g mask="url(#mask40_2121_1567)">
<path d="M17.3003 28.5908C17.3026 28.5908 17.3049 28.5908 17.3072 28.5916C17.3056 28.6153 17.3163 28.6413 17.3408 28.6497C17.8073 28.8156 18.2026 29.094 18.627 29.344C18.8488 29.4748 19.0812 29.575 19.3076 29.6943C19.4315 29.76 19.55 29.835 19.6716 29.9045C19.7151 29.929 20.0745 30.1018 20.0814 30.1263C20.0937 30.1661 20.0906 30.1737 20.1243 30.2028C20.3437 30.2104 20.8652 29.9527 21.113 29.8808C21.5611 29.7501 22.0069 29.6094 22.4519 29.4702C23.2946 29.2071 24.1824 28.9349 25.0159 28.7468C25.812 28.5671 26.6133 28.3951 27.4025 28.1863C27.8154 28.0762 28.2199 27.9416 28.6344 27.8391C28.7399 27.8131 28.8447 27.7879 28.9495 27.7657C29.0152 27.7795 29.1093 27.7673 29.1544 27.7611C29.201 27.7543 29.2752 27.7428 29.3073 27.7023C29.3127 27.6992 29.3173 27.6946 29.3173 27.687V27.6862C29.3203 27.6801 29.3219 27.6732 29.3226 27.6655C29.328 27.6655 29.3333 27.664 29.3387 27.6633C29.3563 27.6625 29.3586 27.6327 29.3402 27.6319C29.3326 27.6296 29.3249 27.6288 29.3173 27.6304C29.3165 27.6166 29.3165 27.6028 29.3157 27.5891C29.3157 27.5883 29.3157 27.586 29.3157 27.5845C29.3157 27.5814 29.315 27.5791 29.315 27.5761C29.3104 27.5065 29.302 27.4361 29.292 27.3666C29.3035 27.2243 29.3035 27.0806 29.305 26.9376C29.3134 26.3503 29.3433 25.7623 29.302 25.1757C29.2813 24.8867 29.2538 24.5976 29.2385 24.3086C29.224 24.0371 29.2309 23.7649 29.2125 23.4942C29.175 22.939 29.1659 22.3877 29.0856 21.8364C29.0022 21.2636 28.9877 20.6748 28.9418 20.0975C28.9173 19.7901 28.886 19.488 28.8416 19.1829C28.798 18.8855 28.7438 18.5903 28.7399 18.289C28.7323 17.7025 28.6183 17.1343 28.5212 16.5578C28.4302 16.0171 28.3476 15.475 28.275 14.9313C28.2039 14.3991 28.1328 13.8584 27.9355 13.356C27.9255 13.3308 27.8972 13.3339 27.8858 13.3507C27.8804 13.3392 27.8705 13.3308 27.8544 13.33C27.4767 13.3178 27.0821 13.3278 26.7066 13.2811C26.3518 13.2375 25.997 13.1687 25.6376 13.1916C25.3906 13.2077 25.1452 13.2398 24.8997 13.2666C24.8332 13.1633 24.7506 12.9408 24.7529 12.9523C24.7192 12.8116 24.6711 12.6732 24.6405 12.5317C24.5854 12.2763 24.4906 12.0286 24.4539 11.7686C24.4225 11.5445 24.4126 11.2883 24.343 11.0727C24.2788 10.8754 24.2191 10.6766 24.1557 10.4793C24.0325 10.0977 23.9591 9.65116 23.6494 9.36517C23.3466 9.08606 22.9314 9.06542 22.5406 9.09906C22.3449 9.11665 22.14 9.11512 21.9488 9.16177C21.7431 9.21147 21.5833 9.33917 21.3898 9.41717C21.376 9.42252 21.3638 9.42941 21.3523 9.43782C21.1872 9.47223 21.0266 9.51811 20.8851 9.62669C20.5754 9.8668 20.6022 10.3141 20.6702 10.6583C20.7589 11.1132 20.957 11.5529 20.9891 12.0186C21.0166 12.4239 21.1008 12.8192 21.1053 13.2268C21.0648 13.2268 21.0235 13.2268 20.983 13.2276C20.8882 13.2299 20.7987 13.2536 20.7077 13.2735C20.4034 13.2536 20.0967 13.2643 19.7924 13.2391C19.5637 13.2199 19.329 13.1305 19.095 13.1595C18.9191 13.1817 18.9298 13.3438 18.9466 13.4868C19.0162 14.0794 18.8495 14.6835 18.7646 15.267C18.6392 16.1364 18.5024 17.0089 18.3464 17.8753C18.2982 18.1422 18.3066 18.4121 18.2554 18.679C18.2118 18.9008 18.156 19.1225 18.1422 19.3496C18.1108 19.8704 18.0359 20.3881 17.9594 20.9035C17.8761 21.4602 17.7492 22.0138 17.6987 22.5751C17.6474 23.1432 17.5679 23.7091 17.5045 24.2765C17.4433 24.8255 17.337 25.373 17.2926 25.9236C17.2368 26.6279 17.1428 27.3704 17.1565 28.0563C17.1588 28.1809 17.1236 28.5511 17.3003 28.5908ZM19.5209 13.3476C19.5148 13.3538 19.5079 13.3599 19.5033 13.3668C19.4735 13.3683 19.4437 13.3897 19.4429 13.4272C19.4422 13.4585 19.4414 13.4899 19.4399 13.5205C19.3557 13.4708 19.293 13.3744 19.215 13.3109C19.2563 13.3148 19.2984 13.3224 19.319 13.3239C19.3871 13.33 19.4544 13.3392 19.5209 13.3476ZM21.1856 9.71081C21.1994 9.70546 21.2132 9.70087 21.2277 9.69628C21.22 9.75057 21.2177 9.80334 21.2177 9.84692C21.2185 10.0656 21.1864 10.3111 21.2185 10.526C21.2942 11.0184 21.4793 11.4963 21.5083 11.9964C21.5305 12.3688 21.7186 12.8445 21.5733 13.2138C21.5596 13.2184 21.5473 13.2268 21.5382 13.2391C21.467 13.2352 21.3952 13.2329 21.3233 13.2306C21.3233 13.223 21.3233 13.2146 21.3233 13.2069C21.3233 13.2062 21.3233 13.2046 21.3233 13.2039C21.3233 13.2016 21.3233 13.1993 21.3233 13.197C21.3233 13.1955 21.3233 13.1947 21.3233 13.1932C21.3217 12.7795 21.2629 12.3581 21.207 11.949C21.1505 11.5308 21.0082 11.1415 20.9172 10.7317C20.8377 10.3723 20.7566 9.86986 21.1856 9.71081ZM21.7767 12.4071C21.737 11.9743 21.662 11.5208 21.5527 11.101C21.4938 10.8762 21.4242 10.6391 21.4242 10.4059C21.4242 10.2713 21.425 10.1375 21.425 10.0037C21.425 9.91116 21.4104 9.80334 21.4326 9.71387C21.4403 9.68405 21.4563 9.65728 21.477 9.63281C21.519 9.6244 21.5619 9.61675 21.6047 9.60911C21.7584 9.58311 21.9396 9.48905 22.0956 9.51964C22.3067 9.5617 22.4932 9.57852 22.6745 9.71004C22.8542 9.84004 22.9735 9.99221 23.0882 10.1819C23.3076 10.5435 23.4124 10.9794 23.5309 11.3824C23.5967 11.6072 23.6426 11.842 23.7175 12.0637C23.7672 12.2128 23.8467 12.3543 23.8926 12.5042C23.9622 12.7267 24.0662 12.9309 24.1572 13.1442C24.1801 13.1985 24.2069 13.2612 24.2489 13.3063C23.8964 13.3117 23.5431 13.3048 23.1914 13.3048C22.8098 13.3048 22.4313 13.2834 22.0505 13.2658C21.9625 13.2612 21.8746 13.2566 21.7851 13.2521C21.8754 12.9966 21.7974 12.6388 21.7767 12.4071ZM24.7108 13.2849C24.6007 13.2941 24.4906 13.301 24.3797 13.3048C24.3767 13.301 24.3736 13.2979 24.369 13.2949C24.2872 13.2482 24.278 13.0494 24.2543 12.9706C24.2268 12.8766 24.2054 12.7795 24.1725 12.687C24.1243 12.5531 24.0868 12.4201 24.0325 12.2893C23.9805 12.1654 23.9224 12.0347 23.8972 11.9016C23.807 11.4298 23.6502 10.9366 23.4835 10.487C23.3413 10.1061 23.1165 9.73681 22.7731 9.51123C22.6401 9.42405 22.4871 9.35982 22.3273 9.32617C22.3854 9.32312 22.4428 9.31929 22.5001 9.3147C22.9253 9.278 23.3956 9.28259 23.6403 9.69552C23.8895 10.1153 23.9698 10.643 24.1228 11.1018C24.1985 11.3281 24.2023 11.5858 24.2451 11.8198C24.2895 12.0645 24.3728 12.2977 24.4279 12.5401C24.4585 12.6793 24.5074 12.8108 24.5441 12.9485C24.5655 13.0265 24.5831 13.1129 24.6305 13.1809C24.6527 13.2123 24.6795 13.249 24.7108 13.2849ZM20.0623 25.5344C20.0363 24.7376 20.0164 23.94 19.9866 23.1478C19.9644 22.5605 19.9683 21.9717 19.9423 21.3844C19.9163 20.8002 19.8834 20.2168 19.8581 19.6326C19.7909 18.0581 19.7985 16.4813 19.6639 14.9099C19.6272 14.474 19.5806 14.0435 19.5637 13.6076C19.5706 13.6061 19.5767 13.6046 19.5836 13.6023C19.6073 13.5939 19.6004 13.5679 19.5836 13.5579C19.6012 13.5564 19.618 13.5503 19.631 13.5388C19.6425 13.5388 19.6593 13.5373 19.6838 13.5327C19.7281 13.5327 19.7725 13.5327 19.8169 13.5327C19.9025 13.5327 19.9881 13.5327 20.073 13.5335C20.2168 13.5335 20.3613 13.5365 20.5051 13.5319C20.6519 13.5258 20.7865 13.4708 20.9302 13.4608C21.0977 13.4493 21.2613 13.4761 21.428 13.4792C22.1308 13.4929 22.8312 13.5327 23.5347 13.5319C23.9102 13.5319 24.2872 13.5396 24.6619 13.5059C25.0029 13.4753 25.347 13.4019 25.6888 13.3928C26.0482 13.3836 26.3954 13.4501 26.7518 13.47C27.1264 13.4899 27.4858 13.4157 27.856 13.4004C27.8697 13.3996 27.8789 13.3928 27.8842 13.3843C27.9248 13.5747 27.9615 13.7667 27.9944 13.9594C28.093 14.5367 28.1389 15.1209 28.2291 15.6998C28.314 16.245 28.3981 16.7902 28.4883 17.3347C28.5365 17.6299 28.5694 17.9204 28.5725 18.2202C28.5748 18.4863 28.6061 18.7379 28.6428 19.0009C28.7239 19.5775 28.7698 20.1525 28.8149 20.7322C28.8378 21.0327 28.8607 21.334 28.8837 21.6345C28.9043 21.9021 28.9617 22.166 28.9816 22.4336C29.0236 22.9949 29.0336 23.56 29.0565 24.1228C29.0794 24.6848 29.1544 25.2446 29.1636 25.8081C29.1689 26.1163 29.1735 26.4237 29.1796 26.7319C29.1842 26.9628 29.1789 27.1968 29.2026 27.427C29.2018 27.4874 29.2179 27.5493 29.2049 27.609C29.2026 27.6113 29.2003 27.612 29.198 27.6136C29.1605 27.6166 29.1238 27.6197 29.0863 27.625C29.0794 27.6266 29.0741 27.6304 29.071 27.635C29.0504 27.635 29.0274 27.635 29.0022 27.6411C28.9112 27.6625 28.8202 27.6831 28.7285 27.703C28.5434 27.7443 28.3576 27.7741 28.1756 27.8284C27.7803 27.9454 27.3788 28.0379 26.9758 28.1274C26.2188 28.2949 25.4625 28.4646 24.7047 28.6313C23.94 28.7988 23.1753 29.0382 22.4313 29.2836C21.6903 29.5291 20.9195 29.6904 20.2045 30.0108C20.2298 29.4106 20.239 28.8156 20.1946 28.2146C20.1281 27.3268 20.0914 26.4306 20.0623 25.5344ZM17.5113 25.8349C17.6069 24.9991 17.7132 24.1625 17.821 23.3283C17.8577 23.0423 17.886 22.7555 17.9151 22.468C17.9411 22.218 18.0015 21.9771 18.0382 21.7293C18.1131 21.22 18.1789 20.7092 18.2584 20.2015C18.2967 19.956 18.3311 19.6999 18.3364 19.4506C18.341 19.1959 18.406 18.9489 18.4488 18.6989C18.4932 18.4397 18.481 18.1758 18.5299 17.9174C18.5804 17.6543 18.6369 17.3928 18.6828 17.129C18.7234 16.8965 18.8059 16.6472 18.8067 16.4125C18.8067 16.2114 18.8312 16.0133 18.8732 15.8176C18.9291 15.5645 18.9176 15.3037 18.9726 15.0475C19.0002 14.9221 19.0063 14.8197 19.0139 14.6912C19.0216 14.5681 19.0529 14.4511 19.0659 14.3295C19.0935 14.0825 19.1256 13.8523 19.1156 13.6015C19.1126 13.5281 19.0927 13.4539 19.0919 13.3798C19.2051 13.4562 19.3068 13.5793 19.4345 13.6099C19.4215 13.8194 19.4009 14.0297 19.4269 14.2377C19.4597 14.5054 19.4926 14.7738 19.5087 15.0422C19.5255 15.3404 19.5232 15.6386 19.5209 15.9369C19.5133 17.2781 19.5936 18.6285 19.6586 19.9706C19.6869 20.5563 19.7197 21.142 19.7411 21.7278C19.7633 22.3151 19.7519 22.9046 19.7931 23.4911C19.8321 24.0325 19.7801 24.5785 19.8214 25.1176C19.8627 25.6437 19.9262 26.1629 19.9277 26.6906C19.93 27.2717 19.9652 27.8445 20.0088 28.4233C20.0493 28.9701 20.0615 29.5176 20.0807 30.0651C20.0776 30.0521 20.073 30.0391 20.0669 30.0261L20.0539 29.9833C20.0524 29.9711 20.0409 29.9665 20.0302 29.9688C19.9277 29.838 19.7144 29.7371 19.6089 29.666C19.3466 29.4886 19.0529 29.3662 18.783 29.2018C18.5536 29.0626 18.3295 28.915 18.1001 28.7766C17.8921 28.6528 17.6903 28.5197 17.4379 28.5281C17.4356 28.3805 17.4341 28.2329 17.4318 28.0861C17.4226 27.336 17.4242 26.5942 17.5113 25.8349Z" fill="#FFD500"/>
</g>
<path d="M17.7403 27.5719C17.7411 27.5658 17.7418 27.5589 17.7426 27.5528C17.7503 27.1322 17.7946 26.7117 17.839 26.2949C17.8711 25.9944 17.9452 25.7076 17.9445 25.4033C17.9445 25.3215 17.9514 25.2396 17.9628 25.1586C17.9697 24.9743 18.0087 24.8 18.0164 24.6157C18.0179 24.5874 18.0194 24.5583 18.0209 24.5293C18.0194 24.4773 18.0171 24.4237 18.0156 24.3694C18.0133 24.2578 18.0508 24.1469 18.0515 24.033C18.0515 23.8808 18.0867 23.7386 18.0875 23.5872C18.0882 23.4342 18.1357 23.2828 18.141 23.1299C18.1448 22.9922 18.1494 22.8668 18.1754 22.7353C18.1754 22.7254 18.1754 22.7162 18.1762 22.7063C18.1823 22.6038 18.2121 22.5051 18.2259 22.4034C18.2297 22.3361 18.2305 22.2689 18.2305 22.2C18.2312 22.0785 18.2618 21.963 18.2771 21.8429C18.2771 21.8406 18.2771 21.8376 18.2779 21.8353C18.2809 21.8078 18.284 21.7802 18.2848 21.7519C18.3131 20.9368 18.4706 20.0375 18.57 19.2086C18.6388 18.6412 18.6648 18.0799 18.7833 17.5179C18.8453 17.2197 18.9347 16.926 18.9714 16.6232C19.0005 16.3854 19.0472 16.1575 19.0938 15.9266C19.1076 15.7538 19.1267 15.5817 19.171 15.4127C19.1718 15.4074 19.1718 15.402 19.1726 15.3974C19.1817 15.3217 19.2238 15.2529 19.236 15.1772C19.2391 15.1565 19.2712 15.1619 19.2712 15.1818C19.2712 15.2376 19.262 15.2865 19.249 15.3393C19.2513 15.3431 19.2529 15.347 19.2536 15.3523C19.2811 15.7874 19.1183 16.2577 19.054 16.6867C18.9768 17.1982 18.9217 17.7136 18.8177 18.2214C18.765 18.4814 18.7619 18.7444 18.7298 19.0067C18.7061 19.2086 18.6763 19.412 18.6449 19.6146C18.5524 20.7999 18.3046 22.002 18.2672 23.1857C18.2626 23.3402 18.2167 23.4901 18.2167 23.6453C18.2159 23.7913 18.1938 23.9382 18.1754 24.0857C18.167 24.2249 18.1594 24.3656 18.1509 24.5048C18.1647 24.7655 18.1074 25.0125 18.0837 25.2672C18.0852 25.3138 18.0875 25.3597 18.0875 25.4056C18.0875 25.677 18.0385 25.9577 18.0026 26.2276C17.956 26.5755 17.9047 26.9342 17.8688 27.2928C17.8581 27.5773 17.8535 27.861 17.8305 28.1447C17.8298 28.1554 17.8252 28.1638 17.8198 28.1691C17.8122 28.2433 17.6937 28.2502 17.6937 28.1714C17.6937 27.9642 17.7059 27.7761 17.7403 27.5719Z" fill="#FFD500"/>
<path d="M24.8268 13.8163C24.9637 13.7957 25.1036 13.8377 25.242 13.8301C25.2749 13.8278 25.2795 13.8729 25.255 13.8874C25.1357 13.9578 24.9652 13.9952 24.8283 13.9761C24.748 13.9654 24.7457 13.8278 24.8268 13.8163Z" fill="#FFD500"/>
<path d="M21.4351 13.8667C21.4848 13.8239 21.5315 13.8147 21.5972 13.817C21.6928 13.8201 21.7831 13.8155 21.8771 13.7956C21.9605 13.778 21.9888 13.9042 21.9062 13.9249C21.8167 13.947 21.7257 13.96 21.6339 13.9692C21.5567 13.9776 21.4955 13.9776 21.4351 13.9256C21.4191 13.9111 21.4183 13.8813 21.4351 13.8667Z" fill="#FFD500"/>
<path d="M18.1301 28.5427C18.2945 28.6085 18.4505 28.6964 18.6141 28.766C18.6936 28.7996 18.767 28.8333 18.8359 28.8868C18.9139 28.9472 18.9812 29.0168 19.0813 29.0398C19.1219 29.0489 19.115 29.1055 19.0729 29.104C18.8756 29.0956 18.702 28.9258 18.5216 28.8601C18.3549 28.7996 18.1951 28.7408 18.0872 28.5924C18.0658 28.5626 18.1002 28.5305 18.1301 28.5427Z" fill="#FFD500"/>
<path d="M27.2097 27.775C27.6088 27.6825 28.008 27.5854 28.4079 27.4997C28.492 27.4814 28.5716 27.4577 28.6557 27.4401C28.7092 27.4286 28.9623 27.4194 28.9891 27.359C29.0044 27.3246 29.0648 27.3338 29.0564 27.3751C29.0219 27.5464 28.697 27.4982 28.5846 27.5724C28.5272 27.6091 28.4301 27.6098 28.3643 27.6251C28.2244 27.6573 28.086 27.6955 27.9468 27.7291C27.7052 27.7873 27.4612 27.8415 27.2112 27.8324C27.176 27.8308 27.1798 27.7819 27.2097 27.775Z" fill="#FFD500"/>
<path d="M25.1254 14.115C25.2003 14.1341 25.2668 14.1915 25.3318 14.232C25.3961 14.2733 25.4588 14.3161 25.5146 14.3697C25.5559 14.4087 25.497 14.4752 25.4557 14.4354C25.3999 14.3819 25.3364 14.3391 25.2706 14.2978C25.2079 14.258 25.1322 14.2206 25.0955 14.154C25.0841 14.1334 25.1032 14.1097 25.1254 14.115Z" fill="#FFD500"/>
<path d="M25.3349 13.9682C25.4014 14.0034 25.4473 14.0631 25.5084 14.1059C25.5513 14.1349 25.588 14.1632 25.6109 14.2114C25.6224 14.2343 25.5857 14.2558 25.5719 14.2343C25.5406 14.1846 25.4824 14.1625 25.4373 14.1273C25.3884 14.0891 25.341 14.0462 25.3119 13.9896C25.305 13.9767 25.3226 13.9621 25.3349 13.9682Z" fill="#FFD500"/>
<path d="M24.8881 14.2269C24.9584 14.2552 25.0135 14.3087 25.0808 14.3439C25.1229 14.3653 25.093 14.4326 25.0502 14.4112C24.9806 14.3753 24.8965 14.3301 24.8644 14.256C24.8583 14.2414 24.8705 14.22 24.8881 14.2269Z" fill="#FFD500"/>
<path d="M21.8697 14.0043C21.8751 13.989 21.8919 13.979 21.9072 13.9874C21.9286 13.9997 21.9385 14.0203 21.9554 14.0379C21.9737 14.0563 21.9936 14.0723 22.0143 14.0869C22.0326 14.1006 22.0517 14.1136 22.0678 14.1312C22.0739 14.1381 22.0815 14.145 22.0854 14.1541C22.0991 14.1863 22.1014 14.2031 22.1244 14.2321C22.1404 14.2543 22.1098 14.2811 22.0892 14.265C22.0601 14.2421 22.0372 14.223 22.0234 14.1916C21.9684 14.1519 21.8399 14.0838 21.8697 14.0043Z" fill="#FFD500"/>
<path d="M21.7459 14.1245C21.7994 14.1498 21.8415 14.1949 21.8828 14.2362C21.8996 14.253 21.9149 14.2706 21.9294 14.2889C21.9447 14.3081 21.9562 14.3501 21.9806 14.357C22.0028 14.3639 21.9967 14.3998 21.973 14.3975C21.924 14.3937 21.8919 14.3379 21.8575 14.3081C21.8063 14.2637 21.7505 14.2087 21.7214 14.1467C21.7145 14.1322 21.7329 14.1184 21.7459 14.1245Z" fill="#FFD500"/>
<path d="M21.4575 14.173C21.5561 14.2235 21.6349 14.3275 21.7053 14.4108C21.7282 14.4383 21.6923 14.4697 21.6663 14.4483C21.5837 14.3779 21.4797 14.3007 21.43 14.2028C21.4216 14.1868 21.4407 14.1638 21.4575 14.173Z" fill="#FFD500"/>
<path d="M18.8127 28.1458C18.8693 28.1818 18.906 28.2491 18.9129 28.3164C18.919 28.3806 18.9656 28.4563 18.9894 28.5159C19.0138 28.5779 19.0306 28.6413 19.0444 28.7063C19.0513 28.74 18.9932 28.7522 18.9848 28.7186C18.9588 28.6062 18.9136 28.5022 18.8693 28.3959C18.8372 28.3209 18.8249 28.2407 18.7913 28.1642C18.7852 28.1512 18.7997 28.1382 18.8127 28.1458Z" fill="#FFD500"/>
<path d="M18.6121 28.0653C18.6779 28.1372 18.72 28.2366 18.7567 28.3261C18.7987 28.427 18.8561 28.5195 18.8576 28.6312C18.8584 28.6625 18.8079 28.6656 18.8033 28.635C18.788 28.5394 18.723 28.45 18.6833 28.362C18.6427 28.2718 18.5907 28.18 18.5716 28.0822C18.567 28.0584 18.5984 28.05 18.6121 28.0653Z" fill="#FFD500"/>
<path d="M18.2444 27.7024C18.3278 27.8576 18.379 28.0213 18.4394 28.1857C18.4784 28.2912 18.5342 28.3807 18.5449 28.4946C18.5488 28.5328 18.4945 28.5382 18.4868 28.5015C18.4578 28.3654 18.3729 28.2468 18.3262 28.1161C18.2796 27.9846 18.2314 27.8553 18.2085 27.7169C18.2054 27.6963 18.2337 27.6817 18.2444 27.7024Z" fill="#FFD500"/>
<path d="M18.1655 27.8812C18.2328 27.9646 18.2618 28.0678 18.2886 28.1703C18.3001 28.2161 18.2305 28.2429 18.2198 28.197C18.1945 28.0961 18.1509 27.9997 18.128 27.8988C18.1234 27.8782 18.1517 27.8652 18.1655 27.8812Z" fill="#FFD500"/>
<path d="M19.2386 28.488C19.2867 28.5721 19.3288 28.6616 19.3288 28.7602C19.3288 28.7962 19.2776 28.7923 19.2753 28.7587C19.2691 28.6692 19.2179 28.5866 19.2049 28.4987C19.2026 28.4804 19.2301 28.4719 19.2386 28.488Z" fill="#FFD500"/>
<path d="M28.4724 27.3107C28.4861 27.2457 28.5458 27.1891 28.5832 27.134C28.6283 27.069 28.6758 27.0056 28.7323 26.949C28.769 26.913 28.8218 26.9696 28.7874 27.0071C28.7331 27.066 28.6933 27.1333 28.6498 27.2006C28.6131 27.2564 28.5733 27.3275 28.5037 27.3451C28.4831 27.3504 28.4685 27.3306 28.4724 27.3107Z" fill="#FFD500"/>
<path d="M28.2899 27.2884C28.2975 27.2571 28.3197 27.2326 28.3327 27.2028C28.351 27.163 28.3786 27.1263 28.4053 27.0919C28.452 27.0299 28.4872 26.9565 28.5567 26.9175C28.6019 26.8923 28.6393 26.9619 28.5957 26.9879C28.5162 27.0345 28.4833 27.1492 28.426 27.2181C28.3923 27.2578 28.3786 27.3343 28.309 27.3175C28.2967 27.3144 28.2868 27.3022 28.2899 27.2884Z" fill="#FFD500"/>
<path d="M28.0749 27.2873C28.094 27.2238 28.133 27.1703 28.1704 27.1168C28.2148 27.0541 28.2561 26.9906 28.2959 26.9256C28.331 26.8667 28.422 26.9218 28.3861 26.9799C28.3165 27.0938 28.2377 27.2437 28.123 27.3179C28.1024 27.3317 28.0672 27.3148 28.0749 27.2873Z" fill="#FFD500"/>
<path d="M27.6893 27.3586C27.7543 27.2332 27.8469 27.1192 27.9172 26.9954C27.9921 26.8631 28.0686 26.7109 28.1695 26.5977C28.1833 26.5832 28.2063 26.5977 28.2024 26.6161C28.2001 26.6237 28.1986 26.6329 28.1963 26.6413C28.1955 26.6451 28.1933 26.6474 28.1902 26.649C28.1374 26.7858 28.0587 26.9112 27.9853 27.0389C27.9126 27.1651 27.8553 27.3165 27.7253 27.393C27.7031 27.406 27.6779 27.3815 27.6893 27.3586Z" fill="#FFD500"/>
<path d="M27.5592 27.1664C27.6142 27.109 27.6693 27.0326 27.6984 26.9592C27.7198 26.9049 27.7955 26.9462 27.7779 26.9982C27.7519 27.0723 27.7037 27.1335 27.6601 27.1977C27.6288 27.2436 27.5875 27.2987 27.547 27.3377C27.534 27.3507 27.5156 27.3461 27.5057 27.3323C27.4659 27.275 27.5202 27.2069 27.5592 27.1664Z" fill="#FFD500"/>
<path d="M27.4316 27.0342C27.4347 26.9784 27.5219 26.97 27.5196 27.0281C27.5181 27.0778 27.4997 27.1184 27.4699 27.1574C27.4378 27.1994 27.4034 27.2445 27.3559 27.2682C27.3345 27.2782 27.3131 27.2575 27.3154 27.2369C27.3238 27.1543 27.4263 27.1153 27.4316 27.0342Z" fill="#FFD500"/>
<path d="M28.7684 27.2765C28.776 27.2674 28.7852 27.262 28.7951 27.2544C28.7982 27.2521 28.8028 27.2467 28.8051 27.2421C28.815 27.2245 28.8226 27.2054 28.8364 27.1909C28.8685 27.1565 28.9259 27.2024 28.893 27.2375C28.88 27.2521 28.8716 27.2765 28.8586 27.2956C28.8395 27.3224 28.8035 27.3339 28.7752 27.3163C28.763 27.3079 28.7584 27.288 28.7684 27.2765Z" fill="#FFD500"/>
<path d="M4.59111 32.8315C4.61711 32.8621 4.61558 32.8896 4.585 32.9141L2.25119 34.9451C2.22213 34.9695 2.1946 34.9665 2.1686 34.9359L2.06766 34.8197C2.0409 34.7891 2.04166 34.7615 2.07072 34.7371L3.15351 33.798L2.10131 32.5868L1.01852 33.5258C0.98946 33.5503 0.961932 33.5472 0.935933 33.5166L0.831936 33.4004C0.807466 33.3698 0.808996 33.3423 0.838053 33.3178L3.17186 31.2868C3.20245 31.2624 3.22998 31.2654 3.25445 31.296L3.35845 31.4122C3.38445 31.4428 3.38292 31.4703 3.35233 31.4948L2.28789 32.4216L3.34009 33.6329L4.40453 32.7061C4.43512 32.6816 4.46341 32.6847 4.49018 32.7152L4.59111 32.8315Z" fill="#FFD500"/>
<path d="M4.5502 37.2038C4.51732 37.177 4.5135 37.1487 4.53797 37.1181L6.4772 34.7109C6.50167 34.6803 6.52996 34.6788 6.56285 34.7048L7.92092 35.7967C7.95304 35.8258 7.95763 35.8549 7.93316 35.8855L7.84751 35.9925C7.82075 36.0231 7.79093 36.0246 7.75881 35.9956L6.5659 35.0351L5.80428 35.9833L6.89625 36.8642C6.93066 36.891 6.93601 36.9185 6.91154 36.9468L6.83201 37.0478C6.80525 37.0799 6.77466 37.0829 6.74025 37.0569L5.64829 36.176L4.87749 37.1365L6.07651 38.103C6.11092 38.1313 6.11474 38.1611 6.08874 38.1917L6.0031 38.2988C5.97863 38.3294 5.94881 38.3301 5.91439 38.3018L4.5502 37.2038Z" fill="#FFD500"/>
<path d="M10.4286 41.0156C10.414 41.0645 10.3865 41.0775 10.346 41.0554L10.2083 40.9789C10.1732 40.9605 10.1632 40.9269 10.1778 40.878L10.3093 40.257L9.09497 39.5902L8.64227 40.0337C8.6071 40.0704 8.57269 40.0796 8.53828 40.0613L8.40063 39.9879C8.35934 39.9634 8.35628 39.9328 8.39146 39.8961L10.6733 37.6602C10.71 37.6235 10.7467 37.6158 10.7834 37.6357L11.0556 37.7856C11.09 37.8039 11.1023 37.8391 11.0923 37.8896L10.4286 41.0156ZM9.27543 39.4159L10.3613 40.0123L10.7926 37.9875L10.7528 37.963L9.27543 39.4159Z" fill="#FFD500"/>
<path d="M13.2303 42.294C13.1891 42.2795 13.1753 42.2542 13.1875 42.2175L14.1847 39.2903C14.1969 39.2536 14.2214 39.2414 14.2581 39.2536L14.408 39.3026C14.4462 39.3171 14.46 39.3423 14.4477 39.379L13.5148 42.1166L14.8637 42.5754C14.9042 42.5892 14.9188 42.6159 14.9065 42.6549L14.8607 42.7864C14.8484 42.8231 14.8217 42.8339 14.7811 42.8201L13.2303 42.294Z" fill="#FFD500"/>
<path d="M20.0856 40.6894C20.1284 40.6955 20.1468 40.7185 20.1406 40.7567L20.1162 40.8943C20.1101 40.9333 20.0856 40.9494 20.0428 40.9433L19.272 40.8179L18.8132 43.6747C18.807 43.713 18.7856 43.7298 18.7489 43.7237L18.5929 43.6992C18.5539 43.6931 18.5379 43.6701 18.544 43.6319L19.0028 40.775L18.2289 40.6496C18.1861 40.6435 18.1678 40.6213 18.1739 40.5823L18.1983 40.4447C18.2045 40.4065 18.2289 40.3896 18.2718 40.3958L20.0856 40.6894Z" fill="#FFD500"/>
<path d="M24.7392 40.8447C24.7774 40.8447 24.7981 40.8646 24.8004 40.9028L24.8585 43.9952C24.8585 44.0342 24.8386 44.0533 24.8004 44.0533L24.6444 44.0564C24.6054 44.0587 24.5863 44.0403 24.5863 44.0013L24.5587 42.5698L22.9529 42.5974L22.9804 44.0289C22.9804 44.0679 22.9598 44.0885 22.9193 44.09L22.7633 44.0931C22.7243 44.0931 22.7052 44.074 22.7052 44.035L22.647 40.9426C22.6447 40.9044 22.6631 40.8845 22.7021 40.8845L22.8581 40.8814C22.8986 40.8799 22.92 40.8983 22.9223 40.9365L22.9468 42.3496L24.5526 42.3221L24.5282 40.909C24.5259 40.8707 24.5442 40.8501 24.5832 40.8478L24.7392 40.8447Z" fill="#FFD500"/>
<path d="M29.3452 40.154C29.388 40.1463 29.4033 40.1655 29.391 40.2121L28.8374 42.2737L29.0699 43.4207C29.0775 43.4597 29.0622 43.4834 29.024 43.4911L28.8711 43.5216C28.8321 43.5301 28.8083 43.5148 28.8007 43.4758L28.5682 42.3287L27.2622 40.6434C27.23 40.6051 27.2346 40.5814 27.2775 40.573L27.461 40.5333C27.4854 40.5294 27.5038 40.5317 27.516 40.5394C27.5267 40.5455 27.5397 40.5593 27.5558 40.5791L28.6233 41.9678L28.6508 41.9617L29.0943 40.2672C29.102 40.2427 29.1096 40.2259 29.1158 40.2152C29.1234 40.2029 29.1387 40.1953 29.1616 40.1907L29.3452 40.154Z" fill="#FFD500"/>
<path d="M36.6475 38.8494C36.8043 38.8211 36.9427 38.8395 37.0635 38.9045C37.1836 38.9702 37.2914 39.0903 37.3878 39.2654L37.4489 39.3786C37.5973 39.6562 37.6332 39.8863 37.556 40.0698C37.478 40.2534 37.3143 40.4124 37.0635 40.547L36.045 41.0945C36.0098 41.1129 35.9838 41.1052 35.9654 41.07L34.5003 38.3478C34.482 38.3134 34.4904 38.2866 34.5248 38.2683L35.5433 37.7207C35.7835 37.5923 35.9876 37.554 36.1551 37.6045C36.3218 37.6534 36.4747 37.8064 36.6139 38.0633C36.6934 38.2124 36.7378 38.3493 36.7485 38.4732C36.7607 38.5978 36.7225 38.7164 36.6353 38.828L36.6475 38.8494ZM36.3631 38.1796C36.269 38.0067 36.1689 37.9035 36.0633 37.8706C35.9593 37.8362 35.8232 37.8637 35.6565 37.9532L34.8398 38.3937L35.3904 39.4183L36.2071 38.9779C36.37 38.8907 36.4655 38.7898 36.4946 38.6751C36.5229 38.5611 36.49 38.4174 36.3967 38.2438L36.3631 38.1796ZM37.2103 39.507L37.1492 39.3939C37.0391 39.192 36.9213 39.0811 36.7974 39.0605C36.6728 39.0383 36.516 39.0781 36.3264 39.1798L35.5005 39.6263L36.1153 40.7672L36.9412 40.3207C37.1308 40.219 37.2486 40.1065 37.296 39.9842C37.3426 39.8619 37.3143 39.7028 37.2103 39.507Z" fill="#FFD500"/>
<path d="M41.2063 37.8192C40.7062 38.2214 40.2649 38.1832 39.8818 37.706L38.9979 36.608C38.6109 36.1293 38.6668 35.6888 39.1661 35.2866L39.3986 35.1C39.8987 34.6963 40.3414 34.7345 40.7291 35.2132L41.6131 36.3113C41.9962 36.7884 41.9381 37.2289 41.4387 37.6326L41.2063 37.8192ZM41.0503 37.6204L41.2766 37.4369C41.4601 37.2901 41.5618 37.1402 41.5825 36.9872C41.6024 36.8328 41.5404 36.6645 41.3959 36.4826L40.515 35.3906C40.3697 35.2094 40.2198 35.1122 40.0654 35.1C39.9109 35.0862 39.7411 35.152 39.5576 35.2988L39.3313 35.4823C39.1462 35.6315 39.0437 35.7836 39.0254 35.9381C39.0055 36.091 39.0675 36.2585 39.212 36.4397L40.0929 37.5317C40.2374 37.7137 40.3865 37.8116 40.5395 37.8253C40.6939 37.8376 40.8645 37.7695 41.0503 37.6204Z" fill="#FFD500"/>
<path d="M44.4112 34.8365C44.3844 34.8694 44.363 34.8625 44.347 34.8151L43.7536 33.142L42.0162 32.8024C41.9673 32.7925 41.9573 32.7711 41.9856 32.7382L42.108 32.5975C42.1225 32.5792 42.1378 32.5692 42.1539 32.5669C42.1684 32.5631 42.1875 32.5654 42.212 32.573L43.6526 32.8667L43.671 32.8483L43.1663 31.4658C43.1564 31.4398 43.1525 31.4191 43.1541 31.4046C43.1541 31.3908 43.1602 31.3756 43.1724 31.3587L43.2948 31.218C43.3238 31.1859 43.346 31.1928 43.3621 31.2394L43.9555 32.9064L45.6989 33.2429C45.7479 33.2536 45.7578 33.275 45.7295 33.3071L45.6072 33.4478C45.5926 33.4662 45.5781 33.4754 45.5643 33.4754C45.5498 33.4754 45.5284 33.4746 45.5001 33.4723L44.0595 33.1817L44.0411 33.2001L44.5427 34.5857C44.5504 34.6102 44.5557 34.63 44.558 34.6438C44.5596 34.6583 44.5527 34.6744 44.5366 34.6927L44.4112 34.8365Z" fill="#FFD500"/>
<path d="M21.5551 24.654C21.5245 24.6563 21.5 24.6479 21.4817 24.6295C21.4511 24.6035 21.4343 24.576 21.4327 24.5469L20.9372 17.2855C20.9326 17.2182 20.9693 17.1815 21.0473 17.1754L23.791 16.9888C23.8866 16.9827 24.0174 16.9819 24.1825 16.9857C24.3477 16.988 24.5327 17.0087 24.7392 17.0469C24.9449 17.0836 25.1644 17.1478 25.3968 17.2396C25.6308 17.3298 25.8648 17.4591 26.0973 17.6281C26.5538 17.9462 26.8964 18.356 27.125 18.8577C27.3529 19.3593 27.4867 19.8946 27.5257 20.4635C27.5479 20.8084 27.5425 21.1364 27.5104 21.4484C27.4798 21.7604 27.4141 22.0502 27.3147 22.3171C27.2183 22.6046 27.0646 22.8753 26.8528 23.1277C26.6425 23.3785 26.397 23.601 26.1156 23.7945C25.8342 23.9864 25.5299 24.1424 25.2041 24.2625C24.8799 24.381 24.5587 24.4506 24.2406 24.4704L21.5551 24.654ZM24.2253 24.238C24.4089 24.2257 24.6169 24.1906 24.8493 24.1309C25.0818 24.072 25.3173 23.981 25.5559 23.8587C25.7945 23.7348 26.0246 23.5758 26.2472 23.3815C26.4712 23.1881 26.6662 22.9556 26.8314 22.6841C26.9981 22.4112 27.1265 22.093 27.2168 21.7298C27.3085 21.3674 27.3391 20.9498 27.3085 20.4788C27.2611 19.786 27.1044 19.2232 26.8375 18.7904C26.5699 18.3583 26.2594 18.0219 25.9046 17.781C25.5498 17.5386 25.1804 17.3773 24.7973 17.2977C24.4158 17.2167 24.0854 17.1846 23.8063 17.2029L21.1758 17.3803L21.653 24.4123L24.2253 24.238Z" fill="#FFD500"/>
<path d="M22.6775 23.0936C22.6607 23.0959 22.6469 23.0905 22.6347 23.0783C22.6163 23.0645 22.6071 23.0477 22.6071 23.0294L22.286 18.7013C22.2814 18.6607 22.302 18.6385 22.3471 18.634L23.9805 18.5116C24.0394 18.5078 24.1181 18.507 24.216 18.5086C24.3154 18.5108 24.4271 18.5231 24.5494 18.5453C24.6718 18.5682 24.8018 18.6057 24.9409 18.6584C25.0816 18.712 25.2223 18.7869 25.363 18.8848C25.636 19.0729 25.8402 19.3161 25.9748 19.6158C26.1109 19.914 26.1927 20.2321 26.2195 20.5701C26.2333 20.7766 26.2317 20.9724 26.2134 21.1574C26.1966 21.3432 26.1614 21.5176 26.1063 21.6805C26.049 21.8517 25.958 22.0131 25.8341 22.1637C25.7094 22.3128 25.5626 22.4451 25.3936 22.5614C25.2262 22.6776 25.0457 22.7724 24.8522 22.8458C24.658 22.9177 24.4668 22.9605 24.2772 22.9743L22.6775 23.0936ZM24.268 22.8367C24.3781 22.829 24.502 22.8061 24.6412 22.7694C24.7796 22.7327 24.9195 22.6776 25.0602 22.6042C25.2025 22.5293 25.3401 22.4329 25.4732 22.3167C25.6055 22.2004 25.7209 22.0613 25.8188 21.8976C25.9167 21.7347 25.9909 21.5451 26.0421 21.3287C26.0948 21.1108 26.1109 20.8607 26.091 20.5793C26.0604 20.1656 25.9641 19.8315 25.8035 19.576C25.6444 19.3191 25.4579 19.1195 25.2438 18.9765C25.0312 18.832 24.8109 18.7372 24.5831 18.6921C24.3544 18.6454 24.1564 18.6278 23.9897 18.6401L22.4267 18.7563L22.7387 22.9498L24.268 22.8367Z" fill="#FFD500"/>
</svg>
