<svg width="204" height="197" viewBox="0 0 204 197" fill="none" xmlns="http://www.w3.org/2000/svg">
<mask id="mask0_379_8810" style="mask-type:luminance" maskUnits="userSpaceOnUse" x="17" y="0" width="168" height="171">
<path d="M17.3645 0.76123H184.681V170.227H17.3645V0.76123Z" fill="white"/>
</mask>
<g mask="url(#mask0_379_8810)">
<path d="M78.2141 160.397C77.6741 160.397 77.1826 160.179 76.8296 159.823H76.8261V159.819C76.4731 159.466 76.2515 158.978 76.2515 158.438C76.2515 157.898 76.4731 157.407 76.8261 157.053C76.8365 157.047 76.8434 157.036 76.8538 157.029C77.2069 156.69 77.688 156.479 78.2141 156.479C78.7541 156.479 79.2421 156.7 79.5986 157.053C79.9517 157.407 80.1732 157.898 80.1732 158.438C80.1732 158.978 79.9517 159.466 79.5952 159.823H79.5986C79.2421 160.179 78.7541 160.397 78.2141 160.397ZM30.5206 115.442C26.6266 106.252 24.4702 96.1447 24.4702 85.5358C24.4702 83.5594 24.5464 81.6003 24.6952 79.6619L24.6848 79.6481L24.6952 79.6239C24.806 78.1874 24.9548 76.7614 25.1452 75.3457C24.7091 74.6915 23.9684 74.2554 23.0788 73.7327C21.7254 72.9401 20.0675 71.9674 18.5064 69.7695C17.5234 68.3919 17.3642 67.2185 17.693 66.3947C17.8522 66.0036 18.1153 65.6921 18.451 65.4775C18.7798 65.2663 19.1779 65.1452 19.6106 65.1244C20.7355 65.069 22.1512 65.699 23.2796 67.2289C24.5325 68.9249 25.2248 70.7837 25.6125 72.2997C25.8375 70.9983 26.0971 69.7072 26.3878 68.43C26.329 68.3054 26.3359 68.1635 26.3982 68.0492C26.4155 68.0042 26.4674 67.8969 26.547 67.7377C26.9866 65.8894 27.492 64.0687 28.0631 62.2792C27.2428 61.5766 25.0725 59.4167 23.1446 54.872C22.2896 52.8575 22.255 51.4695 22.6392 50.6838C22.84 50.2788 23.1446 50.0192 23.5115 49.8946C23.8645 49.7769 24.2626 49.7908 24.6745 49.9396C25.6159 50.2719 26.6682 51.3311 27.2566 53.034C28.1081 55.4881 28.5823 58.1672 28.828 59.9844C31.0294 53.7575 34.0096 47.9009 37.6509 42.529C38.2394 40.023 38.544 38.0881 38.8243 36.3124C39.1324 34.3568 39.4093 32.5846 39.9908 30.4905C40.1673 29.8502 40.3092 29.3102 40.4338 28.8325C41.1261 26.195 41.3511 25.3401 43.5456 22.2664C46.0273 18.7878 48.111 16.6695 48.2633 16.5172C48.3879 16.3822 48.5887 16.3406 48.7618 16.4237C48.9729 16.5241 49.0594 16.7802 48.9591 16.9879C48.4191 18.1024 48.0141 19.9196 47.5399 22.0276C46.9203 24.8001 46.1865 28.0745 44.8782 31.0305C44.0682 32.858 43.0367 34.8518 42.0364 36.6759C43.5906 34.7964 45.2278 32.9965 46.9515 31.2762C47.9034 30.3244 48.8794 29.3967 49.8832 28.4933C49.9248 28.251 50.4197 27.9741 50.4959 27.9326L50.5374 27.9084C52.7561 25.9562 55.0925 24.1286 57.5258 22.4395C57.5327 22.4118 57.5397 22.3806 57.55 22.3529C57.5535 22.346 58.5019 20.0166 60.9975 16.2299C62.2505 14.3296 63.2508 13.0074 64.6042 11.7959C65.9507 10.5879 67.6398 9.50454 70.2635 8.0854C75.4174 5.29558 80.8274 0.903174 80.8412 0.889329C80.9797 0.778567 81.177 0.761259 81.3362 0.861638C81.5335 0.982784 81.5958 1.24584 81.4712 1.44314C81.4539 1.47083 76.2238 9.9649 70.7688 13.2531C68.0655 14.8834 64.888 17.3167 62.4063 19.3243C67.8198 16.1399 73.6625 13.6062 79.8201 11.8236C79.8582 11.8063 79.8998 11.7925 79.9413 11.7855L79.9586 11.7821C83.1915 10.8545 86.5109 10.131 89.903 9.62915C89.9687 9.55646 90.0587 9.50454 90.1626 9.48724H90.1591C90.1729 9.48377 94.6415 8.81228 99.7193 7.20277C101.01 6.79087 102.132 6.31667 103.205 5.86324C106.469 4.47871 109.276 3.29148 114.44 4.72793C121.082 6.57973 124.052 6.16783 124.063 6.16437C124.298 6.13322 124.509 6.2959 124.54 6.53127C124.561 6.68357 124.495 6.82548 124.385 6.91894C124.167 7.10239 121.508 9.2311 112.633 9.48031C108.885 9.58415 105.707 9.76414 102.734 9.93375C98.7674 10.1553 95.1676 10.3595 90.9829 10.3387C89.3284 10.5602 87.6912 10.8371 86.0713 11.166C88.5565 11.0171 91.3533 10.9929 93.527 11.3633C96.2925 11.8305 97.8536 12.2978 99.2277 12.7097C100.363 13.0489 101.37 13.3501 102.807 13.5785C106.088 14.0942 108.67 15.0426 108.677 15.0461C108.899 15.1257 109.013 15.368 108.933 15.5895C108.864 15.773 108.688 15.8803 108.501 15.8664C108.49 15.8664 105.558 15.6172 101.343 16.1226C100.668 16.2056 100.107 16.2783 99.5566 16.351C95.943 16.8321 92.5924 17.2821 89.1311 15.9253C87.8608 15.4269 86.8466 14.9492 85.9259 14.5131C84.0603 13.6304 82.5823 12.9312 80.059 12.6405C70.3396 15.458 61.4198 20.1619 53.7322 26.3369C55.7917 25.4266 58.668 24.3294 61.8559 23.6302C64.9746 22.9483 67.1863 21.9791 69.3151 21.0515C71.4195 20.1308 73.4375 19.2481 76.1719 18.6909C81.6823 17.5729 84.3752 17.8325 84.3822 17.8325C84.6175 17.8532 84.7871 18.0609 84.7664 18.2928C84.7525 18.4659 84.6383 18.6043 84.4825 18.6563H84.486C84.4687 18.6597 79.4117 20.4319 73.0637 24.1598C68.1797 27.0223 65.7707 27.2784 61.6309 27.7145C60.2983 27.8564 58.7788 28.0191 56.8993 28.3029C53.4934 28.8118 51.6693 28.9329 50.7416 28.8706C49.6479 29.8432 48.5852 30.847 47.5503 31.8819C43.1752 36.257 39.3297 41.1652 36.1245 46.5025C38.5509 44.4223 42.8291 41.0233 46.7853 39.2442C49.3467 38.095 52.0189 36.7693 54.3622 35.5371C57.3839 33.9553 59.8622 32.5361 60.8591 31.8681C61.0529 31.74 61.316 31.792 61.4475 31.9858C61.5444 32.1312 61.5409 32.3111 61.4544 32.4496C61.4475 32.46 59.7964 35.0698 56.0686 37.8423C54.961 38.6661 53.978 39.6284 52.988 40.5975C50.707 42.8266 48.3879 45.0972 44.3209 46.0076C39.2501 47.1429 35.4738 48.6174 34.733 48.9151C32.452 53.0479 30.5414 57.4161 29.053 61.9746C29.0634 62.0992 29.0703 62.1685 29.0703 62.1719C29.0773 62.2654 29.053 62.3623 28.9942 62.4454C28.9561 62.4973 28.9146 62.5354 28.8661 62.5665C28.5788 63.4664 28.3123 64.3733 28.0562 65.2871C29.2572 63.6187 31.109 61.5662 33.6427 60.2093C35.5984 59.1606 37.2148 59.0913 38.1978 59.5344C38.6097 59.7178 38.9212 59.9947 39.1116 60.327C39.3089 60.6732 39.3781 61.0712 39.302 61.497C39.1462 62.3657 38.3536 63.3453 36.7475 64.1172C34.9234 64.9929 33.525 65.5467 32.2755 66.0417C30.531 66.7339 29.0738 67.3085 27.2566 68.4438C26.7686 70.5691 26.367 72.7324 26.059 74.9234C26.0867 75.2211 26.0867 75.3872 26.0867 75.3907C26.0901 75.5118 26.0417 75.626 25.9551 75.7091C25.8652 76.4118 25.7821 77.1109 25.7129 77.8171C26.8551 76.0068 28.9388 73.3035 31.8636 71.8705C33.6081 71.0121 35.0896 71.064 36.0068 71.5901C36.4187 71.8255 36.7233 72.1543 36.8998 72.5455C37.0764 72.9401 37.1214 73.3935 37.0106 73.8608C36.7648 74.8992 35.7368 76.0587 33.6566 76.9033C29.2019 78.7135 26.3982 79.7831 25.5156 80.1154C25.3875 81.9083 25.3217 83.7151 25.3217 85.5358C25.3217 96.162 27.5058 106.276 31.4517 115.459C31.8082 116.072 32.7809 117.743 33.532 118.955C33.8919 119.54 33.9681 119.983 33.885 120.27C33.8193 120.499 33.6739 120.647 33.4766 120.724H33.4731C33.3174 120.789 33.1305 120.793 32.9435 120.741C32.5732 120.644 32.1371 120.298 31.9155 119.765C31.4794 118.719 30.5379 115.559 30.5379 115.552C30.5275 115.514 30.5206 115.48 30.5206 115.442ZM94.735 9.44224V9.44916C97.4106 9.37994 99.9581 9.23802 102.682 9.08226C105.645 8.91612 108.812 8.73959 112.609 8.63229C117.974 8.48345 120.937 7.66312 122.453 7.03316C120.868 6.96047 118.151 6.6455 114.212 5.54826C109.331 4.18796 106.649 5.32327 103.53 6.6455C102.429 7.11277 101.273 7.60082 99.9719 8.01272C98.0786 8.61498 96.2683 9.08572 94.735 9.44224ZM51.0324 28.6041L51.0012 28.6352C51.3266 28.5037 52.6107 28.0849 56.7712 27.4584C58.63 27.178 60.1806 27.0153 61.5444 26.87C65.5664 26.4408 67.9098 26.195 72.6345 23.4225C76.5215 21.1415 79.9344 19.5839 82.0319 18.7082C80.7166 18.7982 78.8302 19.0162 76.3381 19.5216C73.7005 20.0581 71.7172 20.9234 69.6508 21.8268C67.484 22.7752 65.2307 23.7617 62.0359 24.4609C56.432 25.6897 51.8216 28.168 51.0324 28.6041ZM32.2374 72.6285C29.0357 74.2034 26.8897 77.419 25.9655 79.0354C27.2705 78.537 29.7695 77.5644 33.3381 76.1141C35.1276 75.3872 35.993 74.4665 36.1833 73.6635C36.2491 73.3831 36.2249 73.1166 36.1245 72.8916C36.0241 72.6701 35.8407 72.4728 35.5845 72.3274C34.8853 71.9259 33.6981 71.9155 32.2374 72.6285ZM25.1037 74.0511C24.8718 72.5282 24.2556 69.9772 22.5977 67.7342C21.6562 66.457 20.5243 65.9309 19.6521 65.9724C19.3683 65.9863 19.1121 66.0624 18.9114 66.1905C18.721 66.3151 18.5722 66.4916 18.4822 66.7097C18.2503 67.2843 18.406 68.1704 19.1987 69.278C20.6559 71.3306 22.2273 72.2513 23.5045 73.0024C24.1068 73.352 24.6502 73.6704 25.1037 74.0511ZM34.0408 60.957C30.9118 62.6323 28.8765 65.4359 27.8796 67.0904C29.2884 66.3082 30.531 65.8167 31.9605 65.249C33.217 64.7541 34.6223 64.1968 36.3841 63.3488C37.7098 62.7119 38.3536 61.9712 38.4678 61.3447C38.5059 61.1231 38.4747 60.9189 38.3744 60.7493C38.2705 60.5693 38.094 60.417 37.8482 60.3063C37.0729 59.9601 35.7368 60.0467 34.0408 60.957ZM28.1219 61.182C27.9385 59.5413 27.4781 56.2531 26.4536 53.3109C25.9551 51.8745 25.121 50.9988 24.3906 50.7392C24.1587 50.6596 23.9476 50.6457 23.778 50.7011C23.6257 50.753 23.4942 50.8707 23.4007 51.0576C23.1099 51.6495 23.1792 52.7848 23.9268 54.5432C25.4844 58.2156 27.1701 60.2405 28.1219 61.182ZM47.128 40.0195C43.106 41.8263 38.717 45.3742 36.3945 47.3886C38.1494 46.7725 40.8803 45.9072 44.1409 45.1769C47.9657 44.3219 50.1982 42.1378 52.3927 39.9883C53.4034 39.0019 54.4072 38.0189 55.5598 37.1604C57.2143 35.9317 58.4396 34.741 59.2842 33.8134C58.0692 34.5091 56.4978 35.3744 54.7533 36.2882C52.3892 37.5274 49.6998 38.8634 47.128 40.0195ZM39.0043 40.2687C40.4061 37.9046 42.6283 34.0072 44.0959 30.6878C45.3766 27.7976 46.0965 24.5751 46.7092 21.8476C46.9757 20.6638 47.218 19.5735 47.4811 18.632C46.64 19.5977 45.4908 21.003 44.2378 22.7579C42.1299 25.707 41.9153 26.5273 41.2542 29.0437C41.1261 29.5317 40.9807 30.0855 40.8077 30.7155C40.2365 32.775 39.9666 34.516 39.662 36.4405C39.475 37.6139 39.2812 38.8565 39.0043 40.2687ZM59.2184 20.8507C61.6517 18.7947 66.4629 14.8557 70.3292 12.5228C73.9048 10.3664 77.4111 5.84939 79.3044 3.15649C77.2345 4.71062 73.9048 7.08162 70.6615 8.83651C68.0932 10.2245 66.456 11.2733 65.1649 12.4259C63.8773 13.5785 62.9185 14.8557 61.7036 16.7006C60.5648 18.4244 59.7584 19.8366 59.2184 20.8507ZM93.3885 12.2009C90.1972 11.6609 85.6005 11.9898 82.7277 12.2978C84.0083 12.6647 85.0675 13.1666 86.2859 13.7447C87.1927 14.1739 88.1931 14.6446 89.4391 15.1326C92.6997 16.4064 95.943 15.9772 99.4458 15.5099C100.072 15.4269 100.709 15.3403 101.242 15.278C102.841 15.0876 104.26 15.0011 105.417 14.97C104.607 14.7727 103.676 14.5719 102.675 14.4161C101.163 14.1773 100.142 13.8693 98.9855 13.5231C97.6321 13.1182 96.0918 12.6578 93.3885 12.2009ZM177.73 91.4235L177.72 91.4512C177.592 93.0849 177.419 94.7083 177.194 96.3178C178.488 97.7681 181.157 98.1661 183.563 101.548C186.29 105.38 182.116 107.169 179.475 103.59C177.966 101.544 177.291 99.2426 176.99 97.6539C176.723 99.3361 176.401 100.997 176.027 102.642C176.086 102.766 176.083 102.908 176.02 103.022C176 103.067 175.948 103.178 175.865 103.341C175.425 105.186 174.923 107.003 174.356 108.796C175.172 109.495 177.343 111.655 179.271 116.203C180.126 118.214 180.16 119.602 179.776 120.388C179.579 120.793 179.274 121.052 178.904 121.177C178.554 121.295 178.153 121.281 177.741 121.135C176.799 120.8 175.751 119.741 175.159 118.038C174.307 115.583 173.833 112.901 173.587 111.084C171.389 117.311 168.409 123.171 164.768 128.543C164.176 131.052 163.875 132.984 163.591 134.763C163.286 136.718 163.006 138.487 162.428 140.581C162.251 141.221 162.109 141.761 161.981 142.243C161.289 144.877 161.068 145.735 158.873 148.805C156.388 152.284 154.304 154.406 154.152 154.558C154.027 154.689 153.827 154.731 153.657 154.651C153.442 154.548 153.356 154.295 153.46 154.084C153.996 152.969 154.405 151.155 154.875 149.044C155.498 146.271 156.232 143.001 157.537 140.045C158.347 138.217 159.378 136.22 160.379 134.396C158.828 136.275 157.187 138.075 155.467 139.799C154.515 140.747 153.536 141.675 152.535 142.578C152.494 142.821 151.999 143.097 151.923 143.139L151.878 143.163C149.659 145.115 147.326 146.943 144.889 148.632C144.886 148.66 144.879 148.691 144.865 148.719C144.862 148.726 143.913 151.055 141.418 154.842C140.165 156.745 139.164 158.068 137.814 159.276C136.465 160.484 134.779 161.567 132.155 162.99C126.998 165.776 121.588 170.172 121.574 170.182C121.436 170.293 121.238 170.31 121.079 170.213C120.882 170.089 120.819 169.826 120.944 169.628C120.958 169.601 126.195 161.11 131.646 157.822C134.35 156.188 137.527 153.758 140.009 151.751C134.595 154.932 128.756 157.465 122.595 159.248C122.557 159.269 122.515 159.279 122.474 159.286L122.457 159.289C119.224 160.221 115.904 160.941 112.516 161.442C112.45 161.519 112.36 161.571 112.256 161.584V161.588C112.242 161.588 107.777 162.263 102.696 163.872C101.405 164.281 100.283 164.755 99.2139 165.208C95.9464 166.593 93.1393 167.78 87.9785 166.344C81.3327 164.492 78.3629 164.907 78.3526 164.907C78.1206 164.938 77.906 164.776 77.8749 164.544C77.8541 164.388 77.9199 164.246 78.0306 164.156C78.2487 163.969 80.9105 161.84 89.7818 161.591C93.5304 161.487 96.7114 161.307 99.6812 161.141C103.648 160.916 107.248 160.716 111.432 160.733C113.087 160.511 114.724 160.234 116.347 159.909C113.859 160.054 111.065 160.079 108.888 159.712C106.123 159.241 104.562 158.774 103.187 158.362C102.052 158.026 101.048 157.722 99.6085 157.497C96.3272 156.977 93.745 156.032 93.7381 156.029C93.5166 155.949 93.4024 155.704 93.482 155.482C93.5512 155.302 93.7312 155.191 93.9181 155.205C93.925 155.205 96.8567 155.454 101.073 154.952C101.748 154.869 102.308 154.793 102.859 154.721C106.476 154.239 109.823 153.793 113.284 155.146C114.558 155.645 115.569 156.126 116.489 156.559C118.355 157.445 119.833 158.14 122.356 158.431C132.079 155.614 140.995 150.91 148.683 144.735C146.624 145.648 143.747 146.742 140.559 147.441C137.441 148.127 135.229 149.092 133.1 150.024C130.999 150.944 128.974 151.827 126.247 152.381C120.733 153.502 118.04 153.239 118.033 153.239C117.798 153.218 117.628 153.011 117.649 152.779C117.663 152.609 117.78 152.471 117.929 152.415C117.947 152.412 123.004 150.64 129.355 146.915C134.235 144.053 136.648 143.797 140.784 143.357C142.117 143.215 143.636 143.056 145.516 142.772C148.922 142.26 150.746 142.139 151.674 142.204C152.767 141.232 153.83 140.228 154.865 139.193C159.243 134.815 163.086 129.906 166.291 124.573C163.868 126.653 159.586 130.052 155.633 131.827C153.069 132.98 150.4 134.306 148.053 135.534C145.035 137.116 142.556 138.535 141.556 139.203C141.362 139.332 141.099 139.28 140.968 139.086C140.871 138.944 140.874 138.76 140.961 138.622C140.968 138.615 142.622 136.002 146.35 133.229C147.454 132.405 148.437 131.447 149.427 130.478C151.708 128.245 154.027 125.974 158.094 125.064C163.169 123.929 166.945 122.454 167.686 122.16C169.963 118.024 171.874 113.656 173.362 109.097C173.352 108.972 173.348 108.903 173.345 108.9H173.348C173.341 108.806 173.362 108.709 173.425 108.626C173.459 108.578 173.504 108.536 173.553 108.505C173.836 107.605 174.106 106.698 174.359 105.784C173.158 107.453 171.31 109.505 168.773 110.862C166.817 111.911 165.2 111.98 164.217 111.541C163.806 111.354 163.494 111.08 163.304 110.745C163.106 110.402 163.037 110 163.113 109.575C163.272 108.709 164.065 107.726 165.668 106.954C167.492 106.079 168.89 105.525 170.14 105.03C171.884 104.338 173.338 103.763 175.159 102.628C175.865 99.568 176.38 96.4424 176.702 93.2545C175.56 95.0648 173.476 97.7681 170.548 99.2011C168.807 100.056 167.326 100.008 166.405 99.4814C165.997 99.2495 165.692 98.9172 165.515 98.5226C165.339 98.1281 165.294 97.6781 165.405 97.2073C165.654 96.169 166.682 95.0129 168.759 94.1683C173.21 92.358 176.017 91.2885 176.9 90.9562C177.028 89.1667 177.094 87.3564 177.094 85.5358C177.094 74.9096 174.909 64.7921 170.964 55.6127C170.607 54.9966 169.634 53.3283 168.887 52.1168C168.523 51.5318 168.447 51.0888 168.53 50.8015C168.599 50.573 168.741 50.4242 168.939 50.3446C169.101 50.2823 169.285 50.2754 169.472 50.3273C169.842 50.4277 170.282 50.7738 170.5 51.3034C170.936 52.3487 171.874 55.5123 171.877 55.5227C171.891 55.5573 171.895 55.592 171.895 55.6266C175.789 64.8198 177.945 74.9269 177.945 85.5358C177.945 87.5122 177.869 89.4713 177.723 91.4096L177.73 91.4235ZM170.178 98.443C173.38 96.8716 175.526 93.6526 176.45 92.0361C175.145 92.5346 172.642 93.5072 169.074 94.9575C167.291 95.6844 166.422 96.6085 166.232 97.4081C166.166 97.6919 166.187 97.955 166.291 98.18C166.391 98.405 166.575 98.5988 166.827 98.7442C167.53 99.1457 168.717 99.1595 170.178 98.443ZM168.374 110.118C171.503 108.439 173.539 105.636 174.536 103.985C173.123 104.767 171.884 105.258 170.455 105.823C169.198 106.321 167.793 106.875 166.031 107.723C164.705 108.36 164.062 109.104 163.947 109.727C163.909 109.948 163.941 110.153 164.041 110.322C164.145 110.502 164.325 110.655 164.567 110.765C165.339 111.115 166.678 111.025 168.374 110.118ZM174.293 109.893C174.477 111.53 174.937 114.819 175.958 117.764C176.457 119.201 177.291 120.073 178.025 120.332C178.257 120.415 178.468 120.429 178.634 120.374C178.79 120.322 178.925 120.201 179.015 120.017C179.302 119.426 179.233 118.29 178.488 116.532C176.931 112.856 175.245 110.835 174.293 109.893ZM155.287 131.056C159.309 129.245 163.698 125.701 166.024 123.683C164.269 124.299 161.535 125.164 158.274 125.895C154.45 126.753 152.217 128.934 150.023 131.083C149.012 132.073 148.008 133.053 146.855 133.911C145.201 135.143 143.976 136.331 143.135 137.258C144.346 136.562 145.914 135.701 147.662 134.783C150.026 133.548 152.715 132.208 155.287 131.056ZM163.411 130.806C162.009 133.17 159.787 137.064 158.319 140.384C157.039 143.274 156.315 146.496 155.706 149.227C155.44 150.408 155.194 151.502 154.934 152.443C155.772 151.474 156.924 150.072 158.177 148.314C160.285 145.368 160.5 144.548 161.158 142.031C161.286 141.54 161.431 140.986 161.608 140.356C162.175 138.3 162.452 136.556 162.753 134.631C162.94 133.458 163.134 132.219 163.411 130.806ZM140.379 146.611C145.983 145.382 150.59 142.904 151.379 142.467L151.414 142.44C151.089 142.568 149.808 142.99 145.644 143.617C143.785 143.897 142.235 144.06 140.871 144.202C136.849 144.631 134.502 144.88 129.781 147.649C125.894 149.93 122.477 151.488 120.383 152.367C121.695 152.277 123.585 152.059 126.077 151.55C128.715 151.017 130.698 150.148 132.761 149.245C134.931 148.296 137.185 147.313 140.379 146.611ZM143.193 150.221C140.767 152.277 135.952 156.216 132.086 158.549C128.51 160.705 125.004 165.222 123.111 167.915C125.177 166.364 128.507 163.993 131.75 162.239C134.322 160.847 135.959 159.802 137.25 158.646C138.534 157.493 139.497 156.219 140.712 154.374C141.85 152.647 142.657 151.238 143.193 150.221ZM109.027 158.871C112.218 159.414 116.815 159.082 119.688 158.777C118.407 158.41 117.348 157.905 116.129 157.327C115.222 156.901 114.226 156.427 112.976 155.939C109.716 154.665 106.472 155.098 102.973 155.562C102.343 155.645 101.71 155.731 101.173 155.797C99.5739 155.987 98.1547 156.074 97.0021 156.105C97.8086 156.302 98.7432 156.5 99.74 156.659C101.253 156.894 102.277 157.202 103.433 157.548C104.787 157.953 106.323 158.414 109.027 158.871ZM102.443 163.059C104.337 162.46 106.147 161.989 107.68 161.629V161.622C105.005 161.692 102.454 161.837 99.7296 161.989C96.7702 162.155 93.5996 162.335 89.806 162.443C84.441 162.592 81.4781 163.408 79.9621 164.038C81.5508 164.111 84.261 164.426 88.2069 165.527C93.0839 166.884 95.7664 165.748 98.8851 164.426C99.9858 163.959 101.142 163.471 102.443 163.059ZM124.205 10.6745C124.741 10.6745 125.229 10.8925 125.586 11.249L125.589 11.2525C125.946 11.6056 126.164 12.0936 126.164 12.6336C126.164 13.1735 125.942 13.665 125.589 14.0181C125.582 14.025 125.572 14.0354 125.561 14.0423C125.208 14.3815 124.731 14.5927 124.205 14.5927C123.661 14.5927 123.173 14.3746 122.82 14.0181C122.464 13.665 122.245 13.1735 122.245 12.6336C122.245 12.0936 122.464 11.6056 122.82 11.249C123.173 10.8925 123.661 10.6745 124.205 10.6745ZM124.983 11.8479C124.786 11.6506 124.509 11.526 124.205 11.526C123.897 11.526 123.62 11.6506 123.419 11.8479C123.218 12.0486 123.094 12.3255 123.094 12.6336C123.094 12.9382 123.222 13.2151 123.419 13.4158C123.62 13.6166 123.897 13.7377 124.205 13.7377C124.499 13.7377 124.769 13.6235 124.97 13.4331L124.983 13.4158C125.188 13.2151 125.309 12.9382 125.309 12.6336C125.309 12.3255 125.184 12.0486 124.987 11.8479H124.983ZM129.909 13.2289C130.331 13.2289 130.715 13.402 130.992 13.6789C131.269 13.9558 131.442 14.34 131.442 14.7623C131.442 15.1846 131.269 15.5653 130.992 15.8457C130.715 16.1226 130.331 16.2956 129.909 16.2956C129.487 16.2956 129.106 16.1226 128.825 15.8457C128.549 15.5653 128.375 15.1846 128.375 14.7623C128.375 14.34 128.549 13.9558 128.825 13.6789C129.106 13.402 129.487 13.2289 129.909 13.2289ZM130.39 14.2777C130.269 14.1566 130.099 14.0804 129.909 14.0804C129.718 14.0804 129.549 14.1566 129.428 14.2777C129.303 14.4023 129.227 14.5754 129.227 14.7623C129.227 14.9527 129.303 15.1223 129.428 15.2434C129.549 15.368 129.718 15.4442 129.909 15.4442C130.099 15.4442 130.269 15.368 130.39 15.2434C130.515 15.1223 130.591 14.9527 130.591 14.7623C130.591 14.5754 130.515 14.4023 130.39 14.2777ZM77.4284 159.224C77.6291 159.421 77.906 159.546 78.2141 159.546C78.5187 159.546 78.7956 159.421 78.9964 159.224C79.1971 159.023 79.3183 158.746 79.3183 158.438C79.3183 158.133 79.1936 157.857 78.9964 157.656C78.7956 157.458 78.5187 157.334 78.2141 157.334C77.9164 157.334 77.6464 157.452 77.4491 157.638L77.4318 157.656C77.2311 157.857 77.1065 158.133 77.1065 158.438C77.1065 158.746 77.2311 159.023 77.4284 159.224ZM72.5064 157.843C72.0841 157.843 71.7034 157.673 71.4265 157.393H71.423C71.1426 157.116 70.973 156.732 70.973 156.309C70.973 155.89 71.1426 155.506 71.423 155.229L71.4265 155.226C71.7034 154.949 72.0841 154.776 72.5064 154.776C72.9287 154.776 73.3094 154.949 73.5863 155.226L73.5898 155.229C73.8701 155.506 74.0397 155.89 74.0397 156.309C74.0397 156.732 73.8701 157.116 73.5898 157.393H73.5863C73.3094 157.673 72.9287 157.843 72.5064 157.843ZM72.0218 156.794C72.1464 156.915 72.3195 156.991 72.5064 156.991C72.6933 156.991 72.8664 156.915 72.991 156.794C73.1121 156.669 73.1883 156.5 73.1883 156.309C73.1883 156.122 73.1121 155.949 72.991 155.828C72.8664 155.704 72.6933 155.627 72.5064 155.627C72.3195 155.627 72.1464 155.704 72.0218 155.828C71.9007 155.949 71.8245 156.122 71.8245 156.309C71.8245 156.5 71.9007 156.669 72.0218 156.794Z" fill="#DEB855"/>
</g>
<mask id="mask1_379_8810" style="mask-type:luminance" maskUnits="userSpaceOnUse" x="31" y="116" width="35" height="41">
<path d="M31.3867 116.113H65.9445V156.873H31.3867V116.113Z" fill="white"/>
</mask>
<g mask="url(#mask1_379_8810)">
<mask id="mask2_379_8810" style="mask-type:luminance" maskUnits="userSpaceOnUse" x="25" y="113" width="47" height="49">
<path d="M25.9246 125.85L57.5471 113.652L71.1778 148.995L39.5552 161.19L25.9246 125.85Z" fill="white"/>
</mask>
<g mask="url(#mask2_379_8810)">
<mask id="mask3_379_8810" style="mask-type:luminance" maskUnits="userSpaceOnUse" x="25" y="113" width="47" height="49">
<path d="M25.9246 125.85L57.5471 113.652L71.1778 148.995L39.5552 161.19L25.9246 125.85Z" fill="white"/>
</mask>
<g mask="url(#mask3_379_8810)">
<path d="M43.5983 125.721C43.5707 125.472 43.5499 125.299 43.536 125.123C43.4184 123.468 43.9618 122.056 45.0971 120.858C45.7063 120.218 46.3847 119.661 47.077 119.121C47.7692 118.584 48.3888 117.982 48.9253 117.286C49.2576 116.857 49.5103 116.853 49.8495 117.29C51.4728 119.377 51.8847 122.824 49.5587 125.354C48.7038 126.286 47.7242 127.016 46.5059 127.4C46.0178 127.552 45.5125 127.604 44.9863 127.639C45.1559 128.016 45.3221 128.366 45.4744 128.719C45.6855 129.207 45.8344 129.716 45.9347 130.238C46.0074 130.633 45.9036 130.848 45.5332 131.01C45.0798 131.211 44.6021 131.242 44.1141 131.194C42.8888 131.073 41.6635 131.007 40.4347 131.169C37.496 131.557 35.1839 132.931 33.7024 135.545C32.9271 136.912 32.7714 138.428 32.8164 139.972C32.8648 141.709 33.3909 143.326 34.1247 144.876C34.9001 146.51 35.8381 148.047 37.0945 149.352C39.2682 151.605 41.6462 153.606 44.4914 154.973C46.1978 155.79 47.9908 156.171 49.8979 155.911C51.0021 155.762 51.9505 155.357 52.6774 154.485C53.0962 153.98 53.6015 153.568 54.145 153.201C54.6019 152.889 55.1107 152.761 55.6437 152.72C56.0937 152.685 56.5471 152.64 57.0006 152.72C58.4509 152.972 59.6485 152.436 60.7457 151.55C62.2202 150.356 63.2032 148.819 63.8159 147.057C64.9512 143.796 65.4773 140.432 65.242 136.981C65.0931 134.762 64.5324 132.62 63.4975 130.64C62.4314 128.598 60.9499 126.936 58.7728 126.047C57.0906 125.361 55.3426 125.341 53.5912 125.818C51.7947 126.306 50.3271 127.327 49.0015 128.594C48.2954 129.273 47.8004 130.1 47.2466 130.886C46.3259 132.194 45.0867 132.956 43.4634 133.028C43.0792 133.042 42.7088 132.969 42.3419 132.883C42.1377 132.838 41.9231 132.772 41.9819 132.506C42.0373 132.239 42.2554 132.256 42.4596 132.308C42.9511 132.433 43.4461 132.481 43.9514 132.395C45.1594 132.191 46.0767 131.536 46.7655 130.546C47.2293 129.878 47.6446 129.176 48.195 128.57C49.1295 127.552 50.2095 126.708 51.4244 126.057C53.1931 125.109 55.0795 124.738 57.0802 124.998C59.2262 125.275 60.9153 126.362 62.3448 127.933C63.6913 129.408 64.5116 131.163 65.0793 133.049C65.7023 135.122 66.0208 137.237 65.8719 139.407C65.685 142.128 65.2973 144.811 64.3282 147.379C63.5874 149.348 62.4625 151.051 60.7249 152.301C59.6312 153.087 58.4509 153.512 57.0767 153.322C56.5575 153.246 56.021 153.253 55.4949 153.325C54.6815 153.433 54.0792 153.917 53.515 154.468C53.065 154.911 52.667 155.416 52.1305 155.762C51.2375 156.34 50.2198 156.513 49.1814 156.569C47.2223 156.672 45.3982 156.164 43.7022 155.236C40.587 153.537 37.8629 151.339 35.665 148.545C34.2424 146.735 33.1971 144.7 32.6087 142.464C31.9891 140.103 31.9891 137.746 33.069 135.503C33.9067 133.759 35.2566 132.485 36.9803 131.606C38.9844 130.578 41.127 130.373 43.3353 130.533C43.8787 130.574 44.4221 130.681 44.9725 130.581C45.3429 130.512 45.4017 130.45 45.3082 130.103C44.6367 127.601 43.1934 125.69 40.9262 124.423C40.4935 124.185 40.0228 124.032 39.5244 123.991C39.3029 123.973 39.1021 123.901 39.1367 123.641C39.1713 123.385 39.3894 123.371 39.6005 123.399C40.7705 123.555 41.7431 124.122 42.6361 124.856C42.9476 125.109 43.2349 125.396 43.5983 125.721ZM45.0833 127.033C45.5851 127.012 46.004 126.95 46.4055 126.819C47.6066 126.421 48.5376 125.656 49.3372 124.707C51.0402 122.689 50.9052 119.868 49.5691 117.881C49.4341 117.681 49.3614 117.657 49.1988 117.868C48.8007 118.397 48.33 118.861 47.8108 119.28C47.257 119.723 46.7031 120.169 46.1736 120.637C45.2944 121.412 44.5571 122.288 44.2595 123.461C43.9756 124.579 44.1037 125.663 44.526 126.746C44.5848 126.694 44.6229 126.663 44.654 126.632C46.2116 124.974 47.4681 123.118 48.3057 120.993C48.4407 120.644 48.5792 120.529 48.7661 120.623C49.0603 120.775 48.9288 121.007 48.8492 121.215C48.3888 122.395 47.79 123.499 47.0804 124.548C46.4989 125.41 45.8482 126.22 45.0833 127.033ZM37.1084 145.257C38.3787 147.434 40.0505 149.258 42.0408 150.792C43.6607 152.038 45.4225 153.024 47.3677 153.665C47.565 153.73 47.7623 153.751 47.8385 153.512C47.9146 153.273 47.7415 153.177 47.5477 153.104C47.1462 152.958 46.7412 152.823 46.3501 152.65C42.733 151.055 39.8705 148.573 37.773 145.222C36.8107 143.682 36.1323 142.021 35.9385 140.197C35.755 138.49 36.0111 136.891 37.1361 135.517C37.1707 135.475 37.1984 135.42 37.2191 135.368C37.2607 135.25 37.2399 135.143 37.143 135.06C37.0461 134.977 36.9388 134.97 36.8246 135.025C36.7173 135.077 36.6515 135.174 36.5823 135.261C35.8727 136.164 35.485 137.199 35.35 138.331C35.1527 139.989 35.485 141.571 36.07 143.111C36.3469 143.859 36.7069 144.572 37.1084 145.257ZM38.216 134.607C38.3752 134.551 38.4375 134.427 38.3891 134.267C38.3371 134.105 38.2091 134.046 38.0533 134.098C37.8941 134.146 37.8353 134.267 37.8803 134.44C37.946 134.579 38.0533 134.662 38.216 134.607Z" fill="#DEB855"/>
<path d="M43.5983 125.721C43.5707 125.472 43.5499 125.299 43.536 125.123C43.4184 123.468 43.9618 122.056 45.0971 120.858C45.7063 120.218 46.3847 119.661 47.077 119.121C47.7692 118.584 48.3888 117.982 48.9253 117.286C49.2576 116.857 49.5103 116.853 49.8495 117.29C51.4728 119.377 51.8847 122.824 49.5587 125.354C48.7038 126.286 47.7242 127.016 46.5059 127.4C46.0178 127.552 45.5125 127.604 44.9863 127.639C45.1559 128.016 45.3221 128.366 45.4744 128.719C45.6855 129.207 45.8344 129.716 45.9347 130.238C46.0074 130.633 45.9036 130.848 45.5332 131.01C45.0798 131.211 44.6021 131.242 44.1141 131.194C42.8888 131.073 41.6635 131.007 40.4347 131.169C37.496 131.557 35.1839 132.931 33.7024 135.545C32.9271 136.912 32.7714 138.428 32.8164 139.972C32.8648 141.709 33.3909 143.326 34.1247 144.876C34.9001 146.51 35.8381 148.047 37.0945 149.352C39.2682 151.605 41.6462 153.606 44.4914 154.973C46.1978 155.79 47.9908 156.171 49.8979 155.911C51.0021 155.762 51.9505 155.357 52.6774 154.485C53.0962 153.98 53.6015 153.568 54.145 153.201C54.6019 152.889 55.1107 152.761 55.6437 152.72C56.0937 152.685 56.5471 152.64 57.0006 152.72C58.4509 152.972 59.6485 152.436 60.7457 151.55C62.2202 150.356 63.2032 148.819 63.8159 147.057C64.9512 143.796 65.4773 140.432 65.242 136.981C65.0931 134.762 64.5324 132.62 63.4975 130.64C62.4314 128.598 60.9499 126.936 58.7728 126.047C57.0906 125.361 55.3426 125.341 53.5912 125.818C51.7947 126.306 50.3271 127.327 49.0015 128.594C48.2954 129.273 47.8004 130.1 47.2466 130.886C46.3259 132.194 45.0867 132.956 43.4634 133.028C43.0792 133.042 42.7088 132.969 42.3419 132.883C42.1377 132.838 41.9231 132.772 41.9819 132.506C42.0373 132.239 42.2554 132.256 42.4596 132.308C42.9511 132.433 43.4461 132.481 43.9514 132.395C45.1594 132.191 46.0767 131.536 46.7655 130.546C47.2293 129.878 47.6446 129.176 48.195 128.57C49.1295 127.552 50.2095 126.708 51.4244 126.057C53.1931 125.109 55.0795 124.738 57.0802 124.998C59.2262 125.275 60.9153 126.362 62.3448 127.933C63.6913 129.408 64.5116 131.163 65.0793 133.049C65.7023 135.122 66.0208 137.237 65.8719 139.407C65.685 142.128 65.2973 144.811 64.3282 147.379C63.5874 149.348 62.4625 151.051 60.7249 152.301C59.6312 153.087 58.4509 153.512 57.0767 153.322C56.5575 153.246 56.021 153.253 55.4949 153.325C54.6815 153.433 54.0792 153.917 53.515 154.468C53.065 154.911 52.667 155.416 52.1305 155.762C51.2375 156.34 50.2198 156.513 49.1814 156.569C47.2223 156.672 45.3982 156.164 43.7022 155.236C40.587 153.537 37.8629 151.339 35.665 148.545C34.2424 146.735 33.1971 144.7 32.6087 142.464C31.9891 140.103 31.9891 137.746 33.069 135.503C33.9067 133.759 35.2566 132.485 36.9803 131.606C38.9844 130.578 41.127 130.373 43.3353 130.533C43.8787 130.574 44.4221 130.681 44.9725 130.581C45.3429 130.512 45.4017 130.45 45.3082 130.103C44.6367 127.601 43.1934 125.69 40.9262 124.423C40.4935 124.185 40.0228 124.032 39.5244 123.991C39.3029 123.973 39.1021 123.901 39.1367 123.641C39.1713 123.385 39.3894 123.371 39.6005 123.399C40.7705 123.555 41.7431 124.122 42.6361 124.856C42.9476 125.109 43.2349 125.396 43.5983 125.721ZM45.0833 127.033C45.5851 127.012 46.004 126.95 46.4055 126.819C47.6066 126.421 48.5376 125.656 49.3372 124.707C51.0402 122.689 50.9052 119.868 49.5691 117.881C49.4341 117.681 49.3614 117.657 49.1988 117.868C48.8007 118.397 48.33 118.861 47.8108 119.28C47.257 119.723 46.7031 120.169 46.1736 120.637C45.2944 121.412 44.5571 122.288 44.2595 123.461C43.9756 124.579 44.1037 125.663 44.526 126.746C44.5848 126.694 44.6229 126.663 44.654 126.632C46.2116 124.974 47.4681 123.118 48.3057 120.993C48.4407 120.644 48.5792 120.529 48.7661 120.623C49.0603 120.775 48.9288 121.007 48.8492 121.215C48.3888 122.395 47.79 123.499 47.0804 124.548C46.4989 125.41 45.8482 126.22 45.0833 127.033ZM37.1084 145.257C38.3787 147.434 40.0505 149.258 42.0408 150.792C43.6607 152.038 45.4225 153.024 47.3677 153.665C47.565 153.73 47.7623 153.751 47.8385 153.512C47.9146 153.273 47.7415 153.177 47.5477 153.104C47.1462 152.958 46.7412 152.823 46.3501 152.65C42.733 151.055 39.8705 148.573 37.773 145.222C36.8107 143.682 36.1323 142.021 35.9385 140.197C35.755 138.49 36.0111 136.891 37.1361 135.517C37.1707 135.475 37.1984 135.42 37.2191 135.368C37.2607 135.25 37.2399 135.143 37.143 135.06C37.0461 134.977 36.9388 134.97 36.8246 135.025C36.7173 135.077 36.6515 135.174 36.5823 135.261C35.8727 136.164 35.485 137.199 35.35 138.331C35.1527 139.989 35.485 141.571 36.07 143.111C36.3469 143.859 36.7069 144.572 37.1084 145.257ZM38.216 134.607C38.3752 134.551 38.4375 134.427 38.3891 134.267C38.3371 134.105 38.2091 134.046 38.0533 134.098C37.8941 134.146 37.8353 134.267 37.8803 134.44C37.946 134.579 38.0533 134.662 38.216 134.607Z" fill="#DEB855"/>
</g>
</g>
</g>
<mask id="mask4_379_8810" style="mask-type:luminance" maskUnits="userSpaceOnUse" x="135" y="4" width="41" height="48">
<path d="M135.056 4.46484H175.817V51.428H135.056V4.46484Z" fill="white"/>
</mask>
<g mask="url(#mask4_379_8810)">
<mask id="mask5_379_8810" style="mask-type:luminance" maskUnits="userSpaceOnUse" x="123" y="-3" width="59" height="62">
<path d="M144.017 -2.80713L181.534 14.226L161.483 58.3993L123.962 41.3696L144.017 -2.80713Z" fill="white"/>
</mask>
<g mask="url(#mask5_379_8810)">
<mask id="mask6_379_8810" style="mask-type:luminance" maskUnits="userSpaceOnUse" x="123" y="-3" width="59" height="62">
<path d="M144.018 -2.80713L181.535 14.226L161.483 58.3993L123.963 41.3696L144.018 -2.80713Z" fill="white"/>
</mask>
<g mask="url(#mask6_379_8810)">
<path d="M173.778 31.6638C174.156 30.7846 174.066 29.3551 173.38 28.1437C174.453 27.9429 174.955 27.2956 175.374 26.3784C175.817 25.3988 175.744 24.222 175.18 23.3013C174.869 22.7855 174.401 22.3737 173.861 22.0967C174.685 21.0237 174.858 19.4904 174.308 18.2582C173.872 17.289 172.996 16.5413 171.975 16.2194C172.37 15.9183 172.685 15.4787 172.844 14.9803C173.058 14.2949 173.031 13.4885 172.761 12.6404C172.151 10.7679 170.528 9.24835 168.617 8.75338C167.108 8.37263 165.44 8.653 164.107 9.45949C163.107 7.80498 161.134 6.74582 159.203 6.8635C158.123 6.93273 157.074 7.36539 156.219 8.04035C155.343 6.31315 153.436 5.19168 151.498 5.30245C149.688 5.40283 147.967 6.59352 147.168 8.25149C146.666 7.87074 145.977 7.7669 145.416 7.99189C144.807 8.23072 144.388 8.8226 144.309 9.46295C143.101 9.00952 141.491 8.56993 140.259 10.0514C139.636 10.8094 139.407 11.8478 139.58 12.8031C137.749 12.9277 136.365 14.0527 135.953 15.7556C135.662 16.9636 135.977 18.2755 136.701 19.2792C135.946 20.2692 135.956 21.7679 136.77 22.7232C137.026 23.0105 137.338 23.2494 137.677 23.4017C138.21 23.644 138.805 23.7166 139.38 23.6128C139.362 23.6751 139.369 23.7374 139.401 23.7997C139.629 24.2428 140.027 24.5508 140.474 24.7516C140.899 24.9454 141.387 25.0492 141.837 25.0908C141.837 25.115 141.823 25.1427 141.834 25.1704C142.422 29.5836 142.242 33.6091 141.308 37.1569C140.917 38.6349 140.384 40.0956 139.712 41.4974C139.421 42.1101 139.089 42.7435 138.722 43.37C138.618 43.5465 138.487 43.73 138.348 43.9342C138.068 44.3219 137.777 44.7268 137.659 45.1422C137.161 46.8313 138.525 47.7382 139.619 48.4685C139.743 48.5516 139.864 48.6416 139.982 48.7177C140.685 49.1988 141.45 49.6281 142.28 50.0053C143.125 50.3861 144.046 50.7253 145.039 51.0022C146.953 51.5422 147.818 50.1507 148.306 49.05C148.583 48.4166 148.767 47.7555 148.947 47.1013C149.044 46.7586 149.13 46.4125 149.241 46.0664C150.037 43.5673 151.629 41.1167 153.827 38.9741C155.807 37.0496 158.199 35.5405 160.376 34.8275C160.473 34.7998 160.532 34.7202 160.556 34.6406C160.802 34.9728 161.103 35.2359 161.449 35.3951C161.594 35.4609 161.761 35.5128 161.916 35.5474C162.1 35.5855 162.28 35.5959 162.467 35.5993C162.757 36.1635 163.246 36.6066 163.817 36.8662C164.37 37.1189 164.997 37.2019 165.596 37.0669C166.831 36.7866 167.766 35.6236 167.78 34.3602C167.78 34.2079 167.662 34.0833 167.499 34.0798C167.347 34.0798 167.223 34.1975 167.219 34.3602C167.209 35.3605 166.44 36.3054 165.475 36.5339C164.578 36.7347 163.581 36.3054 163.079 35.5405C163.488 35.4332 163.9 35.2463 164.284 34.9659C164.409 34.869 164.44 34.6994 164.346 34.5748C164.249 34.4467 164.076 34.4156 163.952 34.5125C163.342 34.959 162.636 35.1528 162.038 35.0317C161.556 34.9313 161.179 34.6544 160.909 34.194C160.518 33.5364 160.476 32.6295 160.791 31.7573C160.795 31.7469 160.795 31.7469 160.788 31.733C161.075 31.7469 161.359 31.7365 161.626 31.7157C161.674 31.7157 161.719 31.6881 161.768 31.6638C162.031 32.1346 162.38 32.5257 162.806 32.8234C162.813 32.8268 162.823 32.8337 162.834 32.8372C162.91 32.8718 163.007 32.8441 163.052 32.7714C163.111 32.6918 163.09 32.5811 163.007 32.5292C162.245 31.9961 161.736 31.0892 161.605 30.037C161.591 29.9401 161.504 29.8743 161.411 29.8778C161.311 29.8916 161.248 29.9816 161.252 30.0751C161.297 30.4593 161.394 30.8158 161.529 31.1585C160.871 31.1965 160.127 31.1862 159.549 30.8435C159.047 30.532 158.628 29.8293 158.863 29.1094C158.874 29.0886 158.874 29.0644 158.87 29.0401C159.417 28.8913 159.885 28.5798 160.269 28.1229C160.57 27.7456 160.771 27.2991 160.847 26.8214C161.501 27.0014 162.221 26.8837 162.782 26.4961C163.425 26.053 163.806 25.295 163.782 24.5231C163.775 24.2531 163.713 23.9797 163.609 23.7201C163.81 23.592 163.993 23.4397 164.145 23.2632C164.18 23.2563 164.204 23.2563 164.239 23.2355C164.807 22.9102 165.513 22.8236 166.143 23.0036C166.773 23.1836 167.33 23.6232 167.641 24.1978C167.718 24.3397 167.887 24.3778 168.022 24.312C168.161 24.2358 168.202 24.0662 168.136 23.9312C167.749 23.2182 167.081 22.6817 166.291 22.4636C165.755 22.3148 165.18 22.3217 164.644 22.474C164.786 22.1314 164.848 21.7645 164.845 21.3872C164.817 20.4422 164.298 19.5285 163.484 18.985C163.01 18.6631 162.429 18.4797 161.83 18.4312C161.678 16.974 160.746 15.6518 159.435 15.0668C158.161 14.513 156.569 14.7241 155.416 15.5895C154.956 14.4472 153.928 13.5265 152.709 13.2773C151.193 12.9623 149.514 13.7065 148.732 15.0426C148.653 15.1707 148.698 15.3541 148.826 15.4233C148.836 15.4268 148.846 15.4337 148.857 15.4372C148.981 15.496 149.141 15.451 149.213 15.3195C149.878 14.1842 151.301 13.5473 152.592 13.8173C153.883 14.0873 154.942 15.2226 155.104 16.5344C155.111 16.5725 155.122 16.6002 155.136 16.6175C154.786 16.6452 154.433 16.7317 154.097 16.8494C154.014 16.8805 153.966 16.9878 153.997 17.0709C154.014 17.1125 154.045 17.1505 154.09 17.1713C154.132 17.1886 154.187 17.1921 154.229 17.1748C154.99 16.8909 155.859 16.8771 156.631 17.1332C156.721 17.1644 156.825 17.1159 156.856 17.0259C156.884 16.9325 156.839 16.8321 156.745 16.8009C156.396 16.6763 156.025 16.614 155.651 16.5933C155.672 16.5483 155.679 16.5033 155.683 16.4479C155.672 16.3371 155.638 16.2402 155.613 16.1364C156.614 15.2918 158.071 15.0668 159.23 15.5722C160.348 16.0671 161.148 17.1886 161.29 18.4208C161.117 18.4347 160.958 18.4554 160.788 18.4935C160.632 18.5281 160.542 18.677 160.577 18.8327C160.611 18.9885 160.757 19.075 160.913 19.0439C161.705 18.8639 162.553 19.0058 163.187 19.4315C163.851 19.8746 164.277 20.6292 164.298 21.3837C164.315 22.1175 163.941 22.834 163.356 23.2217C163.176 22.9759 162.951 22.7579 162.688 22.5917C162.55 22.5052 162.377 22.5536 162.304 22.6852C162.224 22.8132 162.269 22.9967 162.401 23.0694C162.892 23.374 163.232 23.9347 163.249 24.5162C163.266 25.0942 162.965 25.6827 162.487 26.015C162.034 26.3196 161.425 26.3957 160.909 26.2192C160.906 26.1015 160.899 25.9942 160.875 25.8661C160.85 25.7138 160.698 25.61 160.546 25.6342C160.393 25.6584 160.29 25.8107 160.317 25.963C160.421 26.5826 160.255 27.2541 159.86 27.7387C159.442 28.251 158.895 28.5279 158.244 28.5452C157.403 28.5729 156.465 28.1471 155.814 27.4445C155.603 27.2195 155.274 27.1399 154.983 27.2645C153.907 27.711 152.619 27.6175 151.636 27.0049C150.667 26.4165 150.013 25.3365 149.902 24.1874C149.888 24.0178 149.784 23.8551 149.625 23.7963C149.473 23.7236 149.286 23.7443 149.144 23.8551C148.379 24.4331 147.296 24.5577 146.458 24.1424C145.506 23.689 144.904 22.5986 145.018 21.5499C145.863 21.7472 146.79 21.6572 147.583 21.2799C147.718 21.2107 147.784 21.0445 147.715 20.9061C147.649 20.7711 147.479 20.7088 147.344 20.7745C146.642 21.1103 145.804 21.183 145.053 20.9822C144.305 20.7849 143.616 20.3211 143.159 19.6807C143.066 19.5561 142.893 19.525 142.768 19.6184C142.644 19.7154 142.609 19.885 142.706 20.0096C143.108 20.5668 143.672 21.0203 144.302 21.3076C144.357 21.3318 144.416 21.3595 144.478 21.3768C144.471 21.3976 144.464 21.4045 144.468 21.4287C144.378 22.1141 144.551 22.8098 144.904 23.4017L144.897 23.412C144.444 24.0212 143.72 24.4401 142.976 24.5335C142.073 24.6477 140.463 24.492 139.975 23.5574C139.965 23.5297 139.944 23.5193 139.92 23.4986C140.089 23.4363 140.266 23.3532 140.422 23.2459C140.55 23.1663 140.588 22.9828 140.501 22.8617C140.422 22.7336 140.238 22.6956 140.117 22.7821C139.248 23.3567 137.943 23.1732 137.261 22.384C136.652 21.6745 136.614 20.5253 137.126 19.7534C137.403 20.0442 137.718 20.3038 138.071 20.4976C138.082 20.5045 138.092 20.508 138.092 20.508C138.227 20.5703 138.376 20.5218 138.449 20.3903C138.525 20.2484 138.469 20.0857 138.345 20.0027C136.95 19.2204 136.185 17.4586 136.548 15.9079C136.912 14.4161 138.144 13.4469 139.774 13.3812C139.857 13.6061 139.947 13.8207 140.079 14.0215C140.103 14.0665 140.148 14.0976 140.197 14.1219C140.217 14.1288 140.238 14.1288 140.262 14.1288C139.954 14.5026 139.709 14.9145 139.56 15.3714C139.522 15.5064 139.584 15.6518 139.709 15.7106C139.719 15.7141 139.729 15.7175 139.74 15.721C139.882 15.766 140.048 15.6864 140.089 15.5445C140.432 14.4507 141.418 13.5888 142.547 13.3915C142.699 13.3673 142.803 13.215 142.779 13.0627C142.755 12.9139 142.602 12.81 142.45 12.8343C141.751 12.9589 141.103 13.3085 140.581 13.7931C140.567 13.7654 140.564 13.7273 140.539 13.7031C139.906 12.7304 139.985 11.3182 140.719 10.4252C141.83 9.08567 143.312 9.67409 144.509 10.1483C144.547 10.1656 144.596 10.1656 144.644 10.1621L144.651 10.1691C144.669 10.1621 144.672 10.1518 144.682 10.1552C144.696 10.1518 144.721 10.1517 144.738 10.1344C144.752 10.131 144.769 10.1171 144.776 10.1068C144.793 10.0894 144.807 10.086 144.814 10.0652C144.835 10.0514 144.838 10.041 144.849 10.0237C144.852 10.0133 144.866 10.0064 144.859 9.99253C144.866 9.98215 144.866 9.98214 144.869 9.97522C144.876 9.95445 144.873 9.94061 144.88 9.91984C144.88 9.89561 144.887 9.88869 144.883 9.86446C144.89 9.85408 144.89 9.85408 144.883 9.84023C144.8 9.30027 145.132 8.72569 145.641 8.52839C146.025 8.37609 146.496 8.44878 146.853 8.7153C146.932 8.77415 147.029 8.81914 147.13 8.82953C146.918 8.97836 146.732 9.16181 146.579 9.37295C146.52 9.4491 146.538 9.56333 146.617 9.62217C146.624 9.62563 146.635 9.63255 146.645 9.63601C146.721 9.67063 146.804 9.64986 146.856 9.58063C147.254 9.03721 147.926 8.68761 148.611 8.67377C148.708 8.67031 148.788 8.5907 148.784 8.49378C148.781 8.40032 148.705 8.31725 148.608 8.32071C148.324 8.3311 148.04 8.38994 147.773 8.49032C148.445 7.00888 149.971 5.96356 151.56 5.88049C153.332 5.78357 155.073 6.83235 155.814 8.44186C155.274 8.96452 154.845 9.59794 154.585 10.2971C154.533 10.439 154.603 10.5983 154.727 10.6536C154.738 10.6606 154.738 10.6606 154.748 10.664C154.897 10.7194 155.056 10.6536 155.111 10.5013C155.752 8.80876 157.469 7.54538 159.268 7.44154C161.009 7.33078 162.768 8.29302 163.654 9.79177C163.477 9.9233 163.311 10.0583 163.149 10.2071C163.038 10.3179 163.031 10.491 163.145 10.6017C163.249 10.7056 163.429 10.7194 163.54 10.6052C164.831 9.37988 166.776 8.87452 168.496 9.30373C170.224 9.73985 171.688 11.1175 172.238 12.8135C172.39 13.3258 172.532 14.0907 172.304 14.8038C172.145 15.3056 171.795 15.7175 171.369 15.9321C171.328 15.9495 171.29 15.9806 171.265 16.0118C170.376 15.8075 169.438 15.8145 168.555 16.0429C168.406 16.081 168.313 16.2367 168.351 16.3856C168.375 16.4652 168.434 16.5379 168.51 16.5725C168.569 16.6002 168.638 16.6071 168.704 16.5898C169.559 16.3717 170.48 16.3821 171.328 16.614C171.373 16.6452 171.421 16.6694 171.473 16.6798C171.58 16.704 171.695 16.7352 171.795 16.7698C172.016 16.8459 172.231 16.9429 172.439 17.0502C172.449 17.0536 172.449 17.0536 172.46 17.0571C173.041 17.3928 173.533 17.9086 173.806 18.5108C174.291 19.5804 174.131 20.9095 173.398 21.8268C173.377 21.851 173.363 21.8821 173.363 21.9029C173.1 21.8198 172.83 21.7679 172.546 21.7541C172.387 21.7402 172.259 21.8683 172.252 22.0171C172.238 22.1764 172.366 22.3044 172.515 22.3113C173.394 22.3494 174.259 22.8617 174.713 23.6128C175.177 24.3639 175.236 25.3677 174.876 26.1638C174.505 26.9737 174.124 27.4791 173.256 27.621C173.193 27.6279 173.141 27.6625 173.096 27.7145C172.74 27.2368 172.283 26.8076 171.705 26.4857C171.57 26.3992 171.4 26.4649 171.328 26.5965C171.252 26.7349 171.307 26.9011 171.438 26.9703C173.294 28.0018 173.771 30.3174 173.276 31.4596C172.833 32.4842 171.857 32.6849 170.521 32.6399C170.822 32.3422 171.033 31.9234 171.137 31.3627C171.158 31.2692 171.096 31.1689 170.995 31.1585C170.898 31.1412 170.812 31.2035 170.791 31.3004C170.573 32.4253 169.954 32.8926 168.884 32.723C168.791 32.7022 168.701 32.768 168.68 32.8649C168.669 32.941 168.714 33.0207 168.784 33.0518C168.794 33.0553 168.811 33.0657 168.825 33.0587C169.261 33.128 169.635 33.1003 169.957 32.986C169.954 33.0207 169.957 33.0587 169.967 33.0864C170.331 34.1144 169.86 34.7167 169.514 34.9105C169.057 35.1701 168.444 35.139 167.946 35.0974C167.79 35.0871 167.666 35.2047 167.652 35.364C167.641 35.4851 167.714 35.589 167.818 35.6374C167.849 35.6513 167.88 35.6547 167.915 35.6582C168.482 35.6928 169.189 35.7343 169.798 35.3917C170.4 35.0455 170.853 34.2494 170.59 33.1833C171.878 33.2283 173.193 33.031 173.778 31.6638ZM155.368 27.8114C156.126 28.6352 157.219 29.1336 158.227 29.099C158.251 29.099 158.265 29.0921 158.289 29.0921C158.119 29.9262 158.521 30.7154 159.078 31.155C156.101 32.01 153.678 33.4326 151.73 35.4886C152.332 32.7991 153.422 30.2205 154.966 27.9221C154.99 27.8979 154.997 27.8564 155.011 27.8252C155.066 27.8045 155.118 27.7941 155.174 27.7733C155.239 27.7318 155.312 27.7525 155.368 27.8114ZM149.321 24.3674C149.421 25.1739 149.774 25.9388 150.283 26.5688C149.57 29.2928 148.293 31.8507 146.559 34.0521C145.589 31.02 145.427 27.7006 146.109 24.6027C146.129 24.6097 146.143 24.6304 146.16 24.6374C147.15 25.0873 148.407 24.9904 149.321 24.3674ZM142.986 25.0769C143.845 24.9627 144.641 24.5197 145.184 23.8586C145.316 24.0074 145.454 24.1424 145.607 24.2705C145.6 24.2774 145.596 24.2878 145.593 24.2981C144.814 27.6591 145.008 31.2935 146.126 34.5679C145.929 34.7929 145.738 35.0351 145.534 35.2567C145.423 35.3709 145.434 35.5509 145.551 35.6513C145.579 35.672 145.607 35.6859 145.627 35.6963C145.731 35.7447 145.859 35.7205 145.946 35.6305C146.174 35.3847 146.385 35.1286 146.603 34.8794C146.655 34.8413 146.697 34.8032 146.707 34.7513C148.573 32.4911 149.951 29.8466 150.733 27.0153C150.913 27.1814 151.096 27.3233 151.304 27.4514C151.453 27.5414 151.602 27.621 151.757 27.6902C152.522 28.0398 153.405 28.1471 154.239 28.0121C152.235 31.1412 151.017 34.7202 150.712 38.3995C150.702 38.5242 150.774 38.628 150.878 38.6764C150.909 38.6868 150.944 38.6903 150.975 38.6938C151.134 38.7076 151.266 38.5934 151.28 38.4376C151.328 37.7938 151.422 37.1465 151.536 36.5097C151.539 36.4993 151.553 36.4958 151.56 36.4854C153.654 34.0037 156.236 32.4322 159.687 31.5358C159.715 31.5254 159.743 31.515 159.777 31.4942C159.926 31.5531 160.085 31.5877 160.248 31.6154C159.94 32.5499 159.981 33.5156 160.366 34.2598C160.324 34.2529 160.276 34.2563 160.234 34.2702C157.974 35.0075 155.499 36.5685 153.457 38.5484C151.186 40.7532 149.556 43.2904 148.729 45.8829C148.618 46.229 148.528 46.5821 148.428 46.9351C148.258 47.5582 148.078 48.2124 147.811 48.8043C147.143 50.2995 146.392 50.7737 145.209 50.4484C143.294 49.905 141.695 49.1919 140.318 48.2366C140.19 48.157 140.069 48.067 139.94 47.9874C138.999 47.3609 138.103 46.7655 138.137 45.7652C140.605 46.0352 143.568 47.4024 145.33 49.1019C145.354 49.1227 145.378 49.1469 145.409 49.1608C145.513 49.2092 145.641 49.185 145.728 49.095C145.839 48.9808 145.839 48.8077 145.724 48.697C143.883 46.9386 140.82 45.5125 138.244 45.2183C138.355 44.9207 138.591 44.5815 138.822 44.2561C138.975 44.0449 139.113 43.8407 139.227 43.6469C139.598 43.01 139.934 42.3697 140.235 41.7328C140.923 40.2963 141.47 38.8045 141.875 37.2954C142.824 33.6887 143.007 29.5801 142.412 25.1081C142.616 25.1185 142.82 25.1081 142.986 25.0769Z" fill="#DEB855"/>
</g>
</g>
</g>
<mask id="mask7_379_8810" style="mask-type:luminance" maskUnits="userSpaceOnUse" x="140" y="34" width="4" height="8">
<path d="M140.375 34.5923H143.919V41.6811H140.375V34.5923Z" fill="white"/>
</mask>
<g mask="url(#mask7_379_8810)">
<mask id="mask8_379_8810" style="mask-type:luminance" maskUnits="userSpaceOnUse" x="123" y="-3" width="59" height="62">
<path d="M144.02 -2.80713L181.537 14.226L161.486 58.3993L123.965 41.3696L144.02 -2.80713Z" fill="white"/>
</mask>
<g mask="url(#mask8_379_8810)">
<mask id="mask9_379_8810" style="mask-type:luminance" maskUnits="userSpaceOnUse" x="123" y="-3" width="59" height="62">
<path d="M144.019 -2.80713L181.536 14.226L161.485 58.3993L123.964 41.3696L144.019 -2.80713Z" fill="white"/>
</mask>
<g mask="url(#mask9_379_8810)">
<path d="M141.111 41.1272C141.069 41.2137 141.104 41.321 141.19 41.3591C141.277 41.4006 141.377 41.3625 141.426 41.2795C142.281 39.4484 142.845 37.5136 143.111 35.5094C143.122 35.4091 143.056 35.3191 142.956 35.3087C142.855 35.2983 142.769 35.3641 142.758 35.4645C142.499 37.4236 141.945 39.3342 141.111 41.1272Z" fill="#DEB855"/>
</g>
</g>
</g>
<mask id="mask10_379_8810" style="mask-type:luminance" maskUnits="userSpaceOnUse" x="139" y="41" width="3" height="3">
<path d="M139.491 41.6812H141.263V43.4533H139.491V41.6812Z" fill="white"/>
</mask>
<g mask="url(#mask10_379_8810)">
<mask id="mask11_379_8810" style="mask-type:luminance" maskUnits="userSpaceOnUse" x="123" y="-3" width="59" height="62">
<path d="M144.02 -2.80713L181.538 14.226L161.486 58.3993L123.966 41.3696L144.02 -2.80713Z" fill="white"/>
</mask>
<g mask="url(#mask11_379_8810)">
<mask id="mask12_379_8810" style="mask-type:luminance" maskUnits="userSpaceOnUse" x="123" y="-3" width="59" height="62">
<path d="M144.019 -2.80713L181.537 14.226L161.485 58.3993L123.965 41.3696L144.019 -2.80713Z" fill="white"/>
</mask>
<g mask="url(#mask12_379_8810)">
<path d="M141.023 41.9272C140.936 41.8891 140.836 41.9341 140.794 42.0241L140.348 43.059C140.31 43.1455 140.355 43.2459 140.441 43.2875C140.531 43.3255 140.631 43.2805 140.673 43.194L141.119 42.1591C141.158 42.0725 141.113 41.9687 141.023 41.9272Z" fill="#DEB855"/>
</g>
</g>
</g>
<mask id="mask13_379_8810" style="mask-type:luminance" maskUnits="userSpaceOnUse" x="149" y="33" width="3" height="6">
<path d="M149.234 33.7061H151.006V38.1365H149.234V33.7061Z" fill="white"/>
</mask>
<g mask="url(#mask13_379_8810)">
<mask id="mask14_379_8810" style="mask-type:luminance" maskUnits="userSpaceOnUse" x="123" y="-3" width="59" height="62">
<path d="M144.017 -2.80713L181.534 14.226L161.483 58.3993L123.962 41.3696L144.017 -2.80713Z" fill="white"/>
</mask>
<g mask="url(#mask14_379_8810)">
<mask id="mask15_379_8810" style="mask-type:luminance" maskUnits="userSpaceOnUse" x="123" y="-3" width="59" height="62">
<path d="M144.017 -2.80713L181.534 14.226L161.483 58.3993L123.962 41.3696L144.017 -2.80713Z" fill="white"/>
</mask>
<g mask="url(#mask15_379_8810)">
<path d="M149.916 37.8427C149.937 37.8496 149.954 37.86 149.968 37.8531C150.068 37.8634 150.148 37.7942 150.158 37.6938C150.276 36.4858 150.518 35.2778 150.882 34.1218C150.909 34.0318 150.857 33.9383 150.767 33.9072C150.677 33.8795 150.584 33.9279 150.553 34.0214C150.179 35.2052 149.94 36.427 149.816 37.6558C149.798 37.7423 149.847 37.8115 149.916 37.8427Z" fill="#DEB855"/>
</g>
</g>
</g>
<mask id="mask16_379_8810" style="mask-type:luminance" maskUnits="userSpaceOnUse" x="136" y="15" width="3" height="5">
<path d="M136.831 15.0981H138.603V19.5286H136.831V15.0981Z" fill="white"/>
</mask>
<g mask="url(#mask16_379_8810)">
<mask id="mask17_379_8810" style="mask-type:luminance" maskUnits="userSpaceOnUse" x="123" y="-3" width="59" height="62">
<path d="M144.02 -2.80713L181.537 14.226L161.486 58.3993L123.965 41.3696L144.02 -2.80713Z" fill="white"/>
</mask>
<g mask="url(#mask17_379_8810)">
<mask id="mask18_379_8810" style="mask-type:luminance" maskUnits="userSpaceOnUse" x="123" y="-3" width="59" height="62">
<path d="M144.019 -2.80713L181.536 14.226L161.485 58.3993L123.964 41.3696L144.019 -2.80713Z" fill="white"/>
</mask>
<g mask="url(#mask18_379_8810)">
<path d="M137.474 16.0845C137.505 15.9911 137.456 15.8907 137.366 15.8595C137.273 15.8284 137.173 15.8769 137.141 15.9668C136.806 16.936 137.159 18.0886 137.972 18.7151C137.983 18.7186 137.993 18.7221 138.01 18.7324C138.09 18.7671 138.169 18.7463 138.225 18.6771C138.284 18.5974 138.273 18.4901 138.194 18.4313C137.491 17.9017 137.19 16.9118 137.474 16.0845Z" fill="#DEB855"/>
</g>
</g>
</g>
<mask id="mask19_379_8810" style="mask-type:luminance" maskUnits="userSpaceOnUse" x="155" y="8" width="6" height="3">
<path d="M155.438 8.00928H160.754V10.6676H155.438V8.00928Z" fill="white"/>
</mask>
<g mask="url(#mask19_379_8810)">
<mask id="mask20_379_8810" style="mask-type:luminance" maskUnits="userSpaceOnUse" x="123" y="-3" width="59" height="62">
<path d="M144.02 -2.80762L181.537 14.2255L161.486 58.3988L123.965 41.3692L144.02 -2.80762Z" fill="white"/>
</mask>
<g mask="url(#mask20_379_8810)">
<mask id="mask21_379_8810" style="mask-type:luminance" maskUnits="userSpaceOnUse" x="123" y="-3" width="59" height="62">
<path d="M144.019 -2.80762L181.536 14.2255L161.485 58.3988L123.964 41.3692L144.019 -2.80762Z" fill="white"/>
</mask>
<g mask="url(#mask21_379_8810)">
<path d="M156.273 10.1861C156.349 10.2242 156.453 10.1999 156.495 10.1134C157.121 9.00925 158.488 8.3689 159.738 8.59735C159.835 8.61812 159.921 8.55235 159.942 8.45543C159.963 8.36198 159.897 8.27198 159.8 8.25122C158.412 7.99508 156.882 8.71503 156.183 9.94726C156.135 10.0303 156.166 10.1376 156.249 10.1896C156.263 10.1826 156.263 10.1826 156.273 10.1861Z" fill="#DEB855"/>
</g>
</g>
</g>
<mask id="mask22_379_8810" style="mask-type:luminance" maskUnits="userSpaceOnUse" x="154" y="9" width="3" height="4">
<path d="M154.554 9.78125H156.326V12.4395H154.554V9.78125Z" fill="white"/>
</mask>
<g mask="url(#mask22_379_8810)">
<mask id="mask23_379_8810" style="mask-type:luminance" maskUnits="userSpaceOnUse" x="123" y="-3" width="59" height="62">
<path d="M144.021 -2.80762L181.538 14.2255L161.486 58.3988L123.966 41.3692L144.021 -2.80762Z" fill="white"/>
</mask>
<g mask="url(#mask23_379_8810)">
<mask id="mask24_379_8810" style="mask-type:luminance" maskUnits="userSpaceOnUse" x="123" y="-3" width="59" height="62">
<path d="M144.02 -2.80762L181.537 14.2255L161.486 58.3988L123.965 41.3692L144.02 -2.80762Z" fill="white"/>
</mask>
<g mask="url(#mask24_379_8810)">
<path d="M155.718 10.6603C155.631 10.6222 155.524 10.6534 155.479 10.7503L155.171 11.4287C155.133 11.5153 155.164 11.6226 155.261 11.6676C155.347 11.7056 155.455 11.6745 155.5 11.5776L155.808 10.8991C155.853 10.8022 155.804 10.6984 155.718 10.6603Z" fill="#DEB855"/>
</g>
</g>
</g>
<mask id="mask25_379_8810" style="mask-type:luminance" maskUnits="userSpaceOnUse" x="169" y="10" width="4" height="5">
<path d="M169.617 10.6675H172.275V14.2119H169.617V10.6675Z" fill="white"/>
</mask>
<g mask="url(#mask25_379_8810)">
<mask id="mask26_379_8810" style="mask-type:luminance" maskUnits="userSpaceOnUse" x="123" y="-3" width="59" height="62">
<path d="M144.02 -2.80762L181.538 14.2255L161.486 58.3988L123.966 41.3692L144.02 -2.80762Z" fill="white"/>
</mask>
<g mask="url(#mask26_379_8810)">
<mask id="mask27_379_8810" style="mask-type:luminance" maskUnits="userSpaceOnUse" x="123" y="-3" width="59" height="62">
<path d="M144.019 -2.80762L181.537 14.2255L161.485 58.3988L123.965 41.3692L144.019 -2.80762Z" fill="white"/>
</mask>
<g mask="url(#mask27_379_8810)">
<path d="M171.051 13.7896C171.048 13.8727 171.089 13.935 171.148 13.9626C171.169 13.973 171.186 13.98 171.21 13.98C171.311 13.9903 171.394 13.9107 171.401 13.8207C171.453 12.8758 170.937 11.9309 170.123 11.467C170.044 11.4082 169.93 11.4497 169.881 11.5328C169.833 11.6159 169.864 11.7232 169.947 11.7716C170.656 12.1628 171.093 12.9796 171.051 13.7896Z" fill="#DEB855"/>
</g>
</g>
</g>
<mask id="mask28_379_8810" style="mask-type:luminance" maskUnits="userSpaceOnUse" x="149" y="14" width="3" height="3">
<path d="M149.234 14.2119H151.892V16.8702H149.234V14.2119Z" fill="white"/>
</mask>
<g mask="url(#mask28_379_8810)">
<mask id="mask29_379_8810" style="mask-type:luminance" maskUnits="userSpaceOnUse" x="123" y="-3" width="59" height="62">
<path d="M144.017 -2.80713L181.534 14.226L161.483 58.3993L123.962 41.3696L144.017 -2.80713Z" fill="white"/>
</mask>
<g mask="url(#mask29_379_8810)">
<mask id="mask30_379_8810" style="mask-type:luminance" maskUnits="userSpaceOnUse" x="123" y="-3" width="59" height="62">
<path d="M144.017 -2.80713L181.534 14.226L161.483 58.3993L123.962 41.3696L144.017 -2.80713Z" fill="white"/>
</mask>
<g mask="url(#mask30_379_8810)">
<path d="M149.512 16.147C149.599 16.185 149.703 16.1366 149.744 16.05C150.049 15.3509 150.835 14.8767 151.613 14.939C151.714 14.9493 151.797 14.8697 151.804 14.7797C151.807 14.6897 151.735 14.5963 151.645 14.5894C150.731 14.5167 149.8 15.074 149.433 15.9116C149.395 15.9981 149.426 16.1054 149.512 16.147Z" fill="#DEB855"/>
</g>
</g>
</g>
<mask id="mask31_379_8810" style="mask-type:luminance" maskUnits="userSpaceOnUse" x="156" y="26" width="4" height="3">
<path d="M156.324 26.6172H159.868V28.3894H156.324V26.6172Z" fill="white"/>
</mask>
<g mask="url(#mask31_379_8810)">
<mask id="mask32_379_8810" style="mask-type:luminance" maskUnits="userSpaceOnUse" x="123" y="-3" width="59" height="62">
<path d="M144.017 -2.80762L181.534 14.2255L161.483 58.3988L123.962 41.3692L144.017 -2.80762Z" fill="white"/>
</mask>
<g mask="url(#mask32_379_8810)">
<mask id="mask33_379_8810" style="mask-type:luminance" maskUnits="userSpaceOnUse" x="123" y="-3" width="59" height="62">
<path d="M144.018 -2.80762L181.535 14.2255L161.483 58.3988L123.963 41.3692L144.018 -2.80762Z" fill="white"/>
</mask>
<g mask="url(#mask33_379_8810)">
<path d="M157.248 27.932C157.868 28.2124 158.653 28.1259 159.183 27.6794C159.259 27.6171 159.262 27.5028 159.204 27.4301C159.145 27.3575 159.034 27.3402 158.954 27.4128C158.463 27.8282 157.667 27.8559 157.155 27.4682C157.075 27.4094 156.964 27.4301 156.905 27.5063C156.846 27.5859 156.864 27.7001 156.94 27.759C157.04 27.8247 157.141 27.8836 157.248 27.932Z" fill="#DEB855"/>
</g>
</g>
</g>
<mask id="mask34_379_8810" style="mask-type:luminance" maskUnits="userSpaceOnUse" x="152" y="25" width="3" height="3">
<path d="M152.78 25.731H154.552V27.5032H152.78V25.731Z" fill="white"/>
</mask>
<g mask="url(#mask34_379_8810)">
<mask id="mask35_379_8810" style="mask-type:luminance" maskUnits="userSpaceOnUse" x="123" y="-3" width="59" height="62">
<path d="M144.018 -2.80762L181.535 14.2255L161.483 58.3988L123.963 41.3692L144.018 -2.80762Z" fill="white"/>
</mask>
<g mask="url(#mask35_379_8810)">
<mask id="mask36_379_8810" style="mask-type:luminance" maskUnits="userSpaceOnUse" x="123" y="-3" width="59" height="62">
<path d="M144.018 -2.80762L181.535 14.2255L161.484 58.3988L123.963 41.3692L144.018 -2.80762Z" fill="white"/>
</mask>
<g mask="url(#mask36_379_8810)">
<path d="M153.021 27.0636C153.042 27.074 153.052 27.0775 153.077 27.0775C153.409 27.1121 153.745 27.0636 154.06 26.939C154.15 26.8975 154.191 26.8006 154.16 26.7175C154.118 26.6275 154.021 26.5825 153.938 26.6171C153.679 26.721 153.395 26.7556 153.118 26.721C153.018 26.7106 152.942 26.7798 152.931 26.8802C152.914 26.9667 152.955 27.0325 153.021 27.0636Z" fill="#DEB855"/>
</g>
</g>
</g>
<mask id="mask37_379_8810" style="mask-type:luminance" maskUnits="userSpaceOnUse" x="172" y="18" width="3" height="4">
<path d="M172.272 18.6426H174.044V21.3009H172.272V18.6426Z" fill="white"/>
</mask>
<g mask="url(#mask37_379_8810)">
<mask id="mask38_379_8810" style="mask-type:luminance" maskUnits="userSpaceOnUse" x="123" y="-3" width="59" height="62">
<path d="M144.018 -2.80713L181.535 14.226L161.483 58.3993L123.963 41.3696L144.018 -2.80713Z" fill="white"/>
</mask>
<g mask="url(#mask38_379_8810)">
<mask id="mask39_379_8810" style="mask-type:luminance" maskUnits="userSpaceOnUse" x="123" y="-3" width="59" height="62">
<path d="M144.018 -2.80713L181.535 14.226L161.484 58.3993L123.963 41.3696L144.018 -2.80713Z" fill="white"/>
</mask>
<g mask="url(#mask39_379_8810)">
<path d="M172.869 20.9585C172.89 20.9655 172.894 20.9793 172.914 20.9897C172.98 21.0208 173.07 21.0035 173.122 20.9447C173.537 20.467 173.648 19.7332 173.371 19.1552C173.333 19.0652 173.229 19.0306 173.143 19.0721C173.053 19.1137 173.018 19.2175 173.06 19.304C173.271 19.7644 173.184 20.3424 172.852 20.7163C172.786 20.7786 172.79 20.8997 172.869 20.9585Z" fill="#DEB855"/>
</g>
</g>
</g>
<mask id="mask40_379_8810" style="mask-type:luminance" maskUnits="userSpaceOnUse" x="74" y="37" width="56" height="97">
<path d="M74.1294 37.6797H129.289V133.378H74.1294V37.6797Z" fill="white"/>
</mask>
<g mask="url(#mask40_379_8810)">
<path d="M74.9387 126.068C74.9491 126.068 74.9595 126.068 74.9699 126.071C74.9629 126.178 75.0114 126.296 75.1221 126.334C77.2336 127.085 79.0231 128.345 80.9441 129.477C81.9479 130.069 83.0001 130.522 84.0247 131.062C84.5854 131.36 85.1219 131.699 85.6722 132.014C85.8695 132.125 87.4964 132.907 87.5275 133.018C87.5829 133.198 87.569 133.233 87.7213 133.364C88.7147 133.399 91.0754 132.232 92.1968 131.907C94.2252 131.315 96.2431 130.678 98.2576 130.048C102.072 128.857 106.091 127.625 109.863 126.774C113.467 125.96 117.094 125.182 120.666 124.237C122.535 123.738 124.366 123.129 126.242 122.665C126.72 122.547 127.194 122.433 127.668 122.333C127.966 122.395 128.392 122.34 128.596 122.312C128.807 122.281 129.143 122.229 129.288 122.046C129.313 122.032 129.333 122.011 129.333 121.976V121.973C129.347 121.945 129.354 121.914 129.358 121.879C129.382 121.879 129.406 121.873 129.43 121.869C129.51 121.866 129.52 121.731 129.437 121.727C129.402 121.717 129.368 121.713 129.333 121.72C129.33 121.658 129.33 121.596 129.326 121.533C129.326 121.53 129.326 121.519 129.326 121.513C129.326 121.499 129.323 121.488 129.323 121.474C129.302 121.159 129.264 120.841 129.219 120.526C129.271 119.882 129.271 119.232 129.278 118.584C129.316 115.926 129.451 113.264 129.264 110.609C129.171 109.301 129.046 107.993 128.977 106.684C128.911 105.455 128.942 104.223 128.859 102.998C128.689 100.485 128.648 97.9894 128.284 95.4938C127.907 92.9013 127.841 90.2361 127.634 87.6228C127.523 86.2313 127.381 84.8641 127.18 83.4831C126.983 82.1366 126.737 80.8005 126.72 79.4368C126.685 76.7819 126.17 74.2102 125.73 71.6004C125.318 69.1532 124.944 66.6991 124.615 64.2381C124.294 61.8291 123.972 59.3819 123.079 57.1078C123.034 56.9936 122.906 57.0075 122.854 57.0836C122.829 57.0317 122.784 56.9936 122.712 56.9901C121.002 56.9348 119.216 56.9798 117.516 56.7686C115.91 56.5713 114.304 56.2598 112.677 56.3636C111.559 56.4363 110.448 56.5817 109.337 56.7029C109.036 56.2356 108.662 55.2283 108.673 55.2803C108.52 54.6434 108.302 54.0169 108.164 53.3765C107.915 52.2205 107.485 51.099 107.319 49.9221C107.177 48.908 107.132 47.7484 106.817 46.7723C106.527 45.8793 106.257 44.9794 105.969 44.0864C105.412 42.3592 105.08 40.3378 103.678 39.0432C102.307 37.7798 100.428 37.6864 98.6591 37.8387C97.773 37.9183 96.8454 37.9114 95.98 38.1225C95.0489 38.3475 94.3255 38.9255 93.4498 39.2786C93.3875 39.3028 93.3321 39.334 93.2802 39.372C92.5326 39.5278 91.8057 39.7355 91.1653 40.227C89.7635 41.3138 89.8847 43.3387 90.1927 44.8963C90.5942 46.9558 91.4907 48.946 91.6361 51.054C91.7607 52.8885 92.1414 54.678 92.1622 56.5229C91.9788 56.5229 91.7918 56.5229 91.6084 56.5263C91.1792 56.5367 90.7742 56.644 90.3623 56.734C88.9847 56.644 87.5967 56.6925 86.2191 56.5782C85.1842 56.4917 84.1216 56.0867 83.0624 56.2183C82.2663 56.3186 82.3148 57.0524 82.3909 57.6997C82.7059 60.3822 81.9513 63.1167 81.5671 65.7577C80.9995 69.6932 80.3799 73.6425 79.6738 77.5642C79.4557 78.7722 79.4938 79.994 79.2619 81.202C79.0646 82.2058 78.8119 83.2096 78.7496 84.2376C78.6077 86.5948 78.2685 88.9381 77.9224 91.271C77.5451 93.7909 76.9705 96.2968 76.742 98.8375C76.5101 101.409 76.1502 103.971 75.8629 106.539C75.586 109.024 75.1048 111.502 74.9041 113.995C74.6514 117.182 74.2257 120.543 74.288 123.648C74.2984 124.212 74.1391 125.888 74.9387 126.068ZM84.9904 57.0698C84.9627 57.0974 84.9315 57.1251 84.9107 57.1563C84.7758 57.1632 84.6408 57.2601 84.6373 57.4297C84.6338 57.5716 84.6304 57.7136 84.6235 57.852C84.2427 57.627 83.9589 57.1909 83.6058 56.9036C83.7927 56.9209 83.9831 56.9555 84.0766 56.9625C84.3846 56.9901 84.6892 57.0317 84.9904 57.0698ZM92.5256 40.6077C92.5879 40.5835 92.6503 40.5627 92.716 40.542C92.6814 40.7877 92.671 41.0266 92.671 41.2239C92.6745 42.2138 92.5291 43.3249 92.6745 44.2975C93.0172 46.5266 93.8548 48.6899 93.9863 50.9536C94.0867 52.6393 94.9382 54.7922 94.2805 56.464C94.2182 56.4848 94.1628 56.5229 94.1213 56.5782C93.7994 56.5609 93.474 56.5506 93.1487 56.5402C93.1487 56.5056 93.1487 56.4675 93.1487 56.4329C93.1487 56.4294 93.1487 56.4225 93.1487 56.419C93.1487 56.4086 93.1487 56.3983 93.1487 56.3879C93.1487 56.381 93.1487 56.3775 93.1487 56.3706C93.1418 54.498 92.8752 52.5908 92.6226 50.739C92.3664 48.8457 91.7226 47.0839 91.3107 45.2286C90.9507 43.6018 90.5838 41.3277 92.5256 40.6077ZM95.2012 52.8123C95.0213 50.8532 94.682 48.8007 94.1871 46.9004C93.9206 45.8828 93.6056 44.8098 93.6056 43.7541C93.6056 43.1449 93.609 42.5392 93.609 41.9334C93.609 41.5146 93.5433 41.0266 93.6436 40.6216C93.6783 40.4866 93.7509 40.3654 93.8444 40.2547C94.0348 40.2166 94.2286 40.182 94.4224 40.1474C95.1182 40.0297 95.9385 39.604 96.6446 39.7424C97.5999 39.9328 98.4445 40.0089 99.2648 40.6043C100.078 41.1927 100.618 41.8815 101.137 42.7399C102.131 44.3771 102.605 46.3501 103.141 48.1742C103.439 49.1918 103.647 50.2544 103.986 51.2582C104.211 51.9332 104.571 52.5735 104.779 53.2519C105.094 54.2592 105.564 55.1833 105.976 56.149C106.08 56.3948 106.201 56.6786 106.392 56.8828C104.796 56.9071 103.197 56.8759 101.605 56.8759C99.8775 56.8759 98.1641 56.779 96.4404 56.6994C96.0423 56.6786 95.6443 56.6579 95.2393 56.6371C95.6478 55.481 95.2947 53.8611 95.2012 52.8123ZM108.482 56.7859C107.984 56.8275 107.485 56.8586 106.984 56.8759C106.97 56.8586 106.956 56.8448 106.935 56.8309C106.565 56.6198 106.523 55.7198 106.416 55.3633C106.291 54.9376 106.194 54.498 106.046 54.0792C105.827 53.4734 105.658 52.8712 105.412 52.2793C105.177 51.7186 104.914 51.1267 104.799 50.5244C104.391 48.3888 103.681 46.1562 102.927 44.121C102.283 42.3972 101.265 40.7254 99.7113 39.7043C99.1091 39.3097 98.4168 39.019 97.6934 38.8667C97.9564 38.8528 98.216 38.8355 98.4756 38.8148C100.4 38.6486 102.529 38.6694 103.636 40.5385C104.765 42.4388 105.128 44.8271 105.821 46.9039C106.163 47.9284 106.181 49.0949 106.374 50.154C106.575 51.2617 106.952 52.3174 107.202 53.4146C107.34 54.0446 107.562 54.6399 107.728 55.2629C107.825 55.616 107.904 56.0071 108.119 56.3152C108.219 56.4571 108.34 56.6232 108.482 56.7859ZM87.441 112.233C87.3233 108.626 87.2333 105.016 87.0983 101.43C86.9979 98.7717 87.0152 96.1065 86.8975 93.4482C86.7799 90.8037 86.631 88.1628 86.5168 85.5183C86.2122 78.3915 86.2468 71.2542 85.6376 64.1412C85.4715 62.1683 85.2603 60.2196 85.1842 58.2466C85.2153 58.2397 85.243 58.2328 85.2742 58.2224C85.3815 58.1843 85.3503 58.0666 85.2742 58.0216C85.3538 58.0147 85.4299 57.987 85.4888 57.9351C85.5407 57.9351 85.6169 57.9282 85.7276 57.9074C85.9284 57.9074 86.1291 57.9074 86.3299 57.9074C86.7176 57.9074 87.1052 57.9074 87.4894 57.9109C88.1402 57.9109 88.7943 57.9247 89.4451 57.9039C90.1096 57.8762 90.7188 57.627 91.3696 57.582C92.1276 57.5301 92.8683 57.6513 93.6229 57.6651C96.8038 57.7274 99.9744 57.9074 103.159 57.9039C104.858 57.9039 106.565 57.9385 108.261 57.7862C109.805 57.6478 111.362 57.3155 112.909 57.274C114.536 57.2324 116.108 57.5336 117.721 57.6236C119.417 57.7136 121.043 57.3778 122.719 57.3086C122.781 57.3051 122.823 57.274 122.847 57.2359C123.03 58.0978 123.196 58.9666 123.345 59.8388C123.792 62.4521 123.999 65.0965 124.408 67.7168C124.792 70.1847 125.173 72.6526 125.581 75.1171C125.799 76.4531 125.948 77.7684 125.962 79.1253C125.972 80.3298 126.114 81.4686 126.28 82.6593C126.647 85.2691 126.855 87.872 127.059 90.4957C127.163 91.856 127.267 93.2197 127.371 94.58C127.464 95.7915 127.724 96.9856 127.814 98.1971C128.004 100.738 128.049 103.296 128.153 105.843C128.257 108.387 128.596 110.921 128.638 113.472C128.662 114.867 128.683 116.258 128.71 117.653C128.731 118.698 128.707 119.758 128.814 120.799C128.811 121.073 128.883 121.353 128.824 121.623C128.814 121.634 128.804 121.637 128.793 121.644C128.624 121.658 128.458 121.672 128.288 121.696C128.257 121.703 128.233 121.72 128.219 121.741C128.125 121.741 128.021 121.741 127.907 121.769C127.495 121.866 127.083 121.959 126.668 122.049C125.83 122.236 124.989 122.371 124.166 122.617C122.376 123.146 120.559 123.565 118.735 123.97C115.308 124.728 111.885 125.497 108.455 126.251C104.993 127.009 101.532 128.092 98.1641 129.204C94.8101 130.315 91.3211 131.045 88.0848 132.495C88.199 129.778 88.2405 127.085 88.0398 124.365C87.7386 120.346 87.5725 116.289 87.441 112.233ZM75.894 113.593C76.3267 109.81 76.8078 106.023 77.2959 102.247C77.462 100.952 77.5901 99.6543 77.7216 98.3529C77.8393 97.221 78.1127 96.1307 78.2789 95.0092C78.6181 92.704 78.9158 90.3918 79.2757 88.0935C79.4488 86.9824 79.6046 85.8229 79.6288 84.6945C79.6495 83.5419 79.9438 82.4239 80.1376 81.292C80.3384 80.1187 80.283 78.9245 80.5045 77.7546C80.7329 76.5639 80.9891 75.3801 81.1968 74.186C81.3802 73.1337 81.754 72.0053 81.7575 70.9427C81.7575 70.0324 81.8683 69.1359 82.0586 68.2498C82.3113 67.1041 82.2594 65.9238 82.5086 64.7643C82.6332 64.1966 82.6609 63.7328 82.6955 63.1513C82.7301 62.594 82.872 62.0644 82.9309 61.5141C83.0555 60.3961 83.2009 59.3542 83.1559 58.2189C83.142 57.8866 83.052 57.5509 83.0486 57.2151C83.5608 57.5613 84.0212 58.1185 84.5992 58.257C84.5404 59.2054 84.4469 60.1572 84.5646 61.0987C84.7135 62.3102 84.8623 63.5251 84.935 64.74C85.0111 66.0899 85.0007 67.4399 84.9904 68.7898C84.9557 74.8609 85.3192 80.9736 85.6134 87.0482C85.7415 89.6996 85.8903 92.3509 85.9872 95.0023C86.0876 97.6606 86.0357 100.329 86.2226 102.984C86.3991 105.435 86.1637 107.906 86.3507 110.346C86.5376 112.728 86.8249 115.078 86.8318 117.466C86.8422 120.097 87.0014 122.689 87.1987 125.31C87.3821 127.784 87.4375 130.263 87.524 132.741C87.5102 132.682 87.4894 132.623 87.4617 132.565L87.4029 132.371C87.396 132.315 87.3441 132.295 87.2956 132.305C86.8318 131.713 85.8661 131.256 85.3884 130.934C84.2012 130.131 82.872 129.577 81.6502 128.833C80.6118 128.203 79.5976 127.535 78.5592 126.909C77.6178 126.348 76.704 125.746 75.5617 125.784C75.5514 125.116 75.5444 124.448 75.534 123.783C75.4925 120.388 75.4994 117.03 75.894 113.593Z" fill="#DEB855"/>
</g>
<path d="M76.927 121.457C76.9304 121.43 76.9339 121.399 76.9373 121.371C76.972 119.467 77.1727 117.563 77.3735 115.677C77.5188 114.317 77.8546 113.019 77.8511 111.641C77.8511 111.271 77.8823 110.9 77.9342 110.533C77.9654 109.699 78.1419 108.91 78.1765 108.076C78.1834 107.948 78.1903 107.816 78.1973 107.685C78.1903 107.449 78.18 107.207 78.173 106.961C78.1626 106.456 78.3323 105.954 78.3357 105.438C78.3357 104.75 78.4949 104.106 78.4984 103.42C78.5019 102.728 78.7165 102.043 78.7407 101.351C78.758 100.728 78.7788 100.16 78.8964 99.5645C78.8964 99.5195 78.8964 99.478 78.8999 99.433C78.9276 98.9692 79.0626 98.5227 79.1249 98.0623C79.1422 97.7577 79.1457 97.4531 79.1457 97.1416C79.1491 96.5913 79.2876 96.0686 79.3568 95.5252C79.3568 95.5148 79.3568 95.501 79.3603 95.4906C79.3741 95.366 79.388 95.2414 79.3914 95.1133C79.5195 91.4235 80.2325 87.353 80.6825 83.6009C80.994 81.0326 81.1117 78.492 81.6482 75.948C81.9286 74.5981 82.3335 73.2689 82.4997 71.8982C82.6312 70.8218 82.8423 69.7903 83.0535 68.745C83.1158 67.9627 83.2023 67.1839 83.4031 66.419C83.4065 66.3947 83.4065 66.3705 83.41 66.3497C83.4515 66.0071 83.6419 65.6956 83.6973 65.3529C83.7111 65.2594 83.8565 65.2837 83.8565 65.3737C83.8565 65.6263 83.815 65.8479 83.7561 66.0867C83.7665 66.104 83.7734 66.1213 83.7769 66.1455C83.9015 68.115 83.1643 70.2437 82.8735 72.1855C82.5239 74.5011 82.2747 76.8341 81.804 79.1324C81.5651 80.3092 81.5513 81.4999 81.4059 82.6872C81.2986 83.6009 81.1636 84.5217 81.0217 85.4389C80.6029 90.8039 79.4814 96.2451 79.3118 101.603C79.291 102.302 79.0834 102.981 79.0834 103.684C79.0799 104.345 78.9795 105.009 78.8964 105.677C78.8584 106.307 78.8238 106.944 78.7857 107.574C78.848 108.754 78.5884 109.872 78.4811 111.025C78.488 111.236 78.4984 111.444 78.4984 111.651C78.4984 112.88 78.2769 114.151 78.1142 115.372C77.9031 116.947 77.6711 118.571 77.5085 120.194C77.46 121.482 77.4392 122.766 77.3354 124.05C77.3319 124.098 77.3112 124.136 77.2869 124.161C77.2523 124.496 76.7158 124.528 76.7158 124.171C76.7158 123.233 76.7712 122.382 76.927 121.457Z" fill="#DEB855"/>
<path d="M109.005 59.1916C109.624 59.0982 110.258 59.2885 110.884 59.2539C111.033 59.2435 111.054 59.4477 110.943 59.5135C110.403 59.832 109.631 60.0016 109.012 59.915C108.648 59.8666 108.638 59.2435 109.005 59.1916Z" fill="#DEB855"/>
<path d="M93.6527 59.4203C93.8777 59.2265 94.0889 59.1849 94.3865 59.1953C94.8192 59.2092 95.2276 59.1884 95.6534 59.0984C96.0307 59.0188 96.1587 59.5899 95.7849 59.6834C95.3799 59.7837 94.968 59.8426 94.5527 59.8841C94.2031 59.9222 93.9262 59.9222 93.6527 59.6868C93.5801 59.6211 93.5766 59.4861 93.6527 59.4203Z" fill="#DEB855"/>
<path d="M78.6925 125.853C79.4367 126.151 80.1428 126.549 80.8835 126.864C81.2435 127.016 81.5758 127.168 81.8873 127.41C82.2404 127.684 82.545 127.999 82.9984 128.103C83.1819 128.144 83.1507 128.4 82.9603 128.394C82.0673 128.355 81.2816 127.587 80.4647 127.289C79.7102 127.016 78.9867 126.749 78.4987 126.078C78.4018 125.943 78.5575 125.798 78.6925 125.853Z" fill="#DEB855"/>
<path d="M119.791 122.378C121.598 121.959 123.405 121.52 125.215 121.132C125.596 121.049 125.956 120.942 126.337 120.862C126.579 120.81 127.725 120.769 127.846 120.495C127.915 120.339 128.189 120.381 128.151 120.568C127.995 121.343 126.524 121.125 126.015 121.461C125.755 121.627 125.316 121.63 125.018 121.7C124.385 121.845 123.758 122.018 123.128 122.17C122.034 122.433 120.93 122.679 119.798 122.638C119.639 122.631 119.656 122.409 119.791 122.378Z" fill="#DEB855"/>
<path d="M110.356 60.5484C110.695 60.6349 110.996 60.8945 111.29 61.078C111.581 61.2649 111.865 61.4587 112.117 61.701C112.304 61.8775 112.038 62.1787 111.851 61.9987C111.598 61.7564 111.311 61.5626 111.013 61.3756C110.729 61.1957 110.387 61.0261 110.221 60.7249C110.169 60.6315 110.255 60.5242 110.356 60.5484Z" fill="#DEB855"/>
<path d="M111.305 59.8805C111.606 60.0398 111.814 60.3098 112.091 60.5036C112.284 60.6351 112.451 60.7632 112.554 60.9812C112.606 61.0851 112.44 61.182 112.378 61.0851C112.236 60.8601 111.973 60.7597 111.769 60.6005C111.547 60.4274 111.333 60.2336 111.201 59.9775C111.17 59.9186 111.25 59.8529 111.305 59.8805Z" fill="#DEB855"/>
<path d="M109.282 61.0504C109.601 61.1785 109.85 61.4208 110.155 61.58C110.345 61.6769 110.21 61.9815 110.016 61.8846C109.701 61.7219 109.321 61.5177 109.175 61.182C109.148 61.1162 109.203 61.0193 109.282 61.0504Z" fill="#DEB855"/>
<path d="M95.6216 60.0432C95.6458 59.9739 95.722 59.929 95.7912 59.967C95.8881 60.0224 95.9331 60.1159 96.0093 60.1955C96.0924 60.2785 96.1824 60.3512 96.2758 60.417C96.3589 60.4793 96.4454 60.5381 96.5181 60.6178C96.5458 60.6489 96.5804 60.6801 96.5977 60.7216C96.66 60.867 96.6704 60.9431 96.7742 61.0746C96.8469 61.175 96.7085 61.2962 96.615 61.2235C96.4835 61.1196 96.3796 61.0331 96.3173 60.8912C96.0681 60.7112 95.4866 60.4032 95.6216 60.0432Z" fill="#DEB855"/>
<path d="M95.0594 60.5902C95.3017 60.7045 95.4921 60.9087 95.679 61.0956C95.7552 61.1717 95.8244 61.2514 95.8901 61.3344C95.9594 61.421 96.0113 61.6113 96.1221 61.6425C96.2224 61.6736 96.1947 61.8363 96.0874 61.8259C95.8659 61.8086 95.7205 61.5559 95.5648 61.421C95.3329 61.2202 95.0802 60.971 94.9487 60.6906C94.9175 60.6249 95.0006 60.5626 95.0594 60.5902Z" fill="#DEB855"/>
<path d="M93.7525 60.8078C94.199 61.0363 94.5556 61.507 94.874 61.8843C94.9778 62.0089 94.8152 62.1508 94.6975 62.0539C94.3237 61.7355 93.8529 61.3859 93.6279 60.9428C93.5899 60.8701 93.6764 60.7663 93.7525 60.8078Z" fill="#DEB855"/>
<path d="M81.7824 124.053C82.0385 124.216 82.2047 124.521 82.2358 124.825C82.2635 125.116 82.4747 125.459 82.582 125.729C82.6927 126.009 82.7689 126.296 82.8312 126.59C82.8623 126.743 82.5993 126.798 82.5612 126.646C82.4435 126.137 82.2393 125.666 82.0385 125.185C81.8932 124.846 81.8378 124.482 81.6855 124.136C81.6578 124.078 81.7236 124.019 81.7824 124.053Z" fill="#DEB855"/>
<path d="M80.8754 123.69C81.1731 124.015 81.3635 124.465 81.5296 124.87C81.72 125.327 81.9796 125.746 81.9865 126.251C81.99 126.393 81.7615 126.407 81.7408 126.268C81.6716 125.836 81.3773 125.431 81.1973 125.033C81.0139 124.624 80.7785 124.209 80.692 123.766C80.6712 123.659 80.8131 123.62 80.8754 123.69Z" fill="#DEB855"/>
<path d="M79.2094 122.049C79.5867 122.752 79.8186 123.493 80.092 124.237C80.2685 124.714 80.5212 125.119 80.5697 125.635C80.587 125.808 80.3412 125.832 80.3066 125.666C80.1751 125.05 79.7909 124.514 79.5797 123.922C79.3686 123.326 79.1505 122.741 79.0467 122.115C79.0329 122.021 79.1609 121.956 79.2094 122.049Z" fill="#DEB855"/>
<path d="M78.853 122.859C79.1576 123.237 79.2891 123.704 79.4103 124.168C79.4622 124.375 79.1472 124.496 79.0988 124.289C78.9845 123.832 78.7872 123.396 78.6834 122.939C78.6626 122.845 78.7907 122.787 78.853 122.859Z" fill="#DEB855"/>
<path d="M83.7105 125.607C83.9286 125.988 84.119 126.393 84.119 126.84C84.119 127.002 83.8871 126.985 83.8767 126.833C83.849 126.428 83.6171 126.054 83.5582 125.656C83.5478 125.573 83.6725 125.535 83.7105 125.607Z" fill="#DEB855"/>
<path d="M125.505 120.277C125.568 119.983 125.838 119.727 126.007 119.477C126.212 119.183 126.426 118.896 126.682 118.64C126.848 118.477 127.087 118.733 126.932 118.903C126.686 119.169 126.506 119.474 126.308 119.779C126.142 120.031 125.962 120.353 125.647 120.433C125.554 120.457 125.488 120.367 125.505 120.277Z" fill="#DEB855"/>
<path d="M124.681 120.173C124.715 120.031 124.816 119.92 124.875 119.785C124.958 119.605 125.082 119.439 125.203 119.283C125.415 119.003 125.574 118.671 125.889 118.494C126.093 118.38 126.263 118.695 126.065 118.813C125.705 119.024 125.556 119.543 125.297 119.855C125.145 120.035 125.082 120.381 124.767 120.305C124.712 120.291 124.667 120.235 124.681 120.173Z" fill="#DEB855"/>
<path d="M123.707 120.17C123.794 119.883 123.97 119.64 124.14 119.398C124.34 119.114 124.527 118.827 124.707 118.533C124.867 118.266 125.278 118.515 125.116 118.778C124.801 119.294 124.444 119.973 123.925 120.308C123.832 120.371 123.672 120.294 123.707 120.17Z" fill="#DEB855"/>
<path d="M121.962 120.495C122.257 119.928 122.675 119.412 122.994 118.851C123.333 118.252 123.679 117.564 124.136 117.051C124.198 116.985 124.302 117.051 124.285 117.134C124.275 117.169 124.268 117.21 124.257 117.249C124.254 117.266 124.243 117.276 124.23 117.283C123.991 117.903 123.634 118.47 123.302 119.048C122.973 119.62 122.714 120.305 122.125 120.651C122.025 120.71 121.911 120.599 121.962 120.495Z" fill="#DEB855"/>
<path d="M121.374 119.623C121.623 119.364 121.872 119.017 122.004 118.685C122.101 118.439 122.443 118.626 122.364 118.862C122.246 119.197 122.028 119.474 121.831 119.765C121.689 119.973 121.502 120.222 121.318 120.398C121.26 120.457 121.177 120.437 121.132 120.374C120.952 120.115 121.197 119.807 121.374 119.623Z" fill="#DEB855"/>
<path d="M120.797 119.024C120.811 118.771 121.206 118.733 121.195 118.996C121.188 119.221 121.105 119.405 120.97 119.581C120.825 119.772 120.669 119.976 120.454 120.083C120.358 120.128 120.261 120.035 120.271 119.941C120.309 119.567 120.773 119.391 120.797 119.024Z" fill="#DEB855"/>
<path d="M126.846 120.121C126.881 120.079 126.922 120.055 126.967 120.021C126.981 120.01 127.002 119.986 127.012 119.965C127.057 119.886 127.092 119.799 127.154 119.733C127.299 119.578 127.559 119.785 127.41 119.944C127.351 120.01 127.313 120.121 127.254 120.208C127.168 120.329 127.005 120.381 126.877 120.301C126.822 120.263 126.801 120.173 126.846 120.121Z" fill="#DEB855"/>
<path d="M17.4078 145.262C17.5254 145.4 17.5185 145.525 17.3801 145.635L6.81613 154.829C6.6846 154.939 6.55999 154.925 6.44231 154.787L5.98542 154.261C5.86427 154.122 5.86773 153.998 5.99926 153.887L10.9005 149.637L6.13771 144.154L1.23649 148.404C1.10496 148.515 0.980355 148.501 0.86267 148.363L0.391931 147.837C0.281169 147.698 0.288092 147.574 0.419622 147.463L10.9836 138.27C11.122 138.159 11.2466 138.173 11.3574 138.311L11.8281 138.837C11.9458 138.976 11.9389 139.1 11.8004 139.211L6.98228 143.406L11.745 148.889L16.5632 144.694C16.7016 144.583 16.8297 144.597 16.9509 144.735L17.4078 145.262Z" fill="#DEB855"/>
<path d="M17.2185 165.05C17.0697 164.929 17.0524 164.801 17.1631 164.663L25.941 153.767C26.0518 153.628 26.1798 153.621 26.3287 153.739L32.476 158.682C32.6214 158.813 32.6421 158.945 32.5314 159.083L32.1437 159.568C32.0225 159.706 31.8876 159.713 31.7422 159.582L26.3425 155.234L22.8951 159.526L27.8378 163.514C27.9936 163.635 28.0178 163.759 27.907 163.887L27.5471 164.344C27.4259 164.49 27.2875 164.504 27.1317 164.386L22.189 160.398L18.6999 164.746L24.1273 169.121C24.283 169.249 24.3004 169.384 24.1827 169.522L23.795 170.007C23.6842 170.146 23.5492 170.149 23.3935 170.021L17.2185 165.05Z" fill="#DEB855"/>
<path d="M43.8372 182.303C43.7714 182.525 43.6468 182.584 43.4633 182.483L42.8403 182.137C42.6811 182.054 42.6361 181.902 42.7018 181.68L43.2972 178.87L37.8006 175.852L35.7515 177.859C35.5923 178.025 35.4365 178.067 35.2808 177.984L34.6577 177.651C34.4708 177.541 34.457 177.402 34.6162 177.236L44.9448 167.115C45.1109 166.949 45.2771 166.914 45.4432 167.004L46.6754 167.683C46.8312 167.766 46.8866 167.925 46.8416 168.154L43.8372 182.303ZM38.6175 175.062L43.5326 177.762L45.4847 168.597L45.3048 168.486L38.6175 175.062Z" fill="#DEB855"/>
<path d="M56.5165 188.094C56.3296 188.028 56.2673 187.914 56.3227 187.747L60.8362 174.497C60.8916 174.331 61.0024 174.276 61.1685 174.331L61.8469 174.553C62.02 174.619 62.0823 174.733 62.0269 174.899L57.8041 187.29L63.9099 189.367C64.0933 189.43 64.1591 189.551 64.1037 189.727L63.896 190.323C63.8407 190.489 63.7195 190.537 63.5361 190.475L56.5165 188.094Z" fill="#DEB855"/>
<path d="M87.5481 180.836C87.742 180.864 87.825 180.968 87.7973 181.141L87.6866 181.764C87.6589 181.94 87.5481 182.013 87.3543 181.985L83.8653 181.418L81.7885 194.349C81.7608 194.522 81.6639 194.598 81.4978 194.571L80.7916 194.46C80.6151 194.432 80.5424 194.328 80.5701 194.155L82.6469 181.224L79.1441 180.656C78.9502 180.628 78.8671 180.528 78.8948 180.352L79.0056 179.729C79.0333 179.555 79.1441 179.479 79.3379 179.507L87.5481 180.836Z" fill="#DEB855"/>
<path d="M108.609 181.534C108.782 181.534 108.875 181.624 108.886 181.797L109.149 195.795C109.149 195.971 109.059 196.058 108.886 196.058L108.18 196.072C108.003 196.082 107.916 195.999 107.916 195.822L107.792 189.343L100.523 189.468L100.648 195.947C100.648 196.124 100.554 196.217 100.371 196.224L99.6647 196.238C99.4882 196.238 99.4016 196.151 99.4016 195.975L99.1386 181.977C99.1282 181.804 99.2112 181.714 99.3878 181.714L100.094 181.7C100.277 181.693 100.374 181.776 100.385 181.95L100.495 188.346L107.764 188.221L107.653 181.825C107.643 181.652 107.726 181.558 107.903 181.548L108.609 181.534Z" fill="#DEB855"/>
<path d="M129.461 178.412C129.655 178.378 129.724 178.464 129.669 178.675L127.163 188.007L128.215 193.199C128.249 193.375 128.18 193.483 128.007 193.517L127.315 193.656C127.138 193.694 127.031 193.625 126.996 193.448L125.944 188.256L120.032 180.627C119.887 180.454 119.908 180.347 120.102 180.309L120.932 180.129C121.043 180.112 121.126 180.122 121.181 180.157C121.23 180.184 121.289 180.247 121.361 180.337L126.193 186.622L126.318 186.595L128.326 178.924C128.36 178.814 128.395 178.738 128.423 178.689C128.457 178.634 128.526 178.599 128.63 178.578L129.461 178.412Z" fill="#DEB855"/>
<path d="M162.514 172.5C163.224 172.372 163.85 172.455 164.397 172.75C164.941 173.047 165.429 173.591 165.865 174.383L166.142 174.896C166.813 176.152 166.976 177.194 166.626 178.025C166.273 178.855 165.532 179.575 164.397 180.185L159.787 182.663C159.627 182.746 159.51 182.711 159.427 182.552L152.795 170.23C152.712 170.074 152.75 169.953 152.906 169.87L157.516 167.392C158.603 166.81 159.527 166.637 160.285 166.865C161.04 167.087 161.732 167.779 162.362 168.942C162.722 169.617 162.923 170.237 162.971 170.797C163.026 171.362 162.853 171.898 162.459 172.403L162.514 172.5ZM161.227 169.468C160.801 168.686 160.347 168.219 159.87 168.07C159.399 167.914 158.783 168.039 158.028 168.444L154.332 170.437L156.824 175.076L160.52 173.082C161.258 172.687 161.69 172.23 161.822 171.711C161.95 171.195 161.801 170.545 161.379 169.759L161.227 169.468ZM165.062 175.477L164.785 174.965C164.286 174.051 163.753 173.549 163.193 173.456C162.628 173.355 161.919 173.535 161.06 173.996L157.322 176.017L160.105 181.181L163.843 179.16C164.702 178.7 165.235 178.191 165.449 177.637C165.661 177.083 165.532 176.363 165.062 175.477Z" fill="#DEB855"/>
<path d="M183.144 167.841C180.88 169.662 178.883 169.489 177.149 167.329L173.147 162.358C171.396 160.191 171.649 158.198 173.909 156.377L174.961 155.533C177.225 153.705 179.229 153.878 180.984 156.045L184.985 161.015C186.719 163.175 186.456 165.169 184.196 166.996L183.144 167.841ZM182.438 166.941L183.462 166.11C184.293 165.446 184.753 164.767 184.847 164.075C184.937 163.376 184.656 162.614 184.002 161.791L180.015 156.848C179.357 156.028 178.679 155.588 177.979 155.533C177.28 155.47 176.512 155.768 175.681 156.432L174.657 157.263C173.819 157.938 173.355 158.627 173.272 159.326C173.182 160.018 173.462 160.776 174.117 161.597L178.104 166.54C178.758 167.363 179.433 167.806 180.125 167.869C180.825 167.924 181.596 167.616 182.438 166.941Z" fill="#DEB855"/>
<path d="M197.648 154.338C197.527 154.486 197.43 154.455 197.358 154.241L194.672 146.667L186.808 145.131C186.586 145.086 186.541 144.989 186.669 144.84L187.223 144.203C187.289 144.12 187.358 144.075 187.431 144.064C187.496 144.047 187.583 144.058 187.694 144.092L194.215 145.421L194.298 145.338L192.013 139.08C191.968 138.962 191.951 138.869 191.958 138.803C191.958 138.741 191.986 138.672 192.041 138.596L192.595 137.959C192.726 137.813 192.827 137.844 192.899 138.056L195.585 145.601L203.477 147.124C203.699 147.173 203.744 147.27 203.616 147.415L203.062 148.052C202.996 148.135 202.93 148.176 202.868 148.176C202.802 148.176 202.705 148.173 202.577 148.163L196.056 146.847L195.973 146.93L198.244 153.202C198.278 153.313 198.303 153.403 198.313 153.465C198.32 153.531 198.289 153.604 198.216 153.687L197.648 154.338Z" fill="#DEB855"/>
<path d="M94.2003 108.249C94.0619 108.26 93.9511 108.222 93.868 108.139C93.7296 108.021 93.6534 107.896 93.6465 107.765L91.4036 74.8962C91.3828 74.5916 91.549 74.4255 91.902 74.3978L104.321 73.5532C104.754 73.5255 105.346 73.5221 106.093 73.5394C106.841 73.5498 107.679 73.6432 108.613 73.8163C109.544 73.9824 110.538 74.2732 111.59 74.6885C112.649 75.097 113.708 75.6819 114.761 76.4469C116.827 77.8868 118.378 79.7421 119.413 82.0127C120.444 84.2833 121.05 86.7062 121.226 89.2815C121.327 90.8425 121.302 92.3274 121.157 93.7396C121.019 95.1518 120.721 96.4637 120.271 97.6717C119.835 98.9731 119.139 100.198 118.18 101.341C117.228 102.476 116.117 103.483 114.844 104.359C113.57 105.228 112.192 105.934 110.718 106.477C109.25 107.014 107.796 107.329 106.356 107.419L94.2003 108.249ZM106.287 106.367C107.118 106.311 108.059 106.152 109.112 105.882C110.164 105.615 111.23 105.204 112.31 104.65C113.39 104.089 114.432 103.369 115.439 102.49C116.453 101.614 117.336 100.562 118.083 99.3331C118.838 98.0974 119.419 96.6575 119.828 95.0134C120.243 93.3727 120.382 91.4828 120.243 89.3507C120.029 86.2147 119.319 83.6672 118.111 81.7081C116.9 79.7524 115.494 78.2295 113.888 77.1392C112.282 76.0419 110.61 75.3116 108.876 74.9516C107.149 74.5847 105.654 74.4393 104.39 74.5224L92.4835 75.3254L94.6434 107.156L106.287 106.367Z" fill="#DEB855"/>
<path d="M99.2775 101.187C99.2013 101.197 99.139 101.173 99.0836 101.117C99.0006 101.055 98.959 100.979 98.959 100.896L97.5053 81.3048C97.4845 81.1213 97.578 81.021 97.7822 81.0002L105.176 80.4464C105.442 80.4291 105.799 80.4256 106.242 80.4325C106.692 80.4429 107.197 80.4983 107.751 80.5987C108.305 80.7025 108.893 80.8721 109.523 81.111C110.16 81.3533 110.797 81.6925 111.434 82.1355C112.669 82.987 113.593 84.0877 114.203 85.4445C114.819 86.7944 115.189 88.2343 115.31 89.7642C115.373 90.6988 115.366 91.5849 115.283 92.4225C115.206 93.2636 115.047 94.0528 114.798 94.7901C114.538 95.5654 114.127 96.2958 113.566 96.9776C113.002 97.6526 112.337 98.2514 111.572 98.7775C110.814 99.3036 109.997 99.7328 109.121 100.065C108.242 100.39 107.377 100.584 106.519 100.647L99.2775 101.187ZM106.477 100.024C106.975 99.989 107.536 99.8851 108.166 99.719C108.793 99.5528 109.426 99.3036 110.063 98.9713C110.707 98.6321 111.33 98.196 111.932 97.6699C112.531 97.1438 113.054 96.5138 113.497 95.7731C113.94 95.0358 114.275 94.1774 114.507 93.1979C114.746 92.2114 114.819 91.0795 114.729 89.8058C114.59 87.9332 114.154 86.4206 113.427 85.2645C112.707 84.1015 111.863 83.1981 110.894 82.5509C109.931 81.8967 108.935 81.4675 107.903 81.2633C106.868 81.0521 105.972 80.9725 105.217 81.0279L98.1422 81.554L99.5544 100.536L106.477 100.024Z" fill="#DEB855"/>
</svg>
