<svg width="16" height="16" viewBox="0 0 16 16" fill="none" xmlns="http://www.w3.org/2000/svg">
  <path d="M8.84537 2.44609C9.0454 2.24613 9.31666 2.13379 9.5995 2.13379C9.88235 2.13379 10.1536 2.24613 10.3536 2.44609L15.1536 7.2461C15.3536 7.44612 15.4659 7.71739 15.4659 8.00023C15.4659 8.28307 15.3536 8.55433 15.1536 8.75436L10.3536 13.5544C10.1525 13.7487 9.88302 13.8562 9.60334 13.8537C9.32367 13.8513 9.05613 13.7391 8.85836 13.5414C8.6606 13.3436 8.54842 13.0761 8.54599 12.7964C8.54356 12.5167 8.65107 12.2473 8.84537 12.0461L11.7328 9.0669H1.5995C1.31661 9.0669 1.0453 8.95451 0.845256 8.75448C0.645218 8.55444 0.532837 8.28313 0.532837 8.00023C0.532837 7.71733 0.645218 7.44602 0.845256 7.24598C1.0453 7.04594 1.31661 6.93356 1.5995 6.93356H11.7328L8.84537 3.95436C8.6454 3.75433 8.53306 3.48307 8.53306 3.20023C8.53306 2.91739 8.6454 2.64612 8.84537 2.44609Z" fill="currentColor"/>
</svg>
