<svg width="46" height="44" viewBox="0 0 46 44" fill="none" xmlns="http://www.w3.org/2000/svg">
<mask id="mask0_268_1922" style="mask-type:luminance" maskUnits="userSpaceOnUse" x="3" y="0" width="39" height="39">
<path d="M3.94946 0H41.6108V38.1451H3.94946V0Z" fill="white"/>
</mask>
<g mask="url(#mask0_268_1922)">
<path d="M17.6462 35.9324C17.5246 35.9324 17.414 35.8834 17.3345 35.8031H17.3337V35.8023C17.2543 35.7229 17.2044 35.613 17.2044 35.4915C17.2044 35.3699 17.2543 35.2593 17.3337 35.1798C17.3361 35.1783 17.3376 35.1759 17.34 35.1744C17.4194 35.098 17.5277 35.0505 17.6462 35.0505C17.7677 35.0505 17.8775 35.1004 17.9578 35.1798C18.0373 35.2593 18.0871 35.3699 18.0871 35.4915C18.0871 35.613 18.0373 35.7229 17.957 35.8031H17.9578C17.8775 35.8834 17.7677 35.9324 17.6462 35.9324ZM6.91082 25.8134C6.03433 23.7449 5.54894 21.4699 5.54894 19.0819C5.54894 18.637 5.56608 18.1961 5.59958 17.7598L5.59725 17.7566L5.59958 17.7512C5.62451 17.4279 5.65802 17.1069 5.70087 16.7882C5.6027 16.641 5.43597 16.5428 5.23574 16.4251C4.93111 16.2467 4.55792 16.0278 4.20654 15.5331C3.98527 15.223 3.94943 14.9589 4.02345 14.7734C4.05929 14.6854 4.1185 14.6153 4.19407 14.567C4.26809 14.5194 4.35768 14.4922 4.45507 14.4875C4.70828 14.475 5.02694 14.6168 5.28093 14.9612C5.56297 15.343 5.71879 15.7613 5.80605 16.1026C5.85669 15.8097 5.91512 15.519 5.98057 15.2316C5.96732 15.2035 5.96888 15.1716 5.9829 15.1459C5.9868 15.1357 5.99849 15.1116 6.01641 15.0757C6.11535 14.6597 6.2291 14.2499 6.35766 13.8471C6.17301 13.6889 5.68451 13.2028 5.25054 12.1798C5.0581 11.7263 5.05031 11.4139 5.13679 11.2371C5.18198 11.1459 5.25054 11.0875 5.33313 11.0594C5.4126 11.0329 5.50219 11.0361 5.59491 11.0696C5.80683 11.1444 6.04367 11.3828 6.17612 11.7661C6.36778 12.3185 6.47452 12.9215 6.52984 13.3305C7.02535 11.9289 7.69616 10.6107 8.51578 9.40149C8.64823 8.83741 8.71679 8.40189 8.7799 8.00221C8.84924 7.56201 8.91157 7.16311 9.04246 6.69175C9.0822 6.54762 9.11414 6.42607 9.14219 6.31856C9.29801 5.72488 9.34865 5.53244 9.84261 4.84059C10.4012 4.05759 10.8702 3.58077 10.9045 3.54649C10.9326 3.51611 10.9778 3.50676 11.0167 3.52546C11.0642 3.54805 11.0837 3.6057 11.0611 3.65245C10.9396 3.90332 10.8484 4.31235 10.7417 4.78683C10.6022 5.4109 10.4371 6.14793 10.1426 6.81329C9.96025 7.22466 9.72808 7.67343 9.50291 8.08402C9.85273 7.66096 10.2213 7.25583 10.6092 6.86861C10.8235 6.65435 11.0432 6.44555 11.2692 6.24221C11.2785 6.18767 11.3899 6.12534 11.4071 6.11599L11.4164 6.11054C11.9158 5.67112 12.4417 5.25975 12.9894 4.87955C12.991 4.87331 12.9925 4.8663 12.9949 4.86007C12.9957 4.85851 13.2091 4.33417 13.7709 3.48183C14.0529 3.0541 14.2781 2.75648 14.5827 2.48379C14.8858 2.21188 15.266 1.96802 15.8565 1.64858C17.0166 1.02062 18.2344 0.0319356 18.2375 0.0288191C18.2687 0.00388766 18.3131 -8.02753e-06 18.3489 0.0225863C18.3933 0.0498549 18.4073 0.109067 18.3793 0.153476C18.3754 0.159709 17.1982 2.07164 15.9703 2.81179C15.3618 3.17875 14.6466 3.72647 14.088 4.17835C15.3065 3.46157 16.6216 2.89126 18.0077 2.49002C18.0162 2.48613 18.0256 2.48301 18.0349 2.48145L18.0388 2.48067C18.7665 2.27187 19.5137 2.10904 20.2772 1.99607C20.292 1.97971 20.3123 1.96802 20.3356 1.96412H20.3349C20.338 1.96334 21.3438 1.8122 22.4867 1.44991C22.7774 1.3572 23.0298 1.25046 23.2713 1.1484C24.006 0.836754 24.6379 0.56952 25.8003 0.89285C27.2954 1.30967 27.9639 1.21696 27.9662 1.21618C28.0192 1.20917 28.0667 1.24579 28.0737 1.29877C28.0784 1.33305 28.0636 1.36499 28.0387 1.38603C27.9896 1.42732 27.3912 1.90647 25.3936 1.96257C24.5498 1.98594 23.8346 2.02645 23.1654 2.06463C22.2725 2.11449 21.4622 2.16046 20.5203 2.15578C20.1479 2.20565 19.7794 2.26798 19.4147 2.34199C19.9741 2.30849 20.6036 2.30304 21.0929 2.3864C21.7154 2.49158 22.0668 2.59676 22.3761 2.68947C22.6317 2.76583 22.8584 2.83361 23.1817 2.88503C23.9203 3.00112 24.5015 3.21459 24.5031 3.21537C24.5529 3.23329 24.5787 3.28783 24.5607 3.33769C24.5452 3.37898 24.5054 3.40314 24.4633 3.40002C24.461 3.40002 23.8011 3.34392 22.8522 3.45767C22.7002 3.47637 22.574 3.49273 22.4501 3.50909C21.6367 3.61739 20.8826 3.71867 20.1035 3.41326C19.8175 3.30107 19.5892 3.19356 19.382 3.09539C18.9621 2.89672 18.6294 2.73934 18.0614 2.67389C15.8737 3.30808 13.8659 4.36689 12.1355 5.75682C12.5991 5.55192 13.2465 5.30494 13.9641 5.14756C14.6661 4.99407 15.1639 4.77592 15.6431 4.56712C16.1168 4.35988 16.571 4.16121 17.1865 4.03577C18.4268 3.78412 19.033 3.84255 19.0345 3.84255C19.0875 3.84723 19.1257 3.89397 19.121 3.94617C19.1179 3.98513 19.0922 4.01629 19.0571 4.02798H19.0579C19.054 4.02876 17.9157 4.42766 16.4868 5.26676C15.3875 5.91108 14.8453 5.96874 13.9134 6.06691C13.6135 6.09885 13.2715 6.13547 12.8484 6.19935C12.0818 6.31388 11.6712 6.34115 11.4624 6.32713C11.2162 6.54606 10.977 6.772 10.744 7.00495C9.75924 7.98974 8.89365 9.09452 8.1722 10.2959C8.71835 9.82766 9.68133 9.06258 10.5719 8.66211C11.1484 8.40345 11.7499 8.10505 12.2773 7.82769C12.9575 7.47164 13.5153 7.1522 13.7397 7.00184C13.7833 6.97301 13.8425 6.98469 13.8722 7.02833C13.894 7.06105 13.8932 7.10156 13.8737 7.13273C13.8722 7.13506 13.5005 7.72251 12.6614 8.34658C12.4121 8.532 12.1908 8.7486 11.968 8.96675C11.4546 9.46849 10.9326 9.97959 10.0171 10.1845C8.87573 10.44 8.02573 10.7719 7.859 10.8389C7.34556 11.7692 6.9155 12.7524 6.58048 13.7785C6.58282 13.8066 6.58438 13.8221 6.58438 13.8229C6.58593 13.844 6.58048 13.8658 6.56724 13.8845C6.55867 13.8962 6.54932 13.9047 6.53841 13.9117C6.47374 14.1143 6.41375 14.3184 6.3561 14.5241C6.62645 14.1486 7.04327 13.6866 7.61358 13.3812C8.05377 13.1451 8.41762 13.1295 8.63888 13.2292C8.7316 13.2705 8.80172 13.3329 8.84457 13.4077C8.88898 13.4856 8.90456 13.5752 8.88742 13.671C8.85236 13.8666 8.67394 14.087 8.31244 14.2608C7.90185 14.4579 7.58709 14.5826 7.30583 14.694C6.91316 14.8498 6.58515 14.9791 6.17612 15.2347C6.06627 15.713 5.97589 16.2 5.90655 16.6932C5.91278 16.7602 5.91278 16.7976 5.91278 16.7983C5.91356 16.8256 5.90266 16.8513 5.88318 16.87C5.86292 17.0282 5.84422 17.1856 5.82864 17.3445C6.08575 16.937 6.55477 16.3285 7.21312 16.006C7.60579 15.8128 7.93924 15.8245 8.14571 15.9429C8.23842 15.9959 8.30698 16.0699 8.34672 16.1579C8.38645 16.2467 8.39658 16.3488 8.37165 16.454C8.31633 16.6877 8.08494 16.9487 7.61669 17.1388C6.61398 17.5463 5.9829 17.787 5.78423 17.8618C5.7554 18.2654 5.7406 18.6721 5.7406 19.0819C5.7406 21.4738 6.23222 23.7503 7.1204 25.8173C7.20065 25.9552 7.41958 26.3315 7.58865 26.6042C7.66967 26.7359 7.68681 26.8356 7.66811 26.9003C7.65331 26.9517 7.62059 26.9852 7.57618 27.0023H7.5754C7.54034 27.0171 7.49827 27.0179 7.4562 27.0062C7.37283 26.9844 7.27467 26.9065 7.2248 26.7865C7.12663 26.5512 6.91472 25.8399 6.91472 25.8383C6.91238 25.8298 6.91082 25.822 6.91082 25.8134ZM21.3648 1.95399V1.95555C21.9671 1.93997 22.5405 1.90803 23.1537 1.87297C23.8206 1.83557 24.5335 1.79584 25.3881 1.77168C26.5958 1.73818 27.2627 1.55353 27.6039 1.41174C27.2471 1.39537 26.6355 1.32448 25.7489 1.0775C24.6503 0.771309 24.0465 1.02686 23.3445 1.32448C23.0968 1.42966 22.8366 1.53951 22.5436 1.63222C22.1175 1.76779 21.71 1.87375 21.3648 1.95399ZM11.5278 6.26714L11.5208 6.27415C11.594 6.24454 11.8831 6.15027 12.8196 6.00925C13.238 5.94614 13.587 5.90953 13.894 5.8768C14.7993 5.78019 15.3267 5.72488 16.3902 5.10081C17.2652 4.58738 18.0334 4.23678 18.5055 4.03967C18.2094 4.05992 17.7848 4.10901 17.2239 4.22276C16.6302 4.34352 16.1838 4.5383 15.7186 4.74164C15.2309 4.95512 14.7237 5.17716 14.0046 5.33454C12.7432 5.61113 11.7055 6.16897 11.5278 6.26714ZM7.29726 16.1766C6.57658 16.5311 6.09354 17.2549 5.88552 17.6187C6.17924 17.5065 6.74176 17.2876 7.54502 16.9612C7.94781 16.7976 8.14259 16.5903 8.18544 16.4096C8.20025 16.3465 8.19479 16.2865 8.1722 16.2358C8.1496 16.186 8.10831 16.1416 8.05066 16.1088C7.89328 16.0185 7.62604 16.0161 7.29726 16.1766ZM5.69152 16.4968C5.63932 16.154 5.50064 15.5798 5.12744 15.075C4.91553 14.7875 4.66076 14.669 4.46442 14.6784C4.40054 14.6815 4.34288 14.6986 4.29769 14.7275C4.25484 14.7555 4.22134 14.7953 4.20108 14.8443C4.14888 14.9737 4.18394 15.1731 4.36236 15.4224C4.69036 15.8844 5.04408 16.0917 5.33157 16.2608C5.46713 16.3394 5.58945 16.4111 5.69152 16.4968ZM7.70317 13.5495C6.99886 13.9265 6.54075 14.5576 6.31636 14.93C6.63346 14.754 6.91316 14.6433 7.23493 14.5156C7.51775 14.4041 7.83406 14.2787 8.23063 14.0878C8.52903 13.9445 8.67394 13.7777 8.69965 13.6367C8.70822 13.5869 8.70121 13.5409 8.67862 13.5027C8.65524 13.4622 8.61551 13.4279 8.56019 13.403C8.38567 13.3251 8.08494 13.3446 7.70317 13.5495ZM6.3709 13.6001C6.32961 13.2308 6.22599 12.4907 5.99537 11.8284C5.88318 11.5051 5.69541 11.308 5.53102 11.2495C5.47882 11.2316 5.4313 11.2285 5.39312 11.241C5.35884 11.2526 5.32923 11.2791 5.3082 11.3212C5.24275 11.4544 5.25833 11.71 5.42662 12.1058C5.77722 12.9324 6.15665 13.3882 6.3709 13.6001ZM10.649 8.83663C9.74366 9.24333 8.75575 10.0419 8.23297 10.4954C8.62798 10.3567 9.24269 10.1619 9.97661 9.99751C10.8375 9.80507 11.3401 9.31345 11.834 8.82962C12.0615 8.60758 12.2874 8.38631 12.5469 8.19309C12.9193 7.91651 13.1951 7.6485 13.3852 7.43969C13.1117 7.59629 12.758 7.79107 12.3654 7.99676C11.8332 8.27568 11.2279 8.57641 10.649 8.83663ZM8.82042 8.89273C9.13595 8.3606 9.63614 7.48332 9.96648 6.73616C10.2548 6.0856 10.4168 5.36025 10.5547 4.74632C10.6147 4.47986 10.6692 4.23444 10.7285 4.02253C10.5391 4.2399 10.2805 4.55622 9.99843 4.95122C9.52395 5.61502 9.47565 5.79967 9.32684 6.36608C9.29801 6.47594 9.26529 6.60059 9.22633 6.74239C9.09778 7.20596 9.03701 7.59785 8.96845 8.03104C8.92637 8.29515 8.88274 8.57485 8.82042 8.89273ZM13.3704 4.52193C13.9181 4.05914 15.0011 3.17252 15.8713 2.6474C16.6762 2.16202 17.4654 1.14528 17.8916 0.539135C17.4257 0.888954 16.6762 1.42264 15.9461 1.81765C15.368 2.13007 14.9995 2.36614 14.7089 2.62559C14.4191 2.88503 14.2033 3.17252 13.9298 3.58778C13.6735 3.97578 13.4919 4.29366 13.3704 4.52193ZM21.0618 2.57494C20.3434 2.4534 19.3088 2.52742 18.6621 2.59676C18.9504 2.67934 19.1888 2.79232 19.463 2.92243C19.6672 3.01904 19.8923 3.12499 20.1728 3.23485C20.9067 3.52156 21.6367 3.42495 22.4252 3.31977C22.5662 3.30107 22.7096 3.28159 22.8296 3.26757C23.1895 3.22472 23.5089 3.20524 23.7692 3.19823C23.5869 3.15382 23.3773 3.10863 23.1521 3.07357C22.8116 3.01981 22.5818 2.95047 22.3216 2.87256C22.0169 2.78141 21.6702 2.67779 21.0618 2.57494ZM40.0463 20.4072L40.0439 20.4134C40.0151 20.7811 39.9762 21.1465 39.9255 21.5088C40.2169 21.8353 40.8176 21.9249 41.3591 22.6861C41.973 23.5485 41.0334 23.9513 40.439 23.1457C40.0993 22.6853 39.9473 22.1672 39.8796 21.8096C39.8196 22.1882 39.7471 22.5622 39.663 22.9323C39.6762 22.9603 39.6754 22.9922 39.6614 23.018C39.6567 23.0281 39.645 23.053 39.6263 23.0896C39.5274 23.5049 39.4144 23.9139 39.2867 24.3175C39.4705 24.4749 39.959 24.9611 40.393 25.9848C40.5854 26.4375 40.5932 26.7499 40.5067 26.9267C40.4623 27.0179 40.3938 27.0763 40.3104 27.1044C40.2317 27.1309 40.1413 27.1278 40.0486 27.095C39.8367 27.0195 39.6006 26.781 39.4674 26.3977C39.2757 25.8453 39.169 25.2415 39.1137 24.8325C38.619 26.2341 37.9482 27.5531 37.1285 28.7623C36.9953 29.3272 36.9275 29.7619 36.8636 30.1624C36.7951 30.6026 36.732 31.0007 36.6018 31.4721C36.5621 31.6162 36.5302 31.7377 36.5013 31.846C36.3455 32.4389 36.2957 32.6321 35.8017 33.3232C35.2423 34.1062 34.7733 34.5838 34.739 34.6181C34.711 34.6477 34.6658 34.6571 34.6276 34.6391C34.5793 34.6158 34.5598 34.5589 34.5832 34.5114C34.7039 34.2605 34.7959 33.8522 34.9018 33.377C35.0421 32.7529 35.2072 32.0167 35.501 31.3513C35.6833 30.9399 35.9155 30.4904 36.1406 30.0798C35.7916 30.5028 35.4223 30.908 35.0351 31.296C34.8208 31.5095 34.6003 31.7183 34.3752 31.9216C34.3658 31.9761 34.2544 32.0385 34.2373 32.0478L34.2271 32.0533C33.7277 32.4927 33.2026 32.9041 32.6541 33.2843C32.6533 33.2905 32.6518 33.2975 32.6487 33.3037C32.6479 33.3053 32.4344 33.8296 31.8727 34.682C31.5906 35.1105 31.3655 35.4081 31.0616 35.68C30.7578 35.9519 30.3783 36.1958 29.7878 36.516C28.6269 37.1432 27.4092 38.1327 27.406 38.135C27.3749 38.1599 27.3305 38.1638 27.2946 38.142C27.2502 38.114 27.2362 38.0547 27.2642 38.0103C27.2674 38.0041 28.4461 36.0929 29.6732 35.3528C30.2817 34.9851 30.9969 34.4381 31.5556 33.9862C30.337 34.7022 29.0227 35.2725 27.6359 35.6738C27.6273 35.6785 27.618 35.6808 27.6086 35.6824L27.6047 35.6831C26.877 35.8927 26.1299 36.0548 25.3671 36.1677C25.3523 36.1849 25.3321 36.1966 25.3087 36.1997V36.2005C25.3056 36.2005 24.3005 36.3524 23.1568 36.7147C22.8662 36.8066 22.6137 36.9133 22.373 37.0154C21.6375 37.3271 21.0057 37.5943 19.844 37.271C18.3481 36.8541 17.6797 36.9476 17.6773 36.9476C17.6251 36.9546 17.5768 36.918 17.5698 36.8658C17.5651 36.8308 17.5799 36.7988 17.6049 36.7786C17.6539 36.7365 18.2531 36.2573 20.2499 36.2012C21.0937 36.1779 21.8097 36.1374 22.4782 36.1C23.371 36.0493 24.1813 36.0041 25.1233 36.008C25.4957 35.9582 25.8642 35.8958 26.2296 35.8226C25.6694 35.8553 25.0407 35.8608 24.5506 35.7782C23.9281 35.6722 23.5767 35.5671 23.2674 35.4743C23.0119 35.3988 22.7859 35.3302 22.4618 35.2796C21.7232 35.1627 21.142 34.95 21.1405 34.9492C21.0906 34.9313 21.0649 34.876 21.0828 34.8261C21.0984 34.7856 21.1389 34.7607 21.181 34.7638C21.1825 34.7638 21.8424 34.8199 22.7914 34.7069C22.9433 34.6882 23.0695 34.6711 23.1934 34.6547C24.0076 34.5464 24.761 34.4459 25.5401 34.7505C25.8268 34.8627 26.0543 34.971 26.2615 35.0684C26.6815 35.2679 27.0141 35.4245 27.5821 35.4899C29.7706 34.8557 31.7776 33.7969 33.508 32.407C33.0444 32.6127 32.397 32.8589 31.6794 33.0163C30.9775 33.1705 30.4796 33.3879 30.0005 33.5975C29.5275 33.8047 29.0718 34.0034 28.4578 34.128C27.2167 34.3805 26.6106 34.3213 26.609 34.3213C26.556 34.3166 26.5179 34.2698 26.5225 34.2176C26.5256 34.1795 26.5521 34.1483 26.5856 34.1358C26.5895 34.135 27.7278 33.7361 29.1575 32.8978C30.256 32.2535 30.7991 32.1959 31.7301 32.0969C32.03 32.065 32.3721 32.0291 32.7951 31.9652C33.5618 31.8499 33.9724 31.8227 34.1812 31.8375C34.4274 31.6185 34.6665 31.3926 34.8995 31.1596C35.8851 30.1741 36.7499 29.0693 37.4713 27.8687C36.926 28.3369 35.9622 29.102 35.0725 29.5017C34.4951 29.7611 33.8944 30.0595 33.3662 30.3361C32.6868 30.6922 32.129 31.0116 31.9038 31.162C31.8602 31.1908 31.801 31.1791 31.7714 31.1355C31.7496 31.1035 31.7503 31.0622 31.7698 31.0311C31.7714 31.0295 32.1438 30.4413 32.9829 29.8172C33.2314 29.6318 33.4527 29.416 33.6755 29.1978C34.189 28.6953 34.711 28.1842 35.6264 27.9793C36.7686 27.7238 37.6186 27.3919 37.7853 27.3256C38.298 26.3946 38.728 25.4114 39.0631 24.3853C39.0607 24.3572 39.0599 24.3417 39.0592 24.3409H39.0599C39.0584 24.3198 39.0631 24.298 39.0771 24.2793C39.0849 24.2684 39.095 24.2591 39.1059 24.2521C39.1698 24.0495 39.2306 23.8454 39.2874 23.6397C39.0171 24.0152 38.601 24.4772 38.03 24.7826C37.5898 25.0187 37.2259 25.0343 37.0047 24.9353C36.9119 24.8933 36.8418 24.8317 36.799 24.7561C36.7546 24.679 36.739 24.5886 36.7561 24.4928C36.792 24.298 36.9704 24.0768 37.3311 23.903C37.7417 23.7059 38.0564 23.5813 38.3377 23.4698C38.7304 23.314 39.0576 23.1847 39.4674 22.9291C39.6263 22.2404 39.7424 21.5369 39.8149 20.8193C39.5578 21.2268 39.0888 21.8353 38.4296 22.1578C38.0377 22.3503 37.7043 22.3394 37.497 22.2209C37.4051 22.1687 37.3365 22.0939 37.2968 22.0051C37.2571 21.9163 37.247 21.815 37.2719 21.7091C37.328 21.4753 37.5594 21.2151 38.0268 21.025C39.0288 20.6175 39.6606 20.3768 39.8593 20.302C39.8881 19.8992 39.9029 19.4917 39.9029 19.0819C39.9029 16.69 39.4113 14.4127 38.5231 12.3465C38.4429 12.2078 38.224 11.8323 38.0557 11.5596C37.9739 11.4279 37.9567 11.3282 37.9754 11.2636C37.991 11.2121 38.0229 11.1786 38.0674 11.1607C38.104 11.1467 38.1453 11.1451 38.1873 11.1568C38.2707 11.1794 38.3696 11.2573 38.4187 11.3765C38.5169 11.6118 38.728 12.3239 38.7288 12.3263C38.7319 12.3341 38.7327 12.3418 38.7327 12.3496C39.6092 14.4189 40.0946 16.6939 40.0946 19.0819C40.0946 19.5268 40.0774 19.9677 40.0447 20.4041L40.0463 20.4072ZM38.3463 21.9872C39.0669 21.6335 39.55 20.9089 39.758 20.5451C39.4643 20.6573 38.901 20.8762 38.0977 21.2026C37.6965 21.3662 37.5009 21.5743 37.4581 21.7542C37.4433 21.8181 37.448 21.8773 37.4713 21.928C37.4939 21.9786 37.5352 22.0223 37.5921 22.055C37.7503 22.1454 38.0175 22.1485 38.3463 21.9872ZM37.9404 24.6151C38.6447 24.2373 39.1028 23.6062 39.3272 23.2345C39.0093 23.4106 38.7304 23.5213 38.4086 23.6483C38.1258 23.7604 37.8095 23.8851 37.4129 24.076C37.1145 24.2193 36.9696 24.3869 36.9439 24.5271C36.9353 24.577 36.9423 24.6229 36.9649 24.6611C36.9883 24.7016 37.0288 24.7359 37.0833 24.7608C37.2571 24.8395 37.5586 24.8193 37.9404 24.6151ZM39.2726 24.5645C39.3139 24.933 39.4175 25.6732 39.6474 26.3362C39.7596 26.6595 39.9473 26.8558 40.1125 26.9143C40.1647 26.933 40.2122 26.9361 40.2496 26.9236C40.2847 26.9119 40.3151 26.8847 40.3353 26.8434C40.4 26.7101 40.3844 26.4546 40.2169 26.0588C39.8663 25.2314 39.4869 24.7764 39.2726 24.5645ZM34.9946 29.328C35.8999 28.9205 36.8878 28.1227 37.4113 27.6685C37.0163 27.8071 36.4008 28.0019 35.6669 28.1663C34.806 28.3595 34.3035 28.8504 33.8095 29.3342C33.582 29.557 33.3561 29.7775 33.0966 29.9707C32.7242 30.2481 32.4484 30.5153 32.2591 30.7241C32.5318 30.5675 32.8847 30.3735 33.2782 30.1671C33.8103 29.8889 34.4157 29.5874 34.9946 29.328ZM36.8231 29.2719C36.5076 29.804 36.0074 30.6805 35.677 31.4276C35.3888 32.0782 35.2259 32.8036 35.0888 33.4183C35.0288 33.6839 34.9735 33.9301 34.9151 34.1421C35.1036 33.9239 35.3631 33.6084 35.6451 33.2126C36.1196 32.5496 36.1679 32.3649 36.3159 31.7985C36.3447 31.6879 36.3775 31.5632 36.4172 31.4214C36.545 30.9586 36.6073 30.566 36.6751 30.1328C36.7172 29.8687 36.7608 29.5897 36.8231 29.2719ZM31.6389 32.8293C32.9003 32.5527 33.9373 31.9948 34.1149 31.8967L34.1227 31.8904C34.0495 31.9193 33.7612 32.0143 32.824 32.1553C32.4056 32.2184 32.0565 32.2551 31.7496 32.287C30.8442 32.3836 30.316 32.4397 29.2533 33.063C28.3784 33.5764 27.6094 33.927 27.138 34.1249C27.4333 34.1047 27.8587 34.0556 28.4197 33.9411C29.0133 33.8211 29.4598 33.6255 29.9241 33.4222C30.4126 33.2087 30.9198 32.9874 31.6389 32.8293ZM32.2723 33.6419C31.7262 34.1047 30.6425 34.9913 29.7722 35.5164C28.9674 36.0018 28.1781 37.0185 27.752 37.6247C28.2171 37.2756 28.9666 36.7419 29.6966 36.3469C30.2755 36.0337 30.644 35.7984 30.9346 35.5382C31.2237 35.2788 31.4403 34.9921 31.7137 34.5768C31.9701 34.188 32.1516 33.8709 32.2723 33.6419ZM24.5818 35.5889C25.3001 35.7112 26.3348 35.6364 26.9814 35.5678C26.6932 35.4852 26.4547 35.3715 26.1805 35.2414C25.9764 35.1456 25.752 35.0388 25.4707 34.929C24.7368 34.6422 24.0068 34.7396 23.2191 34.844C23.0773 34.8627 22.9347 34.8822 22.814 34.897C22.454 34.9399 22.1346 34.9593 21.8752 34.9664C22.0567 35.0108 22.267 35.0552 22.4914 35.091C22.8319 35.144 23.0625 35.2133 23.3227 35.2912C23.6274 35.3824 23.9733 35.486 24.5818 35.5889ZM23.0999 36.5316C23.5261 36.3968 23.9336 36.2908 24.2787 36.2098V36.2083C23.6764 36.2238 23.1022 36.2566 22.4891 36.2908C21.823 36.3282 21.1093 36.3688 20.2554 36.3929C19.0478 36.4264 18.3809 36.6103 18.0396 36.7521C18.3972 36.7684 19.0073 36.8393 19.8954 37.0871C20.9932 37.3925 21.597 37.137 22.299 36.8393C22.5467 36.7342 22.807 36.6243 23.0999 36.5316ZM27.9982 2.23136C28.1189 2.23136 28.2288 2.28044 28.309 2.36069L28.3098 2.36147C28.3901 2.44094 28.4391 2.55079 28.4391 2.67233C28.4391 2.79387 28.3893 2.90451 28.3098 2.98398C28.3082 2.98553 28.3059 2.98787 28.3036 2.98943C28.2241 3.06578 28.1166 3.11331 27.9982 3.11331C27.8758 3.11331 27.766 3.06422 27.6865 2.98398C27.6063 2.90451 27.5572 2.79387 27.5572 2.67233C27.5572 2.55079 27.6063 2.44094 27.6865 2.36069C27.766 2.28044 27.8758 2.23136 27.9982 2.23136ZM28.1735 2.49548C28.1291 2.45107 28.0667 2.42302 27.9982 2.42302C27.9288 2.42302 27.8665 2.45107 27.8213 2.49548C27.7761 2.54066 27.7481 2.60299 27.7481 2.67233C27.7481 2.74089 27.7769 2.80322 27.8213 2.84841C27.8665 2.8936 27.9288 2.92087 27.9982 2.92087C28.0644 2.92087 28.1252 2.89516 28.1703 2.85231L28.1735 2.84841C28.2194 2.80322 28.2467 2.74089 28.2467 2.67233C28.2467 2.60299 28.2186 2.54066 28.1742 2.49548H28.1735ZM29.2821 2.80634C29.3772 2.80634 29.4637 2.84529 29.526 2.90762C29.5883 2.96995 29.6273 3.05643 29.6273 3.15148C29.6273 3.24654 29.5883 3.33224 29.526 3.39534C29.4637 3.45767 29.3772 3.49663 29.2821 3.49663C29.1871 3.49663 29.1014 3.45767 29.0383 3.39534C28.9759 3.33224 28.937 3.24654 28.937 3.15148C28.937 3.05643 28.9759 2.96995 29.0383 2.90762C29.1014 2.84529 29.1871 2.80634 29.2821 2.80634ZM29.3904 3.04241C29.3632 3.01514 29.325 2.998 29.2821 2.998C29.2393 2.998 29.2011 3.01514 29.1738 3.04241C29.1458 3.07046 29.1286 3.10941 29.1286 3.15148C29.1286 3.19433 29.1458 3.23251 29.1738 3.25978C29.2011 3.28783 29.2393 3.30497 29.2821 3.30497C29.325 3.30497 29.3632 3.28783 29.3904 3.25978C29.4185 3.23251 29.4356 3.19433 29.4356 3.15148C29.4356 3.10941 29.4185 3.07046 29.3904 3.04241ZM17.4693 35.6683C17.5145 35.7127 17.5768 35.7408 17.6462 35.7408C17.7147 35.7408 17.777 35.7127 17.8222 35.6683C17.8674 35.6231 17.8947 35.5608 17.8947 35.4915C17.8947 35.4229 17.8666 35.3606 17.8222 35.3154C17.777 35.271 17.7147 35.2429 17.6462 35.2429C17.5791 35.2429 17.5184 35.2694 17.474 35.3115L17.4701 35.3154C17.4249 35.3606 17.3968 35.4229 17.3968 35.4915C17.3968 35.5608 17.4249 35.6231 17.4693 35.6683ZM16.3614 35.3575C16.2664 35.3575 16.1806 35.3193 16.1183 35.2562H16.1175C16.0544 35.1939 16.0163 35.1074 16.0163 35.0123C16.0163 34.9181 16.0544 34.8316 16.1175 34.7692L16.1183 34.7685C16.1806 34.7061 16.2664 34.6672 16.3614 34.6672C16.4565 34.6672 16.5422 34.7061 16.6045 34.7685L16.6053 34.7692C16.6684 34.8316 16.7065 34.9181 16.7065 35.0123C16.7065 35.1074 16.6684 35.1939 16.6053 35.2562H16.6045C16.5422 35.3193 16.4565 35.3575 16.3614 35.3575ZM16.2523 35.1214C16.2804 35.1487 16.3193 35.1658 16.3614 35.1658C16.4035 35.1658 16.4424 35.1487 16.4705 35.1214C16.4977 35.0934 16.5149 35.0552 16.5149 35.0123C16.5149 34.9703 16.4977 34.9313 16.4705 34.904C16.4424 34.876 16.4035 34.8588 16.3614 34.8588C16.3193 34.8588 16.2804 34.876 16.2523 34.904C16.2251 34.9313 16.2079 34.9703 16.2079 35.0123C16.2079 35.0552 16.2251 35.0934 16.2523 35.1214Z" fill="#216D54"/>
</g>
<mask id="mask1_268_1922" style="mask-type:luminance" maskUnits="userSpaceOnUse" x="7" y="25" width="8" height="11">
<path d="M7.10547 25.9646H14.8841V35.1393H7.10547V25.9646Z" fill="white"/>
</mask>
<g mask="url(#mask1_268_1922)">
<mask id="mask2_268_1922" style="mask-type:luminance" maskUnits="userSpaceOnUse" x="5" y="25" width="12" height="12">
<path d="M5.87598 28.1562L12.9939 25.4106L16.062 33.3661L8.9441 36.1109L5.87598 28.1562Z" fill="white"/>
</mask>
<g mask="url(#mask2_268_1922)">
<mask id="mask3_268_1922" style="mask-type:luminance" maskUnits="userSpaceOnUse" x="5" y="25" width="12" height="12">
<path d="M5.87598 28.1562L12.9939 25.4106L16.062 33.3661L8.9441 36.1109L5.87598 28.1562Z" fill="white"/>
</mask>
<g mask="url(#mask3_268_1922)">
<path d="M9.85411 28.1274C9.84787 28.0713 9.8432 28.0323 9.84008 27.9926C9.81359 27.6202 9.93591 27.3023 10.1915 27.0327C10.3286 26.8886 10.4813 26.7632 10.6371 26.6416C10.7929 26.5208 10.9324 26.3853 11.0532 26.2287C11.1279 26.1321 11.1848 26.1313 11.2612 26.2295C11.6266 26.6993 11.7193 27.4753 11.1957 28.0448C11.0033 28.2544 10.7828 28.4188 10.5086 28.5052C10.3987 28.5395 10.285 28.5512 10.1665 28.559C10.2047 28.6439 10.2421 28.7226 10.2764 28.8021C10.3239 28.9119 10.3574 29.0265 10.38 29.1441C10.3964 29.2329 10.373 29.2812 10.2896 29.3178C10.1876 29.363 10.08 29.37 9.97019 29.3591C9.69439 29.3319 9.41859 29.3171 9.142 29.3537C8.48054 29.4409 7.9601 29.7503 7.62664 30.3385C7.45212 30.6462 7.41706 30.9875 7.42719 31.335C7.43809 31.7261 7.55652 32.0899 7.72169 32.439C7.89621 32.8067 8.10735 33.1526 8.39016 33.4463C8.87944 33.9535 9.41469 34.4039 10.0551 34.7116C10.4392 34.8955 10.8428 34.9812 11.2721 34.9227C11.5206 34.8892 11.7341 34.7981 11.8977 34.6018C11.992 34.488 12.1057 34.3953 12.228 34.3127C12.3309 34.2426 12.4454 34.2138 12.5654 34.2044C12.6667 34.1966 12.7688 34.1865 12.8708 34.2044C13.1973 34.2613 13.4668 34.1405 13.7138 33.9411C14.0457 33.6723 14.267 33.3264 14.4049 32.9298C14.6604 32.1959 14.7788 31.4386 14.7259 30.6618C14.6924 30.1624 14.5662 29.6801 14.3332 29.2345C14.0932 28.7748 13.7598 28.4008 13.2697 28.2006C12.8911 28.0463 12.4976 28.0417 12.1034 28.1492C11.699 28.259 11.3687 28.4889 11.0703 28.774C10.9114 28.9267 10.7999 29.1129 10.6753 29.2898C10.468 29.5843 10.1891 29.7557 9.82372 29.7721C9.73724 29.7752 9.65388 29.7588 9.57129 29.7393C9.52532 29.7292 9.47702 29.7144 9.49026 29.6544C9.50273 29.5944 9.55181 29.5983 9.59778 29.61C9.70841 29.6381 9.81983 29.649 9.93358 29.6295C10.2055 29.5835 10.4119 29.4363 10.567 29.2134C10.6714 29.0631 10.7649 28.9049 10.8888 28.7686C11.0991 28.5395 11.3422 28.3494 11.6157 28.2029C12.0138 27.9895 12.4384 27.9061 12.8887 27.9645C13.3718 28.0269 13.752 28.2715 14.0738 28.6252C14.3768 28.9571 14.5615 29.3521 14.6893 29.7767C14.8295 30.2434 14.9012 30.7195 14.8677 31.208C14.8256 31.8203 14.7383 32.4241 14.5202 33.0022C14.3535 33.4456 14.1002 33.8289 13.7091 34.1101C13.4629 34.287 13.1973 34.3828 12.888 34.34C12.7711 34.3228 12.6503 34.3244 12.5319 34.3408C12.3488 34.3649 12.2132 34.474 12.0863 34.5979C11.985 34.6976 11.8954 34.8113 11.7746 34.8892C11.5736 35.0194 11.3445 35.0583 11.1108 35.0708C10.6698 35.0942 10.2592 34.9796 9.87748 34.7708C9.17628 34.3883 8.56313 33.8935 8.06839 33.2648C7.74818 32.8573 7.51289 32.3992 7.38044 31.8959C7.24098 31.3646 7.24098 30.834 7.48406 30.3291C7.67261 29.9365 7.97646 29.6497 8.36445 29.4519C8.81556 29.2205 9.29782 29.1745 9.7949 29.2103C9.91722 29.2197 10.0395 29.2438 10.1634 29.2212C10.2468 29.2057 10.26 29.1916 10.239 29.1137C10.0878 28.5504 9.76295 28.1204 9.25264 27.8352C9.15525 27.7814 9.04929 27.7472 8.9371 27.7378C8.88723 27.7339 8.84205 27.7176 8.84984 27.6591C8.85763 27.6015 8.90671 27.5984 8.95424 27.6046C9.21758 27.6396 9.43651 27.7674 9.63752 27.9326C9.70764 27.9895 9.7723 28.0541 9.85411 28.1274ZM10.1883 28.4227C10.3013 28.418 10.3956 28.404 10.486 28.3743C10.7563 28.2847 10.9659 28.1126 11.1459 27.8991C11.5292 27.4449 11.4988 26.8099 11.1981 26.3627C11.1677 26.3175 11.1513 26.312 11.1147 26.3596C11.0251 26.4788 10.9191 26.5832 10.8023 26.6774C10.6776 26.7772 10.553 26.8777 10.4338 26.9829C10.2359 27.1574 10.0699 27.3545 10.0029 27.6186C9.93903 27.8703 9.96786 28.1141 10.0629 28.358C10.0762 28.3463 10.0847 28.3393 10.0917 28.3323C10.4423 27.9591 10.7252 27.5415 10.9137 27.0631C10.9441 26.9844 10.9752 26.9587 11.0173 26.9797C11.0835 27.014 11.0539 27.0662 11.036 27.113C10.9324 27.3786 10.7976 27.6272 10.6379 27.8633C10.507 28.0572 10.3605 28.2396 10.1883 28.4227ZM8.39328 32.5247C8.67921 33.0147 9.05552 33.4253 9.50351 33.7704C9.86813 34.0509 10.2647 34.273 10.7026 34.4171C10.747 34.4319 10.7914 34.4366 10.8085 34.3828C10.8257 34.3291 10.7867 34.3073 10.7431 34.2909C10.6527 34.2582 10.5615 34.2278 10.4735 34.1888C9.65933 33.8297 9.01501 33.271 8.54287 32.5169C8.32628 32.1702 8.17357 31.7962 8.12994 31.3856C8.08865 31.0015 8.1463 30.6416 8.39951 30.3322C8.4073 30.3229 8.41354 30.3104 8.41821 30.2987C8.42756 30.2723 8.42289 30.2481 8.40107 30.2294C8.37926 30.2107 8.3551 30.2091 8.32939 30.2216C8.30524 30.2333 8.29044 30.2551 8.27486 30.2746C8.11514 30.4779 8.02788 30.7109 7.99749 30.9657C7.95308 31.3389 8.02788 31.6949 8.15955 32.0416C8.22188 32.2099 8.3029 32.3704 8.39328 32.5247ZM8.64259 30.1273C8.67843 30.1149 8.69246 30.0868 8.68155 30.051C8.66986 30.0144 8.64104 30.0011 8.60598 30.0128C8.57014 30.0237 8.55689 30.051 8.56702 30.0899C8.58182 30.1211 8.60598 30.1398 8.64259 30.1273Z" fill="#216D54"/>
<path d="M9.85411 28.1274C9.84787 28.0713 9.8432 28.0323 9.84008 27.9926C9.81359 27.6202 9.93591 27.3023 10.1915 27.0327C10.3286 26.8886 10.4813 26.7632 10.6371 26.6416C10.7929 26.5208 10.9324 26.3853 11.0532 26.2287C11.1279 26.1321 11.1848 26.1313 11.2612 26.2295C11.6266 26.6993 11.7193 27.4753 11.1957 28.0448C11.0033 28.2544 10.7828 28.4188 10.5086 28.5052C10.3987 28.5395 10.285 28.5512 10.1665 28.559C10.2047 28.6439 10.2421 28.7226 10.2764 28.8021C10.3239 28.9119 10.3574 29.0265 10.38 29.1441C10.3964 29.2329 10.373 29.2812 10.2896 29.3178C10.1876 29.363 10.08 29.37 9.97019 29.3591C9.69439 29.3319 9.41859 29.3171 9.142 29.3537C8.48054 29.4409 7.9601 29.7503 7.62664 30.3385C7.45212 30.6462 7.41706 30.9875 7.42719 31.335C7.43809 31.7261 7.55652 32.0899 7.72169 32.439C7.89621 32.8067 8.10735 33.1526 8.39016 33.4463C8.87944 33.9535 9.41469 34.4039 10.0551 34.7116C10.4392 34.8955 10.8428 34.9812 11.2721 34.9227C11.5206 34.8892 11.7341 34.7981 11.8977 34.6018C11.992 34.488 12.1057 34.3953 12.228 34.3127C12.3309 34.2426 12.4454 34.2138 12.5654 34.2044C12.6667 34.1966 12.7688 34.1865 12.8708 34.2044C13.1973 34.2613 13.4668 34.1405 13.7138 33.9411C14.0457 33.6723 14.267 33.3264 14.4049 32.9298C14.6604 32.1959 14.7788 31.4386 14.7259 30.6618C14.6924 30.1624 14.5662 29.6801 14.3332 29.2345C14.0932 28.7748 13.7598 28.4008 13.2697 28.2006C12.8911 28.0463 12.4976 28.0417 12.1034 28.1492C11.699 28.259 11.3687 28.4889 11.0703 28.774C10.9114 28.9267 10.7999 29.1129 10.6753 29.2898C10.468 29.5843 10.1891 29.7557 9.82372 29.7721C9.73724 29.7752 9.65388 29.7588 9.57129 29.7393C9.52532 29.7292 9.47702 29.7144 9.49026 29.6544C9.50273 29.5944 9.55181 29.5983 9.59778 29.61C9.70841 29.6381 9.81983 29.649 9.93358 29.6295C10.2055 29.5835 10.4119 29.4363 10.567 29.2134C10.6714 29.0631 10.7649 28.9049 10.8888 28.7686C11.0991 28.5395 11.3422 28.3494 11.6157 28.2029C12.0138 27.9895 12.4384 27.9061 12.8887 27.9645C13.3718 28.0269 13.752 28.2715 14.0738 28.6252C14.3768 28.9571 14.5615 29.3521 14.6893 29.7767C14.8295 30.2434 14.9012 30.7195 14.8677 31.208C14.8256 31.8203 14.7383 32.4241 14.5202 33.0022C14.3535 33.4456 14.1002 33.8289 13.7091 34.1101C13.4629 34.287 13.1973 34.3828 12.888 34.34C12.7711 34.3228 12.6503 34.3244 12.5319 34.3408C12.3488 34.3649 12.2132 34.474 12.0863 34.5979C11.985 34.6976 11.8954 34.8113 11.7746 34.8892C11.5736 35.0194 11.3445 35.0583 11.1108 35.0708C10.6698 35.0942 10.2592 34.9796 9.87748 34.7708C9.17628 34.3883 8.56313 33.8935 8.06839 33.2648C7.74818 32.8573 7.51289 32.3992 7.38044 31.8959C7.24098 31.3646 7.24098 30.834 7.48406 30.3291C7.67261 29.9365 7.97646 29.6497 8.36445 29.4519C8.81556 29.2205 9.29782 29.1745 9.7949 29.2103C9.91722 29.2197 10.0395 29.2438 10.1634 29.2212C10.2468 29.2057 10.26 29.1916 10.239 29.1137C10.0878 28.5504 9.76295 28.1204 9.25264 27.8352C9.15525 27.7814 9.04929 27.7472 8.9371 27.7378C8.88723 27.7339 8.84205 27.7176 8.84984 27.6591C8.85763 27.6015 8.90671 27.5984 8.95424 27.6046C9.21758 27.6396 9.43651 27.7674 9.63752 27.9326C9.70764 27.9895 9.7723 28.0541 9.85411 28.1274ZM10.1883 28.4227C10.3013 28.418 10.3956 28.404 10.486 28.3743C10.7563 28.2847 10.9659 28.1126 11.1459 27.8991C11.5292 27.4449 11.4988 26.8099 11.1981 26.3627C11.1677 26.3175 11.1513 26.312 11.1147 26.3596C11.0251 26.4788 10.9191 26.5832 10.8023 26.6774C10.6776 26.7772 10.553 26.8777 10.4338 26.9829C10.2359 27.1574 10.0699 27.3545 10.0029 27.6186C9.93903 27.8703 9.96786 28.1141 10.0629 28.358C10.0762 28.3463 10.0847 28.3393 10.0917 28.3323C10.4423 27.9591 10.7252 27.5415 10.9137 27.0631C10.9441 26.9844 10.9752 26.9587 11.0173 26.9797C11.0835 27.014 11.0539 27.0662 11.036 27.113C10.9324 27.3786 10.7976 27.6272 10.6379 27.8633C10.507 28.0572 10.3605 28.2396 10.1883 28.4227ZM8.39328 32.5247C8.67921 33.0147 9.05552 33.4253 9.50351 33.7704C9.86813 34.0509 10.2647 34.273 10.7026 34.4171C10.747 34.4319 10.7914 34.4366 10.8085 34.3828C10.8257 34.3291 10.7867 34.3073 10.7431 34.2909C10.6527 34.2582 10.5615 34.2278 10.4735 34.1888C9.65933 33.8297 9.01501 33.271 8.54287 32.5169C8.32628 32.1702 8.17357 31.7962 8.12994 31.3856C8.08865 31.0015 8.1463 30.6416 8.39951 30.3322C8.4073 30.3229 8.41354 30.3104 8.41821 30.2987C8.42756 30.2723 8.42289 30.2481 8.40107 30.2294C8.37926 30.2107 8.3551 30.2091 8.32939 30.2216C8.30524 30.2333 8.29044 30.2551 8.27486 30.2746C8.11514 30.4779 8.02788 30.7109 7.99749 30.9657C7.95308 31.3389 8.02788 31.6949 8.15955 32.0416C8.22188 32.2099 8.3029 32.3704 8.39328 32.5247ZM8.64259 30.1273C8.67843 30.1149 8.69246 30.0868 8.68155 30.051C8.66986 30.0144 8.64104 30.0011 8.60598 30.0128C8.57014 30.0237 8.55689 30.051 8.56702 30.0899C8.58182 30.1211 8.60598 30.1398 8.64259 30.1273Z" fill="#216D54"/>
</g>
</g>
</g>
<mask id="mask4_268_1922" style="mask-type:luminance" maskUnits="userSpaceOnUse" x="30" y="0" width="10" height="12">
<path d="M30.4414 0.833652H39.6162V11.4046H30.4414V0.833652Z" fill="white"/>
</mask>
<g mask="url(#mask4_268_1922)">
<mask id="mask5_268_1922" style="mask-type:luminance" maskUnits="userSpaceOnUse" x="27" y="-1" width="14" height="14">
<path d="M32.4585 -0.803247L40.9032 3.03074L36.3899 12.9737L27.9443 9.14051L32.4585 -0.803247Z" fill="white"/>
</mask>
<g mask="url(#mask5_268_1922)">
<mask id="mask6_268_1922" style="mask-type:luminance" maskUnits="userSpaceOnUse" x="27" y="-1" width="14" height="14">
<path d="M32.4585 -0.803247L40.9032 3.03074L36.3899 12.9737L27.9443 9.14051L32.4585 -0.803247Z" fill="white"/>
</mask>
<g mask="url(#mask6_268_1922)">
<path d="M39.1572 6.95589C39.2421 6.758 39.2219 6.43623 39.0676 6.16354C39.3091 6.11835 39.4221 5.97266 39.5164 5.7662C39.6161 5.54571 39.5997 5.28081 39.4727 5.07357C39.4026 4.95748 39.2974 4.86477 39.1759 4.80244C39.3613 4.56092 39.4003 4.21577 39.2764 3.93841C39.1782 3.72026 38.9811 3.55197 38.7513 3.47951C38.8401 3.41173 38.911 3.31278 38.9468 3.20059C38.9951 3.04633 38.9889 2.8648 38.9281 2.67392C38.791 2.25242 38.4256 1.91039 37.9956 1.79898C37.6559 1.71328 37.2803 1.77638 36.9804 1.95792C36.7552 1.5855 36.3111 1.3471 35.8764 1.37358C35.6333 1.38917 35.3972 1.48656 35.2048 1.63848C35.0077 1.24971 34.5784 0.997276 34.1421 1.02221C33.7346 1.0448 33.3474 1.31281 33.1674 1.68601C33.0544 1.60031 32.8994 1.57693 32.7732 1.62757C32.6361 1.68133 32.5418 1.81456 32.5239 1.9587C32.252 1.85663 31.8897 1.75769 31.6123 2.09114C31.4721 2.26177 31.4207 2.4955 31.4596 2.71053C31.0475 2.73858 30.7358 2.99179 30.6431 3.37511C30.5777 3.64702 30.6486 3.9423 30.8114 4.16825C30.6416 4.39107 30.6439 4.72842 30.827 4.94346C30.8846 5.00812 30.9548 5.06188 31.0311 5.09616C31.1511 5.1507 31.2851 5.16706 31.4144 5.14369C31.4105 5.15771 31.4121 5.17174 31.4191 5.18576C31.4705 5.28549 31.5601 5.35483 31.6606 5.40001C31.7565 5.44364 31.8663 5.46702 31.9676 5.47637C31.9676 5.48182 31.9645 5.48805 31.9668 5.49429C32.0993 6.48765 32.0587 7.39375 31.8484 8.19234C31.7604 8.52502 31.6404 8.8538 31.4892 9.16934C31.4238 9.30724 31.349 9.44982 31.2664 9.59084C31.243 9.63057 31.2134 9.67186 31.1823 9.71783C31.1191 9.80509 31.0537 9.89625 31.0272 9.98974C30.915 10.3699 31.222 10.5741 31.4682 10.7385C31.4962 10.7572 31.5235 10.7774 31.55 10.7946C31.7082 10.9029 31.8803 10.9995 32.0673 11.0844C32.2574 11.1701 32.4647 11.2464 32.6883 11.3088C33.1191 11.4303 33.3139 11.1171 33.4237 10.8694C33.4861 10.7268 33.5274 10.578 33.5679 10.4307C33.5897 10.3536 33.6092 10.2757 33.6341 10.1978C33.8133 9.63525 34.1717 9.08364 34.6664 8.60137C35.1121 8.16819 35.6504 7.82849 36.1405 7.668C36.1623 7.66176 36.1756 7.64385 36.181 7.62593C36.2363 7.70072 36.3041 7.75993 36.382 7.79577C36.4147 7.81057 36.4521 7.82226 36.4872 7.83005C36.5285 7.83862 36.569 7.84096 36.6111 7.84174C36.6765 7.96873 36.7864 8.06846 36.9149 8.12689C37.0396 8.18377 37.1806 8.20247 37.3154 8.17208C37.5935 8.10897 37.8039 7.84719 37.807 7.56282C37.807 7.52854 37.7805 7.50049 37.7439 7.49971C37.7096 7.49971 37.6816 7.5262 37.6808 7.56282C37.6785 7.78798 37.5055 8.00068 37.2881 8.0521C37.0863 8.09729 36.8619 8.00068 36.749 7.82849C36.8409 7.80434 36.9336 7.76227 37.0201 7.69916C37.0482 7.67735 37.0552 7.63917 37.0341 7.61112C37.0123 7.5823 36.9734 7.57528 36.9453 7.5971C36.8082 7.6976 36.6493 7.74123 36.5145 7.71396C36.4062 7.69137 36.3212 7.62904 36.2605 7.52542C36.1724 7.37739 36.1631 7.17326 36.234 6.97693C36.2348 6.97459 36.2348 6.97459 36.2332 6.97148C36.2979 6.97459 36.3618 6.97225 36.4218 6.96758C36.4327 6.96758 36.4428 6.96135 36.4537 6.95589C36.5129 7.06185 36.5916 7.14989 36.6874 7.21689C36.689 7.21767 36.6913 7.21923 36.6937 7.22001C36.7108 7.2278 36.7326 7.22157 36.7427 7.20521C36.756 7.18729 36.7513 7.16236 36.7326 7.15067C36.5612 7.03069 36.4467 6.82656 36.4171 6.58971C36.414 6.5679 36.3945 6.55309 36.3734 6.55387C36.3509 6.55699 36.3368 6.57725 36.3376 6.59828C36.3477 6.68476 36.3696 6.76501 36.3999 6.84214C36.2519 6.85071 36.0844 6.84838 35.9543 6.77124C35.8413 6.70112 35.747 6.54297 35.8 6.38091C35.8024 6.37624 35.8024 6.37078 35.8016 6.36533C35.9247 6.33183 36.0299 6.26171 36.1163 6.15887C36.1841 6.07394 36.2293 5.97344 36.2465 5.86592C36.3937 5.90643 36.5558 5.87994 36.682 5.79269C36.8269 5.69296 36.9126 5.52233 36.9071 5.34859C36.9056 5.28782 36.8916 5.22627 36.8682 5.16784C36.9134 5.13901 36.9547 5.10473 36.9889 5.065C36.9967 5.06344 37.0022 5.06344 37.01 5.05877C37.1378 4.98553 37.2967 4.96605 37.4385 5.00657C37.5803 5.04708 37.7057 5.14603 37.7758 5.27536C37.793 5.3073 37.8312 5.31587 37.8615 5.30107C37.8927 5.28393 37.9021 5.24575 37.8873 5.21537C37.8 5.05487 37.6496 4.93411 37.472 4.88502C37.3512 4.85152 37.2219 4.85308 37.1011 4.88736C37.1331 4.81023 37.1471 4.72764 37.1463 4.64272C37.1401 4.43003 37.0232 4.22434 36.8401 4.10202C36.7334 4.02956 36.6025 3.98827 36.4677 3.97736C36.4334 3.64936 36.2239 3.35174 35.9286 3.22007C35.6419 3.09541 35.2835 3.14294 35.024 3.33772C34.9204 3.08061 34.689 2.87337 34.4148 2.81727C34.0735 2.74637 33.6957 2.91388 33.5196 3.21462C33.5017 3.24344 33.5118 3.28474 33.5406 3.30032C33.5429 3.3011 33.5453 3.30266 33.5476 3.30344C33.5757 3.31668 33.6115 3.30655 33.6279 3.27695C33.7775 3.0214 34.0977 2.87804 34.3883 2.93881C34.6789 2.99958 34.9173 3.25513 34.9539 3.55041C34.9555 3.55898 34.9578 3.56522 34.9609 3.56911C34.8822 3.57534 34.8028 3.59482 34.7272 3.62131C34.7085 3.62832 34.6976 3.65248 34.7046 3.67117C34.7085 3.68052 34.7155 3.68909 34.7256 3.69377C34.735 3.69766 34.7475 3.69844 34.7568 3.69455C34.9282 3.63066 35.1238 3.62754 35.2975 3.6852C35.3178 3.69221 35.3411 3.6813 35.3481 3.66105C35.3544 3.64001 35.3442 3.61742 35.3232 3.6104C35.2445 3.58236 35.1612 3.56833 35.077 3.56366C35.0817 3.55353 35.0832 3.5434 35.084 3.53093C35.0817 3.506 35.0739 3.48419 35.0684 3.46082C35.2936 3.27071 35.6216 3.22007 35.8826 3.33382C36.1343 3.44523 36.3142 3.69766 36.3462 3.97503C36.3072 3.97814 36.2714 3.98282 36.2332 3.99139C36.1981 3.99918 36.1779 4.03268 36.1857 4.06774C36.1935 4.1028 36.2262 4.12228 36.2613 4.11527C36.4397 4.07475 36.6306 4.1067 36.7731 4.20253C36.9227 4.30225 37.0185 4.4721 37.0232 4.64194C37.0271 4.80711 36.943 4.96839 36.8113 5.05565C36.7708 5.00033 36.7202 4.95125 36.6609 4.91385C36.6298 4.89437 36.5908 4.90528 36.5745 4.93489C36.5565 4.96371 36.5667 5.00501 36.5963 5.02137C36.7069 5.08993 36.7833 5.21615 36.7872 5.34704C36.7911 5.47715 36.7233 5.60959 36.6158 5.68439C36.5137 5.75295 36.3766 5.77009 36.2605 5.73036C36.2597 5.70387 36.2581 5.67971 36.2527 5.65089C36.2472 5.61661 36.213 5.59323 36.1787 5.59869C36.1444 5.60414 36.121 5.63842 36.1273 5.6727C36.1506 5.81216 36.1132 5.96331 36.0244 6.07238C35.9301 6.18769 35.807 6.25002 35.6606 6.25392C35.4712 6.26015 35.2601 6.16432 35.1136 6.00616C35.0661 5.95552 34.9921 5.9376 34.9266 5.96565C34.6843 6.06615 34.3945 6.04512 34.1732 5.90721C33.9551 5.77477 33.8078 5.53168 33.7829 5.27302C33.7798 5.23484 33.7564 5.19823 33.7206 5.18498C33.6863 5.16862 33.6442 5.17329 33.6123 5.19823C33.4401 5.32834 33.1962 5.35638 33.0077 5.26289C32.7934 5.16083 32.6579 4.91541 32.6836 4.67934C32.8737 4.72375 33.0825 4.70349 33.2609 4.61857C33.2913 4.60299 33.3061 4.56559 33.2905 4.53443C33.2757 4.50404 33.2375 4.49002 33.2072 4.50482C33.049 4.58039 32.8605 4.59675 32.6914 4.55157C32.5231 4.50716 32.3681 4.40276 32.2652 4.25862C32.2442 4.23057 32.2052 4.22356 32.1772 4.2446C32.1491 4.26641 32.1413 4.30459 32.1631 4.33264C32.2535 4.45807 32.3805 4.56014 32.5223 4.6248C32.5348 4.63026 32.548 4.63649 32.5621 4.64038C32.5605 4.64506 32.5589 4.64662 32.5597 4.65207C32.5395 4.80633 32.5784 4.96293 32.6579 5.09616L32.6563 5.0985C32.5543 5.23562 32.3914 5.32989 32.2239 5.35093C32.0206 5.37664 31.6583 5.34158 31.5484 5.13122C31.5461 5.12499 31.5414 5.12265 31.536 5.11798C31.5741 5.10395 31.6139 5.08526 31.6489 5.0611C31.6778 5.04318 31.6863 5.00189 31.6669 4.97462C31.6489 4.94579 31.6076 4.93722 31.5804 4.9567C31.3848 5.08603 31.0911 5.04474 30.9376 4.8671C30.8005 4.70739 30.7919 4.44872 30.9072 4.27498C30.9696 4.34043 31.0405 4.39886 31.1199 4.44249C31.1223 4.44405 31.1246 4.44483 31.1246 4.44483C31.155 4.45885 31.1885 4.44794 31.2048 4.41834C31.222 4.3864 31.2095 4.34978 31.1815 4.33108C30.8675 4.155 30.6953 3.75843 30.7771 3.40939C30.8589 3.0736 31.1363 2.85545 31.5032 2.84065C31.5219 2.89129 31.5422 2.93959 31.5718 2.98478C31.5773 2.99491 31.5874 3.00192 31.5983 3.00737C31.603 3.00893 31.6076 3.00893 31.6131 3.00893C31.5438 3.09308 31.4884 3.18579 31.4549 3.28863C31.4464 3.31902 31.4604 3.35174 31.4884 3.36498C31.4908 3.36576 31.4931 3.36654 31.4955 3.36732C31.5274 3.37745 31.5648 3.35953 31.5741 3.32759C31.6513 3.08139 31.8733 2.88739 32.1273 2.84298C32.1616 2.83753 32.185 2.80325 32.1795 2.76897C32.1741 2.73547 32.1398 2.71209 32.1055 2.71755C31.9481 2.74559 31.8024 2.82428 31.6848 2.93336C31.6817 2.92713 31.6809 2.91856 31.6754 2.9131C31.5329 2.69417 31.5508 2.3763 31.7159 2.17529C31.966 1.87377 32.2995 2.00622 32.5691 2.11296C32.5776 2.11685 32.5885 2.11685 32.5994 2.11607L32.601 2.11763C32.6049 2.11607 32.6057 2.11374 32.608 2.11452C32.6111 2.11374 32.6166 2.11374 32.6205 2.10984C32.6236 2.10906 32.6275 2.10595 32.6291 2.10361C32.633 2.09971 32.6361 2.09893 32.6376 2.09426C32.6423 2.09114 32.6431 2.08881 32.6454 2.08491C32.6462 2.08257 32.6493 2.08101 32.6478 2.0779C32.6493 2.07556 32.6493 2.07556 32.6501 2.074C32.6516 2.06933 32.6509 2.06621 32.6524 2.06154C32.6524 2.05608 32.654 2.05453 32.6532 2.04907C32.6548 2.04673 32.6548 2.04673 32.6532 2.04362C32.6345 1.92208 32.7093 1.79274 32.8238 1.74834C32.9103 1.71405 33.0163 1.73042 33.0965 1.79041C33.1144 1.80365 33.1363 1.81378 33.1588 1.81612C33.1113 1.84962 33.0693 1.89091 33.035 1.93844C33.0217 1.95558 33.0256 1.98129 33.0435 1.99453C33.0451 1.99531 33.0474 1.99687 33.0498 1.99765C33.0669 2.00544 33.0856 2.00077 33.0973 1.98518C33.1869 1.86286 33.338 1.78417 33.4923 1.78106C33.5141 1.78028 33.532 1.76236 33.5313 1.74054C33.5305 1.71951 33.5133 1.70081 33.4915 1.70159C33.4276 1.70393 33.3638 1.71717 33.3038 1.73977C33.4549 1.40631 33.7985 1.17102 34.1561 1.15232C34.555 1.1305 34.9469 1.36657 35.1136 1.72886C34.9921 1.8465 34.8955 1.98908 34.837 2.14646C34.8254 2.1784 34.8409 2.21424 34.869 2.22671C34.8713 2.22827 34.8713 2.22827 34.8737 2.22905C34.9072 2.24151 34.943 2.22671 34.9555 2.19243C35.0996 1.81144 35.486 1.52707 35.8912 1.5037C36.2831 1.47876 36.6789 1.69536 36.8783 2.03271C36.8386 2.06232 36.8012 2.0927 36.7646 2.1262C36.7396 2.15113 36.7381 2.19009 36.7638 2.21502C36.7872 2.23839 36.8277 2.24151 36.8526 2.2158C37.1432 1.94 37.5811 1.82625 37.9683 1.92286C38.3571 2.02102 38.6866 2.33111 38.8105 2.71287C38.8448 2.82818 38.8767 3.00036 38.8253 3.16086C38.7895 3.27383 38.7108 3.36654 38.6149 3.41485C38.6056 3.41874 38.597 3.42576 38.5916 3.43277C38.3913 3.3868 38.1802 3.38836 37.9815 3.43978C37.948 3.44835 37.927 3.48341 37.9356 3.51691C37.941 3.53483 37.9543 3.55119 37.9714 3.55898C37.9846 3.56522 38.0002 3.56677 38.015 3.56288C38.2075 3.51379 38.4147 3.51613 38.6056 3.56833C38.6157 3.57534 38.6266 3.5808 38.6383 3.58314C38.6625 3.58859 38.6882 3.5956 38.7108 3.60339C38.7606 3.62053 38.8089 3.64235 38.8557 3.6665C38.858 3.66728 38.858 3.66728 38.8604 3.66806C38.9913 3.74363 39.1019 3.85972 39.1634 3.99528C39.2725 4.23603 39.2367 4.5352 39.0715 4.74167C39.0668 4.74712 39.0637 4.75413 39.0637 4.75881C39.0045 4.74011 38.9437 4.72842 38.8798 4.72531C38.844 4.72219 38.8152 4.75102 38.8136 4.78452C38.8105 4.82036 38.8393 4.84919 38.8728 4.85074C39.0707 4.85931 39.2655 4.97462 39.3676 5.14369C39.472 5.31275 39.4852 5.5387 39.4042 5.71789C39.3208 5.9002 39.2351 6.01395 39.0396 6.0459C39.0255 6.04745 39.0138 6.05524 39.0037 6.06693C38.9235 5.95941 38.8206 5.8628 38.6905 5.79035C38.6601 5.77087 38.622 5.78567 38.6056 5.81528C38.5885 5.84644 38.6009 5.88384 38.6305 5.89942C39.0481 6.1316 39.1556 6.65282 39.0442 6.90993C38.9445 7.14054 38.7248 7.18573 38.4241 7.1756C38.4918 7.1086 38.5394 7.01433 38.5627 6.88811C38.5674 6.86707 38.5534 6.84448 38.5308 6.84214C38.509 6.83825 38.4895 6.85227 38.4848 6.87409C38.4357 7.1273 38.2963 7.23248 38.0555 7.1943C38.0345 7.18963 38.0143 7.20443 38.0096 7.22624C38.0072 7.24338 38.0174 7.2613 38.0329 7.26832C38.0353 7.26909 38.0392 7.27143 38.0423 7.26987C38.1405 7.28546 38.2246 7.27922 38.2971 7.25351C38.2963 7.2613 38.2971 7.26987 38.2994 7.27611C38.3812 7.5075 38.2753 7.64307 38.1973 7.6867C38.0945 7.74513 37.9566 7.73812 37.8444 7.72877C37.8093 7.72643 37.7813 7.75292 37.7782 7.78876C37.7758 7.81603 37.7922 7.8394 37.8156 7.85031C37.8226 7.85343 37.8296 7.8542 37.8374 7.85498C37.9652 7.86277 38.1241 7.87212 38.2612 7.79499C38.3968 7.71708 38.4989 7.53789 38.4396 7.29792C38.7295 7.30805 39.0255 7.26364 39.1572 6.95589ZM35.0131 6.08875C35.1838 6.27417 35.4299 6.38637 35.6567 6.37857C35.6621 6.37857 35.6652 6.37702 35.6707 6.37702C35.6325 6.56478 35.7229 6.74242 35.8483 6.84136C35.1783 7.0338 34.6329 7.35402 34.1943 7.81681C34.3298 7.21144 34.5753 6.631 34.9227 6.11368C34.9282 6.10822 34.9298 6.09887 34.9329 6.09186C34.9453 6.08719 34.957 6.08485 34.9695 6.08018C34.9843 6.07083 35.0007 6.0755 35.0131 6.08875ZM33.652 5.31353C33.6746 5.49507 33.7541 5.66725 33.8686 5.80905C33.7081 6.4222 33.4206 6.99796 33.0303 7.49348C32.8121 6.81098 32.7755 6.06381 32.929 5.36651C32.9337 5.36807 32.9368 5.37275 32.9407 5.3743C33.1635 5.47559 33.4463 5.45377 33.652 5.31353ZM32.2263 5.47325C32.4195 5.44754 32.5987 5.34781 32.721 5.199C32.7506 5.23251 32.7818 5.26289 32.816 5.29172C32.8145 5.29328 32.8137 5.29561 32.8129 5.29795C32.6376 6.05447 32.6813 6.87253 32.9329 7.60956C32.8885 7.66021 32.8456 7.71474 32.7997 7.76461C32.7747 7.79032 32.7771 7.83083 32.8036 7.85343C32.8098 7.8581 32.816 7.86122 32.8207 7.86355C32.8441 7.87446 32.8729 7.86901 32.8924 7.84875C32.9438 7.79343 32.9913 7.73578 33.0404 7.67968C33.0521 7.67111 33.0615 7.66254 33.0638 7.65086C33.4837 7.1421 33.7938 6.54686 33.9699 5.90955C34.0104 5.94695 34.0517 5.97889 34.0985 6.00772C34.132 6.02798 34.1655 6.04589 34.2005 6.06148C34.3727 6.14017 34.5714 6.16432 34.7591 6.13393C34.308 6.83825 34.0338 7.64385 33.9652 8.47204C33.9629 8.50008 33.9792 8.52346 34.0026 8.53437C34.0096 8.5367 34.0174 8.53748 34.0244 8.53826C34.0603 8.54138 34.0899 8.51567 34.093 8.48061C34.1039 8.33569 34.1249 8.19 34.1507 8.04664C34.1514 8.04431 34.1545 8.04353 34.1561 8.04119C34.6275 7.48257 35.2087 7.12886 35.9855 6.92707C35.9917 6.92473 35.9979 6.92239 36.0057 6.91772C36.0392 6.93096 36.0751 6.93875 36.1117 6.94499C36.0423 7.15534 36.0517 7.37272 36.1382 7.54022C36.1288 7.53867 36.1179 7.53944 36.1086 7.54256C35.5998 7.70851 35.0427 8.05989 34.5831 8.50554C34.072 9.00183 33.705 9.57292 33.5188 10.1565C33.4939 10.2344 33.4736 10.3138 33.451 10.3933C33.4128 10.5336 33.3723 10.6808 33.3123 10.814C33.162 11.1506 32.9929 11.2573 32.7264 11.1841C32.2956 11.0618 31.9356 10.9013 31.6256 10.6863C31.5967 10.6683 31.5695 10.6481 31.5406 10.6302C31.3287 10.4891 31.1269 10.3551 31.1347 10.13C31.6902 10.1907 32.3571 10.4985 32.7537 10.881C32.7592 10.8857 32.7646 10.8912 32.7716 10.8943C32.795 10.9052 32.8238 10.8997 32.8433 10.8795C32.8682 10.8538 32.8682 10.8148 32.8425 10.7899C32.428 10.3941 31.7385 10.0731 31.1589 10.0069C31.1838 9.93988 31.2368 9.86352 31.289 9.79029C31.3233 9.74276 31.3544 9.69679 31.3801 9.65316C31.4635 9.50981 31.5391 9.36567 31.6069 9.22232C31.7619 8.89899 31.885 8.56319 31.9762 8.2235C32.1896 7.41167 32.2309 6.48687 32.0969 5.48026C32.1429 5.4826 32.1889 5.48026 32.2263 5.47325Z" fill="#216D54"/>
</g>
</g>
</g>
<mask id="mask7_268_1922" style="mask-type:luminance" maskUnits="userSpaceOnUse" x="31" y="7" width="2" height="3">
<path d="M31.6379 7.61499H32.4357V9.21061H31.6379V7.61499Z" fill="white"/>
</mask>
<g mask="url(#mask7_268_1922)">
<mask id="mask8_268_1922" style="mask-type:luminance" maskUnits="userSpaceOnUse" x="27" y="-1" width="14" height="14">
<path d="M32.4582 -0.803268L40.903 3.03072L36.3896 12.9737L27.9441 9.14049L32.4582 -0.803268Z" fill="white"/>
</mask>
<g mask="url(#mask8_268_1922)">
<mask id="mask9_268_1922" style="mask-type:luminance" maskUnits="userSpaceOnUse" x="27" y="-1" width="14" height="14">
<path d="M32.4582 -0.803268L40.903 3.03072L36.3896 12.9737L27.9441 9.14049L32.4582 -0.803268Z" fill="white"/>
</mask>
<g mask="url(#mask9_268_1922)">
<path d="M31.803 9.08594C31.7937 9.10542 31.8015 9.12957 31.8209 9.13814C31.8404 9.14749 31.863 9.13892 31.8739 9.12023C32.0664 8.70808 32.1933 8.27256 32.2533 7.82145C32.2557 7.79886 32.2409 7.7786 32.2183 7.77626C32.1957 7.77393 32.1762 7.78873 32.1739 7.81132C32.1154 8.2523 31.9908 8.68237 31.803 9.08594Z" fill="#216D54"/>
</g>
</g>
</g>
<mask id="mask10_268_1922" style="mask-type:luminance" maskUnits="userSpaceOnUse" x="31" y="9" width="1" height="1">
<path d="M31.4387 9.21061H31.8376V9.60951H31.4387V9.21061Z" fill="white"/>
</mask>
<g mask="url(#mask10_268_1922)">
<mask id="mask11_268_1922" style="mask-type:luminance" maskUnits="userSpaceOnUse" x="27" y="-1" width="14" height="14">
<path d="M32.4585 -0.803267L40.9032 3.03072L36.3899 12.9737L27.9443 9.14049L32.4585 -0.803267Z" fill="white"/>
</mask>
<g mask="url(#mask11_268_1922)">
<mask id="mask12_268_1922" style="mask-type:luminance" maskUnits="userSpaceOnUse" x="27" y="-1" width="14" height="14">
<path d="M32.4585 -0.803267L40.9032 3.03072L36.3899 12.9737L27.9443 9.14049L32.4585 -0.803267Z" fill="white"/>
</mask>
<g mask="url(#mask12_268_1922)">
<path d="M31.7839 9.26593C31.7644 9.25736 31.7418 9.26749 31.7325 9.28775L31.632 9.5207C31.6234 9.54018 31.6335 9.56277 31.653 9.57212C31.6733 9.58069 31.6959 9.57056 31.7052 9.55108L31.8057 9.31813C31.8143 9.29865 31.8042 9.27528 31.7839 9.26593Z" fill="#216D54"/>
</g>
</g>
</g>
<mask id="mask13_268_1922" style="mask-type:luminance" maskUnits="userSpaceOnUse" x="33" y="7" width="2" height="2">
<path d="M33.6326 7.41555H34.0315V8.41281H33.6326V7.41555Z" fill="white"/>
</mask>
<g mask="url(#mask13_268_1922)">
<mask id="mask14_268_1922" style="mask-type:luminance" maskUnits="userSpaceOnUse" x="27" y="-1" width="14" height="14">
<path d="M32.4585 -0.803259L40.9032 3.03073L36.3899 12.9737L27.9443 9.1405L32.4585 -0.803259Z" fill="white"/>
</mask>
<g mask="url(#mask14_268_1922)">
<mask id="mask15_268_1922" style="mask-type:luminance" maskUnits="userSpaceOnUse" x="27" y="-1" width="14" height="14">
<path d="M32.4585 -0.803259L40.9032 3.03073L36.3899 12.9737L27.9443 9.1405L32.4585 -0.803259Z" fill="white"/>
</mask>
<g mask="url(#mask15_268_1922)">
<path d="M33.7861 8.34659C33.7908 8.34814 33.7947 8.35048 33.7978 8.34892C33.8204 8.35126 33.8383 8.33568 33.8406 8.31308C33.8671 8.04118 33.9216 7.76927 34.0035 7.50905C34.0097 7.48879 33.998 7.46775 33.9777 7.46074C33.9575 7.45451 33.9365 7.46541 33.9294 7.48645C33.8453 7.75291 33.7915 8.02793 33.7635 8.30451C33.7596 8.32399 33.7705 8.33957 33.7861 8.34659Z" fill="#216D54"/>
</g>
</g>
</g>
<mask id="mask16_268_1922" style="mask-type:luminance" maskUnits="userSpaceOnUse" x="30" y="3" width="2" height="2">
<path d="M30.8403 3.22706H31.2392V4.22432H30.8403V3.22706Z" fill="white"/>
</mask>
<g mask="url(#mask16_268_1922)">
<mask id="mask17_268_1922" style="mask-type:luminance" maskUnits="userSpaceOnUse" x="27" y="-1" width="14" height="14">
<path d="M32.4585 -0.803276L40.9032 3.03071L36.3899 12.9737L27.9443 9.14048L32.4585 -0.803276Z" fill="white"/>
</mask>
<g mask="url(#mask17_268_1922)">
<mask id="mask18_268_1922" style="mask-type:luminance" maskUnits="userSpaceOnUse" x="27" y="-1" width="14" height="14">
<path d="M32.4585 -0.803276L40.9032 3.03071L36.3899 12.9737L27.9443 9.14048L32.4585 -0.803276Z" fill="white"/>
</mask>
<g mask="url(#mask18_268_1922)">
<path d="M30.9853 3.4491C30.9923 3.42806 30.9814 3.40547 30.9611 3.39845C30.9401 3.39144 30.9175 3.40235 30.9105 3.42261C30.8349 3.64076 30.9144 3.9002 31.0975 4.04122C31.0998 4.042 31.1022 4.04278 31.1061 4.04511C31.124 4.05291 31.1419 4.04823 31.1544 4.03265C31.1676 4.01473 31.1653 3.99058 31.1474 3.97733C30.9892 3.85813 30.9214 3.6353 30.9853 3.4491Z" fill="#216D54"/>
</g>
</g>
</g>
<mask id="mask19_268_1922" style="mask-type:luminance" maskUnits="userSpaceOnUse" x="35" y="1" width="2" height="2">
<path d="M35.0288 1.63145H36.2255V2.2298H35.0288V1.63145Z" fill="white"/>
</mask>
<g mask="url(#mask19_268_1922)">
<mask id="mask20_268_1922" style="mask-type:luminance" maskUnits="userSpaceOnUse" x="27" y="-1" width="14" height="14">
<path d="M32.4585 -0.803278L40.9032 3.03071L36.3899 12.9737L27.9443 9.14048L32.4585 -0.803278Z" fill="white"/>
</mask>
<g mask="url(#mask20_268_1922)">
<mask id="mask21_268_1922" style="mask-type:luminance" maskUnits="userSpaceOnUse" x="27" y="-1" width="14" height="14">
<path d="M32.4585 -0.803278L40.9032 3.03071L36.3899 12.9737L27.9443 9.14048L32.4585 -0.803278Z" fill="white"/>
</mask>
<g mask="url(#mask21_268_1922)">
<path d="M35.2166 2.12148C35.2337 2.13005 35.2571 2.1246 35.2665 2.10512C35.4075 1.85659 35.7152 1.71245 35.9965 1.76387C36.0183 1.76855 36.0378 1.75374 36.0424 1.73193C36.0471 1.71089 36.0323 1.69063 36.0105 1.68596C35.6981 1.62831 35.3537 1.79036 35.1963 2.06772C35.1854 2.08642 35.1924 2.11057 35.2111 2.12226C35.2143 2.1207 35.2143 2.1207 35.2166 2.12148Z" fill="#216D54"/>
</g>
</g>
</g>
<mask id="mask22_268_1922" style="mask-type:luminance" maskUnits="userSpaceOnUse" x="34" y="2" width="2" height="1">
<path d="M34.8293 2.03036H35.2282V2.62871H34.8293V2.03036Z" fill="white"/>
</mask>
<g mask="url(#mask22_268_1922)">
<mask id="mask23_268_1922" style="mask-type:luminance" maskUnits="userSpaceOnUse" x="27" y="-1" width="14" height="14">
<path d="M32.4585 -0.803259L40.9032 3.03073L36.3899 12.9737L27.9443 9.1405L32.4585 -0.803259Z" fill="white"/>
</mask>
<g mask="url(#mask23_268_1922)">
<mask id="mask24_268_1922" style="mask-type:luminance" maskUnits="userSpaceOnUse" x="27" y="-1" width="14" height="14">
<path d="M32.4585 -0.803259L40.9032 3.03073L36.3899 12.9737L27.9443 9.1405L32.4585 -0.803259Z" fill="white"/>
</mask>
<g mask="url(#mask24_268_1922)">
<path d="M35.0917 2.22825C35.0723 2.21968 35.0481 2.22669 35.038 2.24851L34.9686 2.40121C34.9601 2.42069 34.9671 2.44484 34.9889 2.45497C35.0084 2.46354 35.0325 2.45653 35.0427 2.43471L35.112 2.28201C35.1221 2.26019 35.1112 2.23682 35.0917 2.22825Z" fill="#216D54"/>
</g>
</g>
</g>
<mask id="mask25_268_1922" style="mask-type:luminance" maskUnits="userSpaceOnUse" x="38" y="2" width="1" height="2">
<path d="M38.22 2.2298H38.8183V3.02761H38.22V2.2298Z" fill="white"/>
</mask>
<g mask="url(#mask25_268_1922)">
<mask id="mask26_268_1922" style="mask-type:luminance" maskUnits="userSpaceOnUse" x="27" y="-1" width="14" height="14">
<path d="M32.4585 -0.803268L40.9032 3.03072L36.3899 12.9737L27.9443 9.14049L32.4585 -0.803268Z" fill="white"/>
</mask>
<g mask="url(#mask26_268_1922)">
<mask id="mask27_268_1922" style="mask-type:luminance" maskUnits="userSpaceOnUse" x="27" y="-1" width="14" height="14">
<path d="M32.4585 -0.803268L40.9032 3.03072L36.3899 12.9737L27.9443 9.14049L32.4585 -0.803268Z" fill="white"/>
</mask>
<g mask="url(#mask27_268_1922)">
<path d="M38.5424 2.93255C38.5417 2.95125 38.551 2.96528 38.5643 2.97151C38.5689 2.97385 38.5728 2.97541 38.5783 2.97541C38.6009 2.97774 38.6196 2.95982 38.6211 2.93957C38.6328 2.72687 38.5167 2.51417 38.3336 2.40977C38.3157 2.39653 38.29 2.40588 38.2791 2.42458C38.2682 2.44328 38.2752 2.46743 38.2939 2.47833C38.4536 2.56637 38.5518 2.75024 38.5424 2.93255Z" fill="#216D54"/>
</g>
</g>
</g>
<mask id="mask28_268_1922" style="mask-type:luminance" maskUnits="userSpaceOnUse" x="33" y="3" width="2" height="1">
<path d="M33.6326 3.02762H34.2309V3.62597H33.6326V3.02762Z" fill="white"/>
</mask>
<g mask="url(#mask28_268_1922)">
<mask id="mask29_268_1922" style="mask-type:luminance" maskUnits="userSpaceOnUse" x="27" y="-1" width="14" height="14">
<path d="M32.4585 -0.803251L40.9032 3.03074L36.3899 12.9737L27.9443 9.1405L32.4585 -0.803251Z" fill="white"/>
</mask>
<g mask="url(#mask29_268_1922)">
<mask id="mask30_268_1922" style="mask-type:luminance" maskUnits="userSpaceOnUse" x="27" y="-1" width="14" height="14">
<path d="M32.4585 -0.803251L40.9032 3.03074L36.3899 12.9737L27.9443 9.1405L32.4585 -0.803251Z" fill="white"/>
</mask>
<g mask="url(#mask30_268_1922)">
<path d="M33.6956 3.46315C33.7151 3.47172 33.7384 3.46082 33.7478 3.44134C33.8164 3.28396 33.9932 3.17722 34.1685 3.19125C34.1911 3.19358 34.2098 3.17566 34.2114 3.15541C34.2121 3.13515 34.1958 3.11411 34.1755 3.11256C33.9698 3.09619 33.7603 3.22163 33.6777 3.41017C33.6691 3.42965 33.6761 3.4538 33.6956 3.46315Z" fill="#216D54"/>
</g>
</g>
</g>
<mask id="mask31_268_1922" style="mask-type:luminance" maskUnits="userSpaceOnUse" x="35" y="5" width="2" height="2">
<path d="M35.2283 5.81994H36.0261V6.21884H35.2283V5.81994Z" fill="white"/>
</mask>
<g mask="url(#mask31_268_1922)">
<mask id="mask32_268_1922" style="mask-type:luminance" maskUnits="userSpaceOnUse" x="27" y="-1" width="14" height="14">
<path d="M32.4585 -0.803267L40.9032 3.03072L36.3899 12.9737L27.9443 9.14049L32.4585 -0.803267Z" fill="white"/>
</mask>
<g mask="url(#mask32_268_1922)">
<mask id="mask33_268_1922" style="mask-type:luminance" maskUnits="userSpaceOnUse" x="27" y="-1" width="14" height="14">
<path d="M32.4585 -0.803267L40.9032 3.03072L36.3899 12.9737L27.9443 9.14049L32.4585 -0.803267Z" fill="white"/>
</mask>
<g mask="url(#mask33_268_1922)">
<path d="M35.4371 6.11599C35.5766 6.17909 35.7534 6.15962 35.8726 6.05911C35.8898 6.04509 35.8905 6.01938 35.8773 6.00302C35.8641 5.98665 35.8391 5.98276 35.8212 5.99912C35.7106 6.09261 35.5314 6.09885 35.4161 6.01159C35.3981 5.99834 35.3732 6.00302 35.36 6.02016C35.3467 6.03808 35.3506 6.06379 35.3678 6.07703C35.3904 6.09183 35.4129 6.10508 35.4371 6.11599Z" fill="#216D54"/>
</g>
</g>
</g>
<mask id="mask34_268_1922" style="mask-type:luminance" maskUnits="userSpaceOnUse" x="34" y="5" width="1" height="2">
<path d="M34.4304 5.62049H34.8293V6.0194H34.4304V5.62049Z" fill="white"/>
</mask>
<g mask="url(#mask34_268_1922)">
<mask id="mask35_268_1922" style="mask-type:luminance" maskUnits="userSpaceOnUse" x="27" y="-1" width="14" height="14">
<path d="M32.4585 -0.803257L40.9032 3.03073L36.3899 12.9737L27.9443 9.1405L32.4585 -0.803257Z" fill="white"/>
</mask>
<g mask="url(#mask35_268_1922)">
<mask id="mask36_268_1922" style="mask-type:luminance" maskUnits="userSpaceOnUse" x="27" y="-1" width="14" height="14">
<path d="M32.4585 -0.803257L40.9032 3.03073L36.3899 12.9737L27.9443 9.1405L32.4585 -0.803257Z" fill="white"/>
</mask>
<g mask="url(#mask36_268_1922)">
<path d="M34.485 5.92044C34.4897 5.92278 34.492 5.92356 34.4975 5.92356C34.5723 5.93135 34.6478 5.92044 34.7187 5.89239C34.739 5.88304 34.7483 5.86123 34.7413 5.84253C34.732 5.82227 34.7102 5.81215 34.6915 5.81994C34.633 5.84331 34.5692 5.8511 34.5068 5.84331C34.4842 5.84097 34.4671 5.85656 34.4648 5.87915C34.4609 5.89863 34.4702 5.91343 34.485 5.92044Z" fill="#216D54"/>
</g>
</g>
</g>
<mask id="mask37_268_1922" style="mask-type:luminance" maskUnits="userSpaceOnUse" x="38" y="4" width="2" height="1">
<path d="M38.8184 4.02488H39.2173V4.62323H38.8184V4.02488Z" fill="white"/>
</mask>
<g mask="url(#mask37_268_1922)">
<mask id="mask38_268_1922" style="mask-type:luminance" maskUnits="userSpaceOnUse" x="27" y="-1" width="14" height="14">
<path d="M32.4585 -0.803244L40.9032 3.03075L36.3899 12.9737L27.9443 9.14051L32.4585 -0.803244Z" fill="white"/>
</mask>
<g mask="url(#mask38_268_1922)">
<mask id="mask39_268_1922" style="mask-type:luminance" maskUnits="userSpaceOnUse" x="27" y="-1" width="14" height="14">
<path d="M32.4585 -0.803244L40.9032 3.03075L36.3899 12.9737L27.9443 9.14051L32.4585 -0.803244Z" fill="white"/>
</mask>
<g mask="url(#mask39_268_1922)">
<path d="M38.9532 4.54612C38.9579 4.54768 38.9587 4.5508 38.9634 4.55313C38.9782 4.56015 38.9984 4.55625 39.0101 4.54301C39.1036 4.43549 39.1285 4.27032 39.0662 4.14021C39.0576 4.11995 39.0343 4.11216 39.0148 4.12151C38.9945 4.13086 38.9867 4.15423 38.9961 4.17371C39.0436 4.27733 39.0241 4.40744 38.9494 4.49158C38.9345 4.50561 38.9353 4.53288 38.9532 4.54612Z" fill="#216D54"/>
</g>
</g>
</g>
<mask id="mask40_268_1922" style="mask-type:luminance" maskUnits="userSpaceOnUse" x="16" y="8" width="14" height="22">
<path d="M16.7268 8.30996H29.1427V29.8507H16.7268V8.30996Z" fill="white"/>
</mask>
<g mask="url(#mask40_268_1922)">
<path d="M16.9092 28.2053C16.9115 28.2053 16.9138 28.2053 16.9162 28.206C16.9146 28.2302 16.9255 28.2567 16.9505 28.2652C17.4257 28.4343 17.8285 28.7179 18.2609 28.9727C18.4869 29.1059 18.7237 29.208 18.9543 29.3295C19.0805 29.3965 19.2013 29.4729 19.3252 29.5438C19.3696 29.5687 19.7358 29.7448 19.7428 29.7697C19.7552 29.8102 19.7521 29.818 19.7864 29.8476C20.01 29.8554 20.5414 29.5928 20.7938 29.5196C21.2504 29.3864 21.7046 29.243 22.158 29.1012C23.0166 28.8332 23.9211 28.5559 24.7704 28.3642C25.5814 28.1811 26.3979 28.0058 27.202 27.7931C27.6227 27.6809 28.0348 27.5438 28.4571 27.4394C28.5646 27.4129 28.6714 27.3872 28.7781 27.3646C28.8451 27.3786 28.9409 27.3662 28.9869 27.3599C29.0344 27.3529 29.11 27.3412 29.1427 27.2999C29.1482 27.2968 29.1528 27.2921 29.1528 27.2844V27.2836C29.156 27.2773 29.1575 27.2703 29.1583 27.2625C29.1637 27.2625 29.1692 27.261 29.1747 27.2602C29.1926 27.2594 29.1949 27.229 29.1762 27.2283C29.1684 27.2259 29.1606 27.2251 29.1528 27.2267C29.1521 27.2127 29.1521 27.1987 29.1513 27.1846C29.1513 27.1838 29.1513 27.1815 29.1513 27.18C29.1513 27.1768 29.1505 27.1745 29.1505 27.1714C29.1458 27.1005 29.1373 27.0288 29.1271 26.9579C29.1388 26.813 29.1388 26.6665 29.1404 26.5208C29.1489 25.9225 29.1793 25.3233 29.1373 24.7258C29.1162 24.4313 29.0882 24.1368 29.0726 23.8423C29.0578 23.5657 29.0648 23.2883 29.0461 23.0125C29.0079 22.4469 28.9986 21.8851 28.9168 21.3234C28.8319 20.7398 28.817 20.1399 28.7703 19.5517C28.7454 19.2385 28.7134 18.9308 28.6682 18.6199C28.6238 18.3168 28.5685 18.0161 28.5646 17.7091C28.5568 17.1115 28.4407 16.5327 28.3418 15.9452C28.2491 15.3944 28.1649 14.842 28.0909 14.2881C28.0185 13.7458 27.946 13.195 27.745 12.6831C27.7349 12.6574 27.706 12.6605 27.6944 12.6776C27.6889 12.6659 27.6788 12.6574 27.6624 12.6566C27.2775 12.6441 26.8755 12.6543 26.493 12.6067C26.1315 12.5623 25.77 12.4922 25.4038 12.5156C25.1521 12.5319 24.902 12.5647 24.6519 12.5919C24.5842 12.4868 24.5 12.26 24.5023 12.2717C24.4681 12.1284 24.419 11.9873 24.3878 11.8432C24.3317 11.583 24.2351 11.3306 24.1977 11.0657C24.1658 10.8374 24.1556 10.5764 24.0847 10.3567C24.0193 10.1557 23.9585 9.95309 23.8939 9.75208C23.7684 9.36331 23.6936 8.90831 23.3781 8.61692C23.0696 8.33255 22.6465 8.31151 22.2484 8.34579C22.0489 8.36371 21.8401 8.36216 21.6454 8.40968C21.4358 8.46032 21.2729 8.59043 21.0758 8.6699C21.0618 8.67536 21.0493 8.68237 21.0377 8.69094C20.8694 8.726 20.7058 8.77275 20.5616 8.88338C20.2461 9.12802 20.2733 9.5838 20.3427 9.9344C20.4331 10.398 20.6349 10.846 20.6676 11.3204C20.6956 11.7334 20.7813 12.1362 20.786 12.5514C20.7447 12.5514 20.7026 12.5514 20.6613 12.5522C20.5647 12.5545 20.4736 12.5787 20.3809 12.5989C20.0708 12.5787 19.7584 12.5896 19.4483 12.5639C19.2153 12.5444 18.9761 12.4533 18.7377 12.4829C18.5585 12.5055 18.5694 12.6706 18.5866 12.8163C18.6575 13.4201 18.4876 14.0356 18.4012 14.6301C18.2734 15.5159 18.1339 16.4049 17.975 17.2876C17.9259 17.5595 17.9345 17.8346 17.8823 18.1065C17.8379 18.3324 17.781 18.5583 17.767 18.7897C17.735 19.3203 17.6587 19.8478 17.5808 20.3729C17.4958 20.9401 17.3665 21.5042 17.3151 22.076C17.2629 22.6549 17.1818 23.2314 17.1172 23.8095C17.0549 24.3689 16.9466 24.9268 16.9014 25.4877C16.8445 26.2053 16.7487 26.9618 16.7627 27.6607C16.765 27.7877 16.7292 28.1647 16.9092 28.2053ZM19.1717 12.6745C19.1655 12.6808 19.1584 12.687 19.1538 12.694C19.1234 12.6956 19.093 12.7174 19.0922 12.7555C19.0914 12.7875 19.0907 12.8194 19.0891 12.8506C19.0034 12.8 18.9395 12.7018 18.86 12.6371C18.9021 12.641 18.945 12.6488 18.966 12.6504C19.0353 12.6566 19.1039 12.6659 19.1717 12.6745ZM20.8678 8.96908C20.8818 8.96363 20.8959 8.95895 20.9107 8.95428C20.9029 9.00959 20.9005 9.06335 20.9005 9.10776C20.9013 9.33059 20.8686 9.58068 20.9013 9.79961C20.9784 10.3014 21.167 10.7883 21.1966 11.2978C21.2192 11.6773 21.4108 12.1619 21.2628 12.5382C21.2488 12.5428 21.2363 12.5514 21.227 12.5639C21.1545 12.56 21.0813 12.5577 21.008 12.5553C21.008 12.5475 21.008 12.539 21.008 12.5312C21.008 12.5304 21.008 12.5288 21.008 12.528C21.008 12.5257 21.008 12.5234 21.008 12.521C21.008 12.5195 21.008 12.5187 21.008 12.5171C21.0065 12.0956 20.9465 11.6664 20.8896 11.2495C20.832 10.8234 20.6871 10.4268 20.5943 10.0092C20.5133 9.64301 20.4307 9.13114 20.8678 8.96908ZM21.4701 11.7162C21.4295 11.2752 21.3532 10.8132 21.2418 10.3855C21.1818 10.1564 21.1109 9.91492 21.1109 9.67729C21.1109 9.54017 21.1117 9.40382 21.1117 9.26748C21.1117 9.17321 21.0969 9.06335 21.1195 8.9722C21.1273 8.94181 21.1436 8.91454 21.1646 8.88961C21.2075 8.88104 21.2511 8.87325 21.2948 8.86546C21.4514 8.83897 21.636 8.74314 21.7949 8.7743C22.01 8.81715 22.2001 8.8343 22.3847 8.9683C22.5678 9.10075 22.6894 9.25579 22.8062 9.44901C23.0298 9.81753 23.1366 10.2616 23.2573 10.6722C23.3243 10.9013 23.3711 11.1405 23.4474 11.3664C23.4981 11.5183 23.5791 11.6625 23.6259 11.8152C23.6967 12.0419 23.8027 12.2499 23.8954 12.4673C23.9188 12.5226 23.9461 12.5865 23.9889 12.6324C23.6297 12.6379 23.2698 12.6309 22.9114 12.6309C22.5226 12.6309 22.137 12.6091 21.749 12.5912C21.6594 12.5865 21.5698 12.5818 21.4786 12.5771C21.5706 12.3169 21.4911 11.9523 21.4701 11.7162ZM24.4595 12.6106C24.3473 12.62 24.2351 12.627 24.1221 12.6309C24.119 12.627 24.1159 12.6239 24.1112 12.6208C24.0279 12.5732 24.0185 12.3707 23.9944 12.2904C23.9663 12.1946 23.9445 12.0956 23.911 12.0014C23.8619 11.865 23.8237 11.7295 23.7684 11.5962C23.7154 11.47 23.6562 11.3368 23.6305 11.2012C23.5386 10.7205 23.3789 10.218 23.209 9.75988C23.0641 9.37188 22.8351 8.99557 22.4852 8.76573C22.3497 8.67692 22.1939 8.61147 22.031 8.57719C22.0902 8.57407 22.1487 8.57018 22.2071 8.5655C22.6403 8.52811 23.1194 8.53278 23.3687 8.9535C23.6227 9.38123 23.7045 9.91881 23.8604 10.3863C23.9375 10.6169 23.9414 10.8795 23.985 11.1179C24.0302 11.3672 24.1151 11.6048 24.1712 11.8518C24.2024 11.9936 24.2523 12.1276 24.2897 12.2678C24.3115 12.3473 24.3294 12.4353 24.3777 12.5047C24.4003 12.5366 24.4276 12.574 24.4595 12.6106ZM19.7233 25.0912C19.6968 24.2793 19.6766 23.4667 19.6462 22.6596C19.6236 22.0612 19.6275 21.4613 19.601 20.8629C19.5745 20.2677 19.541 19.6732 19.5153 19.078C19.4467 17.4738 19.4545 15.8673 19.3174 14.2662C19.28 13.8221 19.2325 13.3835 19.2153 12.9394C19.2223 12.9379 19.2286 12.9363 19.2356 12.934C19.2597 12.9254 19.2527 12.8989 19.2356 12.8888C19.2535 12.8872 19.2706 12.881 19.2839 12.8693C19.2956 12.8693 19.3127 12.8677 19.3376 12.8631C19.3828 12.8631 19.428 12.8631 19.4732 12.8631C19.5605 12.8631 19.6477 12.8631 19.7342 12.8638C19.8807 12.8638 20.0279 12.867 20.1744 12.8623C20.324 12.8561 20.4611 12.8 20.6076 12.7898C20.7782 12.7781 20.9449 12.8054 21.1148 12.8085C21.8308 12.8225 22.5444 12.8631 23.2612 12.8623C23.6438 12.8623 24.0279 12.8701 24.4096 12.8358C24.7571 12.8046 25.1077 12.7298 25.456 12.7205C25.8222 12.7111 26.1759 12.7789 26.5389 12.7992C26.9207 12.8194 27.2869 12.7439 27.664 12.7283C27.678 12.7275 27.6873 12.7205 27.6928 12.7119C27.7341 12.9059 27.7715 13.1015 27.805 13.2978C27.9055 13.886 27.9522 14.4813 28.0442 15.0711C28.1307 15.6266 28.2164 16.1821 28.3083 16.7368C28.3574 17.0375 28.3909 17.3336 28.394 17.639C28.3963 17.9101 28.4283 18.1665 28.4657 18.4345C28.5483 19.0219 28.595 19.6078 28.641 20.1984C28.6643 20.5046 28.6877 20.8115 28.7111 21.1177C28.7321 21.3904 28.7906 21.6592 28.8108 21.9319C28.8537 22.5037 28.8638 23.0795 28.8872 23.6529C28.9105 24.2256 28.9869 24.7959 28.9962 25.3701C29.0017 25.6841 29.0064 25.9973 29.0126 26.3112C29.0173 26.5465 29.0118 26.7849 29.036 27.0195C29.0352 27.081 29.0516 27.1441 29.0383 27.2049C29.036 27.2072 29.0336 27.208 29.0313 27.2096C28.9931 27.2127 28.9557 27.2158 28.9176 27.2212C28.9105 27.2228 28.9051 27.2267 28.902 27.2314C28.8809 27.2314 28.8576 27.2314 28.8319 27.2376C28.7391 27.2594 28.6464 27.2805 28.5529 27.3007C28.3644 27.3428 28.1751 27.3732 27.9896 27.4285C27.5868 27.5477 27.1778 27.642 26.7672 27.7331C25.9959 27.9037 25.2254 28.0767 24.4533 28.2466C23.6742 28.4172 22.895 28.661 22.137 28.9111C21.382 29.1612 20.5967 29.3256 19.8682 29.6521C19.8939 29.0405 19.9033 28.4343 19.8581 27.8219C19.7903 26.9174 19.7529 26.0043 19.7233 25.0912ZM17.1242 25.3974C17.2216 24.5458 17.3299 23.6934 17.4397 22.8434C17.4771 22.5521 17.506 22.2599 17.5356 21.9669C17.5621 21.7122 17.6236 21.4668 17.661 21.2143C17.7374 20.6954 17.8044 20.175 17.8854 19.6577C17.9243 19.4076 17.9594 19.1466 17.9649 18.8926C17.9695 18.6331 18.0358 18.3815 18.0794 18.1267C18.1246 17.8626 18.1121 17.5938 18.162 17.3305C18.2134 17.0625 18.271 16.796 18.3178 16.5272C18.3591 16.2904 18.4432 16.0364 18.444 15.7972C18.444 15.5923 18.4689 15.3905 18.5118 15.191C18.5687 14.9332 18.557 14.6675 18.6131 14.4065C18.6411 14.2787 18.6474 14.1743 18.6551 14.0434C18.6629 13.918 18.6949 13.7988 18.7081 13.6749C18.7362 13.4232 18.7689 13.1887 18.7588 12.9332C18.7556 12.8584 18.7354 12.7828 18.7346 12.7072C18.8499 12.7852 18.9535 12.9106 19.0837 12.9418C19.0704 13.1552 19.0494 13.3695 19.0759 13.5814C19.1094 13.8541 19.1429 14.1276 19.1592 14.401C19.1764 14.7049 19.174 15.0087 19.1717 15.3126C19.1639 16.6791 19.2457 18.055 19.3119 19.4224C19.3408 20.0192 19.3743 20.616 19.3961 21.2128C19.4187 21.8111 19.407 22.4118 19.4491 23.0094C19.4888 23.561 19.4358 24.1173 19.4779 24.6665C19.52 25.2026 19.5846 25.7316 19.5862 26.2692C19.5885 26.8613 19.6244 27.4448 19.6688 28.0346C19.7101 28.5917 19.7225 29.1495 19.742 29.7074C19.7389 29.6941 19.7342 29.6809 19.728 29.6676L19.7147 29.624C19.7132 29.6115 19.7015 29.6069 19.6906 29.6092C19.5862 29.476 19.3688 29.3731 19.2613 29.3007C18.9941 29.1199 18.6949 28.9953 18.4199 28.8278C18.1861 28.686 17.9578 28.5356 17.7241 28.3946C17.5122 28.2684 17.3065 28.1328 17.0494 28.1414C17.0471 27.991 17.0455 27.8406 17.0432 27.691C17.0338 26.9267 17.0354 26.171 17.1242 25.3974Z" fill="#216D54"/>
</g>
<path d="M17.3561 27.1675C17.3569 27.1613 17.3577 27.1543 17.3585 27.148C17.3662 26.7195 17.4114 26.291 17.4566 25.8664C17.4893 25.5602 17.5649 25.268 17.5641 24.9579C17.5641 24.8746 17.5712 24.7912 17.5828 24.7086C17.5899 24.5209 17.6296 24.3432 17.6374 24.1555C17.6389 24.1266 17.6405 24.097 17.6421 24.0674C17.6405 24.0144 17.6382 23.9599 17.6366 23.9046C17.6343 23.7908 17.6724 23.6779 17.6732 23.5618C17.6732 23.4067 17.7091 23.2618 17.7098 23.1076C17.7106 22.9517 17.7589 22.7975 17.7644 22.6417C17.7683 22.5014 17.7729 22.3736 17.7994 22.2396C17.7994 22.2295 17.7994 22.2202 17.8002 22.21C17.8064 22.1056 17.8368 22.0051 17.8509 21.9015C17.8547 21.8329 17.8555 21.7644 17.8555 21.6943C17.8563 21.5704 17.8875 21.4527 17.9031 21.3304C17.9031 21.3281 17.9031 21.325 17.9038 21.3226C17.9069 21.2946 17.9101 21.2665 17.9108 21.2377C17.9397 20.4072 18.1002 19.4909 18.2015 18.6464C18.2716 18.0683 18.2981 17.4964 18.4188 16.9238C18.4819 16.6199 18.5731 16.3208 18.6105 16.0122C18.6401 15.7699 18.6876 15.5378 18.7351 15.3025C18.7492 15.1264 18.7686 14.9511 18.8138 14.7789C18.8146 14.7734 18.8146 14.768 18.8154 14.7633C18.8247 14.6862 18.8676 14.6161 18.8801 14.5389C18.8832 14.5179 18.9159 14.5234 18.9159 14.5436C18.9159 14.6005 18.9065 14.6503 18.8933 14.7041C18.8956 14.708 18.8972 14.7119 18.898 14.7174C18.926 15.1607 18.7601 15.6398 18.6946 16.0769C18.6159 16.5981 18.5598 17.1232 18.4539 17.6406C18.4001 17.9055 18.397 18.1735 18.3643 18.4407C18.3401 18.6464 18.3097 18.8536 18.2778 19.0601C18.1835 20.2677 17.9311 21.4925 17.8929 22.6985C17.8883 22.8559 17.8415 23.0086 17.8415 23.1668C17.8407 23.3156 17.8181 23.4652 17.7994 23.6155C17.7909 23.7573 17.7831 23.9007 17.7745 24.0425C17.7885 24.3082 17.7301 24.5598 17.7059 24.8193C17.7075 24.8668 17.7098 24.9135 17.7098 24.9603C17.7098 25.2369 17.66 25.5228 17.6234 25.7978C17.5758 26.1523 17.5236 26.5177 17.487 26.8831C17.4761 27.173 17.4714 27.462 17.4481 27.751C17.4473 27.762 17.4426 27.7705 17.4371 27.776C17.4294 27.8516 17.3086 27.8586 17.3086 27.7783C17.3086 27.5672 17.3211 27.3755 17.3561 27.1675Z" fill="#216D54"/>
<path d="M24.577 13.1521C24.7165 13.1311 24.859 13.1739 25 13.1662C25.0335 13.1638 25.0382 13.2098 25.0133 13.2246C24.8917 13.2963 24.718 13.3344 24.5785 13.315C24.4967 13.3041 24.4944 13.1638 24.577 13.1521Z" fill="#216D54"/>
<path d="M21.1217 13.2036C21.1723 13.1599 21.2199 13.1506 21.2869 13.1529C21.3843 13.156 21.4762 13.1514 21.572 13.1311C21.6569 13.1132 21.6858 13.2417 21.6016 13.2628C21.5105 13.2854 21.4178 13.2986 21.3243 13.308C21.2456 13.3165 21.1832 13.3165 21.1217 13.2635C21.1053 13.2487 21.1046 13.2184 21.1217 13.2036Z" fill="#216D54"/>
<path d="M17.7543 28.157C17.9218 28.224 18.0807 28.3136 18.2475 28.3845C18.3285 28.4187 18.4033 28.453 18.4734 28.5076C18.5529 28.5691 18.6214 28.64 18.7235 28.6634C18.7648 28.6727 18.7578 28.7304 18.7149 28.7288C18.5139 28.7203 18.3371 28.5473 18.1532 28.4803C17.9833 28.4187 17.8205 28.3588 17.7107 28.2076C17.6888 28.1772 17.7239 28.1445 17.7543 28.157Z" fill="#216D54"/>
<path d="M27.0048 27.3747C27.4115 27.2805 27.8182 27.1815 28.2256 27.0943C28.3113 27.0756 28.3924 27.0514 28.4781 27.0335C28.5326 27.0218 28.7905 27.0125 28.8178 26.9509C28.8333 26.9158 28.8949 26.9252 28.8863 26.9673C28.8513 27.1418 28.5201 27.0927 28.4056 27.1683C28.3472 27.2057 28.2482 27.2065 28.1812 27.222C28.0387 27.2548 27.8976 27.2937 27.7558 27.328C27.5096 27.3872 27.2611 27.4425 27.0063 27.4332C26.9705 27.4316 26.9744 27.3818 27.0048 27.3747Z" fill="#216D54"/>
<path d="M24.8808 13.4575C24.9572 13.477 25.0249 13.5354 25.0912 13.5767C25.1566 13.6188 25.2205 13.6624 25.2774 13.717C25.3194 13.7567 25.2595 13.8245 25.2174 13.784C25.1605 13.7294 25.0958 13.6858 25.0288 13.6437C24.965 13.6032 24.8878 13.565 24.8504 13.4973C24.8387 13.4762 24.8582 13.4521 24.8808 13.4575Z" fill="#216D54"/>
<path d="M25.0943 13.3072C25.1621 13.343 25.2088 13.4038 25.2711 13.4474C25.3148 13.477 25.3522 13.5058 25.3755 13.5549C25.3872 13.5783 25.3498 13.6001 25.3358 13.5783C25.3039 13.5276 25.2447 13.5051 25.1987 13.4692C25.1488 13.4303 25.1005 13.3866 25.0709 13.329C25.0639 13.3157 25.0818 13.3009 25.0943 13.3072Z" fill="#216D54"/>
<path d="M24.6393 13.5705C24.711 13.5993 24.7671 13.6539 24.8356 13.6897C24.8785 13.7115 24.8481 13.7801 24.8045 13.7583C24.7336 13.7216 24.6479 13.6757 24.6152 13.6001C24.6089 13.5853 24.6214 13.5635 24.6393 13.5705Z" fill="#216D54"/>
<path d="M21.5651 13.3438C21.5705 13.3282 21.5877 13.3181 21.6032 13.3267C21.6251 13.3391 21.6352 13.3602 21.6523 13.3781C21.671 13.3968 21.6913 13.4131 21.7123 13.4279C21.731 13.442 21.7505 13.4552 21.7669 13.4731C21.7731 13.4801 21.7809 13.4871 21.7848 13.4965C21.7988 13.5292 21.8011 13.5464 21.8245 13.576C21.8409 13.5986 21.8097 13.6258 21.7887 13.6095C21.7591 13.5861 21.7357 13.5666 21.7217 13.5347C21.6656 13.4942 21.5347 13.4248 21.5651 13.3438Z" fill="#216D54"/>
<path d="M21.4381 13.4669C21.4926 13.4926 21.5355 13.5386 21.5775 13.5806C21.5947 13.5978 21.6103 13.6157 21.6251 13.6344C21.6406 13.6539 21.6523 13.6967 21.6773 13.7037C21.6999 13.7108 21.6936 13.7474 21.6695 13.745C21.6196 13.7411 21.5869 13.6843 21.5518 13.6539C21.4996 13.6087 21.4428 13.5526 21.4131 13.4895C21.4061 13.4747 21.4248 13.4607 21.4381 13.4669Z" fill="#216D54"/>
<path d="M21.1444 13.516C21.2449 13.5674 21.3251 13.6733 21.3968 13.7583C21.4202 13.7863 21.3836 13.8183 21.3571 13.7964C21.2729 13.7248 21.167 13.6461 21.1163 13.5463C21.1078 13.53 21.1273 13.5066 21.1444 13.516Z" fill="#216D54"/>
<path d="M18.4493 27.7518C18.507 27.7884 18.5444 27.857 18.5514 27.9256C18.5576 27.991 18.6051 28.0681 18.6293 28.1289C18.6542 28.192 18.6714 28.2567 18.6854 28.3229C18.6924 28.3572 18.6332 28.3697 18.6246 28.3354C18.5981 28.2208 18.5522 28.1149 18.507 28.0066C18.4742 27.9302 18.4618 27.8484 18.4275 27.7705C18.4213 27.7573 18.4361 27.744 18.4493 27.7518Z" fill="#216D54"/>
<path d="M18.2451 27.67C18.3121 27.7433 18.355 27.8445 18.3924 27.9357C18.4352 28.0385 18.4937 28.1328 18.4952 28.2466C18.496 28.2785 18.4446 28.2816 18.4399 28.2505C18.4243 28.1531 18.3581 28.0619 18.3176 27.9723C18.2763 27.8804 18.2233 27.7869 18.2038 27.6872C18.1992 27.663 18.2311 27.6544 18.2451 27.67Z" fill="#216D54"/>
<path d="M17.8703 27.3007C17.9553 27.4589 18.0075 27.6256 18.069 27.7931C18.1088 27.9006 18.1656 27.9918 18.1765 28.1079C18.1804 28.1468 18.1251 28.1523 18.1173 28.1149C18.0877 27.9762 18.0012 27.8554 17.9537 27.7222C17.9062 27.5882 17.8571 27.4565 17.8337 27.3155C17.8306 27.2945 17.8594 27.2797 17.8703 27.3007Z" fill="#216D54"/>
<path d="M17.7901 27.483C17.8587 27.568 17.8883 27.6731 17.9156 27.7775C17.9273 27.8243 17.8564 27.8516 17.8455 27.8048C17.8198 27.702 17.7753 27.6038 17.752 27.501C17.7473 27.4799 17.7761 27.4667 17.7901 27.483Z" fill="#216D54"/>
<path d="M18.8833 28.1017C18.9324 28.1874 18.9752 28.2785 18.9752 28.379C18.9752 28.4156 18.923 28.4117 18.9207 28.3775C18.9145 28.2863 18.8623 28.2022 18.849 28.1126C18.8467 28.0939 18.8747 28.0853 18.8833 28.1017Z" fill="#216D54"/>
<path d="M28.2912 26.9018C28.3052 26.8356 28.3659 26.7779 28.4041 26.7218C28.4501 26.6556 28.4984 26.591 28.556 26.5333C28.5934 26.4967 28.6472 26.5543 28.6121 26.5925C28.5568 26.6525 28.5163 26.7211 28.4719 26.7896C28.4345 26.8465 28.394 26.919 28.3231 26.9369C28.3021 26.9423 28.2873 26.9221 28.2912 26.9018Z" fill="#216D54"/>
<path d="M28.1055 26.8785C28.1133 26.8465 28.1359 26.8216 28.1492 26.7912C28.1679 26.7507 28.1959 26.7133 28.2232 26.6782C28.2707 26.6151 28.3066 26.5403 28.3775 26.5006C28.4234 26.4749 28.4616 26.5458 28.4172 26.5723C28.3362 26.6198 28.3027 26.7367 28.2442 26.8068C28.21 26.8473 28.1959 26.9252 28.125 26.9081C28.1126 26.9049 28.1024 26.8925 28.1055 26.8785Z" fill="#216D54"/>
<path d="M27.8859 26.8777C27.9053 26.813 27.9451 26.7585 27.9832 26.7039C28.0284 26.64 28.0705 26.5754 28.111 26.5091C28.1469 26.4491 28.2396 26.5052 28.203 26.5645C28.1321 26.6805 28.0518 26.8332 27.9349 26.9088C27.9139 26.9228 27.8781 26.9057 27.8859 26.8777Z" fill="#216D54"/>
<path d="M27.4932 26.9509C27.5594 26.8231 27.6536 26.707 27.7253 26.5808C27.8017 26.446 27.8796 26.291 27.9824 26.1757C27.9965 26.1609 28.0198 26.1757 28.0159 26.1944C28.0136 26.2022 28.012 26.2115 28.0097 26.2201C28.0089 26.224 28.0066 26.2263 28.0035 26.2279C27.9497 26.3673 27.8695 26.4951 27.7947 26.6252C27.7207 26.7538 27.6622 26.908 27.5298 26.986C27.5072 26.9992 27.4815 26.9743 27.4932 26.9509Z" fill="#216D54"/>
<path d="M27.3607 26.7546C27.4168 26.6961 27.4729 26.6182 27.5025 26.5434C27.5243 26.4881 27.6014 26.5302 27.5835 26.5832C27.557 26.6587 27.5079 26.7211 27.4635 26.7865C27.4316 26.8333 27.3895 26.8894 27.3482 26.9291C27.335 26.9423 27.3163 26.9377 27.3062 26.9236C27.2656 26.8652 27.321 26.7959 27.3607 26.7546Z" fill="#216D54"/>
<path d="M27.2314 26.6198C27.2345 26.5629 27.3233 26.5543 27.321 26.6136C27.3194 26.6642 27.3007 26.7055 27.2703 26.7452C27.2376 26.7881 27.2026 26.834 27.1543 26.8582C27.1324 26.8683 27.1106 26.8473 27.113 26.8263C27.1215 26.7421 27.2259 26.7024 27.2314 26.6198Z" fill="#216D54"/>
<path d="M28.5924 26.8668C28.6002 26.8574 28.6096 26.852 28.6197 26.8442C28.6228 26.8418 28.6275 26.8364 28.6298 26.8317C28.64 26.8138 28.6477 26.7943 28.6618 26.7795C28.6945 26.7444 28.7529 26.7912 28.7194 26.827C28.7062 26.8418 28.6976 26.8668 28.6844 26.8862C28.6649 26.9135 28.6283 26.9252 28.5994 26.9073C28.587 26.8987 28.5823 26.8784 28.5924 26.8668Z" fill="#216D54"/>
<path d="M3.95935 32.5256C3.98584 32.5568 3.98428 32.5848 3.95312 32.6097L1.57528 34.6791C1.54567 34.704 1.51763 34.7009 1.49114 34.6697L1.38829 34.5513C1.36103 34.5201 1.3618 34.4921 1.39141 34.4671L2.49463 33.5104L1.42258 32.2763L0.319358 33.233C0.289752 33.258 0.261704 33.2548 0.235215 33.2237L0.129256 33.1053C0.104324 33.0741 0.105883 33.046 0.135489 33.0211L2.51333 30.9518C2.54449 30.9269 2.57254 30.93 2.59747 30.9612L2.70343 31.0796C2.72992 31.1107 2.72836 31.1388 2.6972 31.1637L1.61268 32.108L2.68473 33.3421L3.76925 32.3978C3.80041 32.3729 3.82924 32.376 3.85651 32.4072L3.95935 32.5256Z" fill="#216D54"/>
<path d="M3.91676 36.98C3.88326 36.9527 3.87936 36.9239 3.90429 36.8927L5.88011 34.4401C5.90504 34.4089 5.93387 34.4074 5.96737 34.4339L7.35107 35.5464C7.38379 35.576 7.38846 35.6056 7.36353 35.6368L7.27627 35.7459C7.249 35.777 7.21862 35.7786 7.1859 35.749L5.97049 34.7704L5.1945 35.7365L6.30706 36.6341C6.34212 36.6613 6.34758 36.6894 6.32264 36.7182L6.24162 36.821C6.21435 36.8538 6.18318 36.8569 6.14812 36.8304L5.03556 35.9329L4.25022 36.9114L5.47186 37.8962C5.50692 37.925 5.51081 37.9554 5.48432 37.9866L5.39706 38.0957C5.37213 38.1268 5.34175 38.1276 5.30669 38.0988L3.91676 36.98Z" fill="#216D54"/>
<path d="M9.90789 40.8635C9.89309 40.9133 9.86504 40.9266 9.82375 40.904L9.68351 40.8261C9.64767 40.8074 9.63754 40.7731 9.65234 40.7232L9.78635 40.0906L8.54913 39.4112L8.08789 39.8631C8.05205 39.9005 8.01699 39.9098 7.98193 39.8911L7.8417 39.8163C7.79962 39.7914 7.79651 39.7602 7.83235 39.7228L10.1572 37.4447C10.1946 37.4073 10.232 37.3995 10.2694 37.4198L10.5468 37.5725C10.5818 37.5912 10.5943 37.627 10.5842 37.6785L9.90789 40.8635ZM8.73299 39.2336L9.83933 39.8413L10.2787 37.7782L10.2382 37.7533L8.73299 39.2336Z" fill="#216D54"/>
<path d="M12.7629 42.1667C12.7208 42.1519 12.7068 42.1262 12.7192 42.0888L13.7352 39.1064C13.7476 39.069 13.7726 39.0565 13.81 39.069L13.9627 39.1189C14.0016 39.1337 14.0157 39.1594 14.0032 39.1968L13.0527 41.986L14.427 42.4534C14.4683 42.4675 14.4831 42.4947 14.4707 42.5345L14.4239 42.6685C14.4114 42.7059 14.3842 42.7168 14.3429 42.7028L12.7629 42.1667Z" fill="#216D54"/>
<path d="M19.7468 40.5331C19.7904 40.5394 19.8091 40.5627 19.8029 40.6017L19.778 40.7419C19.7717 40.7817 19.7468 40.798 19.7032 40.7918L18.9178 40.664L18.4504 43.5748C18.4441 43.6137 18.4223 43.6309 18.3849 43.6246L18.226 43.5997C18.1862 43.5935 18.1699 43.5701 18.1761 43.5311L18.6436 40.6204L17.8551 40.4926C17.8115 40.4864 17.7928 40.4638 17.799 40.424L17.824 40.2838C17.8302 40.2449 17.8551 40.2277 17.8987 40.2339L19.7468 40.5331Z" fill="#216D54"/>
<path d="M24.4873 40.6903C24.5263 40.6903 24.5473 40.7106 24.5496 40.7496L24.6088 43.9003C24.6088 43.94 24.5886 43.9595 24.5496 43.9595L24.3907 43.9626C24.351 43.9649 24.3315 43.9462 24.3315 43.9065L24.3034 42.448L22.6673 42.4761L22.6954 43.9346C22.6954 43.9743 22.6743 43.9953 22.633 43.9969L22.4741 44C22.4344 44 22.4149 43.9805 22.4149 43.9408L22.3557 40.7901C22.3533 40.7511 22.372 40.7309 22.4118 40.7309L22.5707 40.7277C22.612 40.7262 22.6338 40.7449 22.6361 40.7838L22.6611 42.2236L24.2972 42.1956L24.2723 40.7558C24.2699 40.7168 24.2886 40.6958 24.3284 40.6935L24.4873 40.6903Z" fill="#216D54"/>
<path d="M29.1807 39.9875C29.2244 39.9798 29.24 39.9992 29.2275 40.0468L28.6634 42.1472L28.9003 43.3159C28.9081 43.3556 28.8925 43.3798 28.8535 43.3876L28.6977 43.4187C28.658 43.4273 28.6338 43.4117 28.626 43.372L28.3892 42.2033L27.0585 40.4862C27.0257 40.4472 27.0304 40.4231 27.074 40.4145L27.261 40.374C27.286 40.3701 27.3047 40.3724 27.3171 40.3802C27.328 40.3864 27.3413 40.4005 27.3576 40.4207L28.4453 41.8356L28.4733 41.8294L28.9252 40.1029C28.933 40.0779 28.9408 40.0608 28.947 40.0499C28.9548 40.0374 28.9704 40.0296 28.9938 40.0249L29.1807 39.9875Z" fill="#216D54"/>
<path d="M36.6222 38.6569C36.7819 38.6281 36.9229 38.6468 37.046 38.713C37.1683 38.78 37.2782 38.9023 37.3764 39.0807L37.4387 39.196C37.5898 39.4789 37.6265 39.7134 37.5478 39.9004C37.4683 40.0873 37.3016 40.2494 37.046 40.3865L36.0083 40.9444C35.9724 40.9631 35.9459 40.9553 35.9272 40.9194L34.4345 38.1458C34.4158 38.1107 34.4243 38.0835 34.4594 38.0648L35.4972 37.5069C35.7418 37.376 35.9498 37.3371 36.1204 37.3885C36.2903 37.4384 36.4461 37.5942 36.5879 37.856C36.6689 38.0079 36.7141 38.1474 36.725 38.2736C36.7375 38.4006 36.6985 38.5213 36.6097 38.6351L36.6222 38.6569ZM36.3324 37.9744C36.2365 37.7983 36.1345 37.6931 36.0269 37.6596C35.921 37.6246 35.7823 37.6526 35.6125 37.7438L34.7804 38.1926L35.3413 39.2366L36.1734 38.7878C36.3394 38.699 36.4368 38.5961 36.4664 38.4793C36.4952 38.3632 36.4617 38.2167 36.3666 38.0398L36.3324 37.9744ZM37.1956 39.3269L37.1333 39.2116C37.0211 39.0059 36.9011 38.893 36.7749 38.8719C36.6479 38.8493 36.4882 38.8899 36.295 38.9935L35.4535 39.4485L36.0799 40.6109L36.9214 40.1559C37.1146 40.0523 37.2346 39.9378 37.2829 39.8131C37.3304 39.6884 37.3016 39.5264 37.1956 39.3269Z" fill="#216D54"/>
<path d="M41.2645 37.6081C40.755 38.0179 40.3054 37.979 39.9151 37.4928L39.0144 36.374C38.6202 35.8863 38.6771 35.4375 39.1858 35.0277L39.4227 34.8376C39.9322 34.4263 40.3833 34.4652 40.7783 34.9529L41.679 36.0717C42.0693 36.5579 42.0101 37.0067 41.5013 37.418L41.2645 37.6081ZM41.1056 37.4056L41.3362 37.2186C41.5232 37.069 41.6268 36.9163 41.6478 36.7605C41.6681 36.6031 41.605 36.4317 41.4577 36.2463L40.5602 35.1337C40.4122 34.949 40.2594 34.8501 40.1021 34.8376C39.9447 34.8236 39.7717 34.8906 39.5847 35.0402L39.3541 35.2272C39.1656 35.3791 39.0612 35.5341 39.0425 35.6915C39.0222 35.8473 39.0853 36.018 39.2326 36.2026L40.1301 37.3152C40.2774 37.5006 40.4293 37.6003 40.5851 37.6144C40.7425 37.6268 40.9162 37.5575 41.1056 37.4056Z" fill="#216D54"/>
<path d="M44.5293 34.5686C44.502 34.6021 44.4802 34.5951 44.4638 34.5468L43.8592 32.8421L42.0891 32.4962C42.0393 32.486 42.0291 32.4642 42.058 32.4307L42.1826 32.2874C42.1974 32.2687 42.213 32.2586 42.2294 32.2562C42.2442 32.2523 42.2636 32.2547 42.2886 32.2624L43.7564 32.5616L43.7751 32.5429L43.2609 31.1343C43.2508 31.1078 43.2469 31.0868 43.2484 31.072C43.2484 31.0579 43.2547 31.0424 43.2671 31.0252L43.3918 30.8819C43.4214 30.8491 43.444 30.8562 43.4603 30.9037L44.0649 32.6021L45.8413 32.9449C45.8912 32.9559 45.9013 32.9777 45.8725 33.0104L45.7478 33.1537C45.733 33.1724 45.7182 33.1818 45.7042 33.1818C45.6894 33.1818 45.6676 33.181 45.6387 33.1787L44.1709 32.8826L44.1522 32.9013L44.6633 34.3131C44.6711 34.338 44.6765 34.3582 44.6789 34.3723C44.6804 34.3871 44.6734 34.4034 44.6571 34.4221L44.5293 34.5686Z" fill="#216D54"/>
<path d="M21.2442 24.1945C21.213 24.1969 21.1881 24.1883 21.1694 24.1696C21.1382 24.1431 21.1211 24.1151 21.1195 24.0855L20.6146 16.687C20.61 16.6185 20.6474 16.5811 20.7268 16.5749L23.5223 16.3848C23.6197 16.3785 23.7529 16.3777 23.9212 16.3816C24.0895 16.384 24.278 16.405 24.4884 16.444C24.698 16.4814 24.9216 16.5468 25.1584 16.6403C25.3968 16.7322 25.6352 16.8639 25.8721 17.0361C26.3372 17.3602 26.6862 17.7778 26.9192 18.2889C27.1514 18.8 27.2877 19.3454 27.3274 19.925C27.35 20.2764 27.3446 20.6106 27.3119 20.9285C27.2807 21.2464 27.2137 21.5417 27.1124 21.8136C27.0142 22.1065 26.8576 22.3823 26.6418 22.6394C26.4276 22.895 26.1775 23.1217 25.8908 23.3188C25.6041 23.5144 25.294 23.6733 24.9621 23.7956C24.6317 23.9164 24.3045 23.9873 23.9804 24.0075L21.2442 24.1945ZM23.9648 23.7707C24.1518 23.7582 24.3637 23.7224 24.6006 23.6616C24.8374 23.6016 25.0774 23.5089 25.3205 23.3843C25.5635 23.258 25.7981 23.096 26.0248 22.8981C26.2531 22.701 26.4517 22.4641 26.62 22.1875C26.7899 21.9094 26.9207 21.5853 27.0127 21.2152C27.1062 20.8459 27.1373 20.4205 27.1062 19.9406C27.0579 19.2347 26.8982 18.6613 26.6262 18.2203C26.3536 17.7801 26.0372 17.4373 25.6757 17.1919C25.3142 16.9449 24.9379 16.7805 24.5476 16.6995C24.1588 16.6169 23.8222 16.5842 23.5379 16.6029L20.8577 16.7837L21.3439 23.9483L23.9648 23.7707Z" fill="#216D54"/>
<path d="M22.3871 22.6048C22.3699 22.6071 22.3559 22.6017 22.3435 22.5892C22.3248 22.5752 22.3154 22.558 22.3154 22.5393L21.9882 18.1296C21.9835 18.0883 22.0045 18.0657 22.0505 18.061L23.7147 17.9364C23.7747 17.9325 23.8549 17.9317 23.9547 17.9333C24.0559 17.9356 24.1697 17.9481 24.2943 17.9707C24.419 17.994 24.5515 18.0322 24.6932 18.086C24.8366 18.1405 24.98 18.2169 25.1233 18.3166C25.4015 18.5082 25.6095 18.756 25.7466 19.0614C25.8853 19.3653 25.9686 19.6894 25.9959 20.0337C26.0099 20.2441 26.0084 20.4435 25.9897 20.6321C25.9725 20.8214 25.9367 20.9991 25.8806 21.165C25.8222 21.3395 25.7295 21.5039 25.6032 21.6574C25.4763 21.8093 25.3267 21.9441 25.1545 22.0625C24.9839 22.181 24.8 22.2776 24.6029 22.3524C24.405 22.4256 24.2102 22.4692 24.017 22.4833L22.3871 22.6048ZM24.0076 22.343C24.1198 22.3352 24.246 22.3118 24.3878 22.2745C24.5289 22.2371 24.6714 22.181 24.8148 22.1062C24.9597 22.0298 25.0999 21.9316 25.2355 21.8132C25.3703 21.6948 25.4879 21.553 25.5877 21.3863C25.6874 21.2203 25.763 21.0271 25.8152 20.8066C25.8689 20.5846 25.8853 20.3298 25.865 20.0431C25.8339 19.6216 25.7357 19.2811 25.5721 19.0209C25.41 18.7591 25.2199 18.5558 25.0018 18.4101C24.7852 18.2628 24.5608 18.1662 24.3286 18.1202C24.0957 18.0727 23.8939 18.0548 23.724 18.0673L22.1315 18.1857L22.4494 22.4583L24.0076 22.343Z" fill="#216D54"/>
</svg>
