<svg width="16" height="17" viewBox="0 0 16 17" fill="none" xmlns="http://www.w3.org/2000/svg">
<path fill-rule="evenodd" clip-rule="evenodd" d="M5.44808 11.0527C8.01142 13.616 10.3867 13.8967 11.0841 13.9227C11.9267 13.9533 12.7867 13.2653 13.1587 12.5607C12.5654 11.8647 11.7927 11.3247 10.9467 10.7393C10.4474 11.238 9.83208 12.1647 9.01275 11.8327C8.54675 11.6453 7.39608 11.1153 6.39075 10.1093C5.38542 9.10333 4.85541 7.95333 4.66675 7.488C4.33475 6.66733 5.26408 6.05067 5.76342 5.55133C5.17808 4.69133 4.64741 3.89867 3.95275 3.33533C3.23808 3.70867 2.54608 4.562 2.57741 5.416C2.60341 6.11333 2.88408 8.48867 5.44808 11.0527ZM11.0347 15.2553C10.0747 15.22 7.35408 14.844 4.50475 11.9953C1.65608 9.146 1.28075 6.426 1.24475 5.46533C1.19141 4.00133 2.31275 2.57933 3.60808 2.024C3.76407 1.95664 3.93488 1.931 4.10377 1.94958C4.27265 1.96817 4.43381 2.03034 4.57141 2.13C5.64341 2.912 6.38275 4.09667 7.01808 5.02467C7.15025 5.21763 7.2108 5.45073 7.18925 5.68363C7.1677 5.91652 7.06541 6.13456 6.90008 6.3L5.99608 7.20467C6.20608 7.668 6.63341 8.46667 7.33342 9.16667C8.03341 9.86667 8.83208 10.294 9.29608 10.504L10.1994 9.6C10.3653 9.43397 10.5843 9.33158 10.818 9.31073C11.0518 9.28989 11.2854 9.35193 11.4781 9.486C12.4247 10.142 13.5367 10.8707 14.3474 11.9087C14.4552 12.0473 14.5237 12.2123 14.5459 12.3864C14.568 12.5606 14.543 12.7375 14.4734 12.8987C13.9154 14.2007 12.5034 15.3093 11.0347 15.2553Z" fill="#216D54"/>
</svg>
