<svg width="16" height="17" viewBox="0 0 16 17" fill="none" xmlns="http://www.w3.org/2000/svg">
<path d="M8.66659 6.5C8.66659 6.67681 8.59635 6.84638 8.47132 6.97141C8.3463 7.09643 8.17673 7.16667 7.99992 7.16667C7.82311 7.16667 7.65354 7.09643 7.52851 6.97141C7.40349 6.84638 7.33325 6.67681 7.33325 6.5C7.33325 6.32319 7.40349 6.15362 7.52851 6.0286C7.65354 5.90357 7.82311 5.83333 7.99992 5.83333C8.17673 5.83333 8.3463 5.90357 8.47132 6.0286C8.59635 6.15362 8.66659 6.32319 8.66659 6.5Z" stroke="#216D54" stroke-width="1.33333" stroke-linejoin="round"/>
<path d="M11.6666 6.83333C11.6666 8.85867 10.3333 11.1667 7.99992 13.8333C5.66659 11.1667 4.33325 8.85867 4.33325 6.83333C4.33325 5.86087 4.71956 4.92824 5.40719 4.24061C6.09483 3.55298 7.02746 3.16667 7.99992 3.16667C8.97238 3.16667 9.90501 3.55298 10.5926 4.24061C11.2803 4.92824 11.6666 5.86087 11.6666 6.83333Z" stroke="#216D54" stroke-width="1.33333" stroke-linejoin="round"/>
</svg>
