<svg width="24" height="24" viewBox="0 0 24 24" fill="none" xmlns="http://www.w3.org/2000/svg">
<path d="M20 10.0001C19.3146 8.83021 18.2046 7.96957 16.9009 7.59708C15.5972 7.2246 14.2 7.36892 13 8.00005V3.00005H11V8.00005C9.79999 7.36892 8.40287 7.2246 7.09917 7.59708C5.79546 7.96957 4.68548 8.83021 4.00002 10.0001C2.00002 13.0001 7.00002 22 9.00002 22C11 22 11 21 12 21C13 21 13 22 15 22C17 22 22 13.0001 20 10.0001ZM18.25 13.3801C17.63 15.8501 16.41 18.12 14.7 20C14.5 20 14.27 19.9 14.1 19.75C13.5056 19.2695 12.7644 19.0073 12 19.0073C11.2356 19.0073 10.4944 19.2695 9.90002 19.75C9.73002 19.9 9.50002 20 9.30002 20C7.5864 18.1255 6.36639 15.8539 5.75002 13.3901C5.50002 12.6601 5.45002 11.8701 5.66002 11.1201C5.94464 10.6126 6.35581 10.1874 6.8535 9.88603C7.35118 9.58461 7.91843 9.41719 8.50002 9.40005C9.06002 9.41005 9.61002 9.54005 10.11 9.79005L11 10.2401H13L13.89 9.79005C14.39 9.54005 14.94 9.41005 15.5 9.40005C16.68 9.43005 17.76 10.0801 18.34 11.1101C18.55 11.8601 18.5 12.6501 18.25 13.3801ZM11 5.00005C5.38002 8.07005 4.11002 3.78005 4.11002 3.78005C4.11002 3.78005 6.77002 0.190051 11 5.00005Z" fill="#3F3F3F"/>
</svg>
