<svg width="16" height="17" viewBox="0 0 16 17" fill="none" xmlns="http://www.w3.org/2000/svg">
<path d="M11 3.83333V2.5M5 3.83333V2.5M2.16667 5.83333H13.8333M2 7.196C2 5.786 2 5.08067 2.29067 4.542C2.5535 4.06154 2.96133 3.67634 3.456 3.44133C4.02667 3.16667 4.77333 3.16667 6.26667 3.16667H9.73333C11.2267 3.16667 11.9733 3.16667 12.544 3.44133C13.046 3.68267 13.4533 4.068 13.7093 4.54133C14 5.08133 14 5.78667 14 7.19667V10.4713C14 11.8813 14 12.5867 13.7093 13.1253C13.4465 13.6058 13.0387 13.991 12.544 14.226C11.9733 14.5 11.2267 14.5 9.73333 14.5H6.26667C4.77333 14.5 4.02667 14.5 3.456 14.2253C2.96143 13.9905 2.55361 13.6055 2.29067 13.1253C2 12.5853 2 11.88 2 10.47V7.196Z" stroke="#FFD500" stroke-width="1.2" stroke-linecap="round" stroke-linejoin="round"/>
</svg>
