<svg width="16" height="16" viewBox="0 0 16 16" fill="none" xmlns="http://www.w3.org/2000/svg">
<path d="M8.66668 6.00065C8.66668 6.17746 8.59644 6.34703 8.47141 6.47206C8.34639 6.59708 8.17682 6.66732 8.00001 6.66732C7.8232 6.66732 7.65363 6.59708 7.52861 6.47206C7.40358 6.34703 7.33334 6.17746 7.33334 6.00065C7.33334 5.82384 7.40358 5.65427 7.52861 5.52925C7.65363 5.40422 7.8232 5.33398 8.00001 5.33398C8.17682 5.33398 8.34639 5.40422 8.47141 5.52925C8.59644 5.65427 8.66668 5.82384 8.66668 6.00065Z" stroke="#3F3F3F" stroke-width="1.33333" stroke-linejoin="round"/>
<path d="M11.6667 6.33366C11.6667 8.35899 10.3333 10.667 8.00001 13.3337C5.66668 10.667 4.33334 8.35899 4.33334 6.33366C4.33334 5.3612 4.71965 4.42857 5.40729 3.74093C6.09492 3.0533 7.02755 2.66699 8.00001 2.66699C8.97247 2.66699 9.9051 3.0533 10.5927 3.74093C11.2804 4.42857 11.6667 5.3612 11.6667 6.33366Z" stroke="#3F3F3F" stroke-width="1.33333" stroke-linejoin="round"/>
</svg>
