<svg width="16" height="16" viewBox="0 0 16 16" fill="none" xmlns="http://www.w3.org/2000/svg">
<path fill-rule="evenodd" clip-rule="evenodd" d="M5.44799 10.5523C8.01132 13.1157 10.3867 13.3963 11.084 13.4223C11.9267 13.453 12.7867 12.765 13.1587 12.0603C12.5653 11.3643 11.7927 10.8243 10.9467 10.239C10.4473 10.7377 9.83199 11.6643 9.01266 11.3323C8.54666 11.145 7.39599 10.615 6.39066 9.60899C5.38532 8.60299 4.85532 7.45299 4.66666 6.98766C4.33466 6.16699 5.26399 5.55032 5.76332 5.05099C5.17799 4.19099 4.64732 3.39832 3.95266 2.83499C3.23799 3.20832 2.54599 4.06166 2.57732 4.91566C2.60332 5.61299 2.88399 7.98832 5.44799 10.5523ZM11.0347 14.755C10.0747 14.7197 7.35399 14.3437 4.50466 11.495C1.65599 8.64566 1.28066 5.92566 1.24466 4.96499C1.19132 3.50099 2.31266 2.07899 3.60799 1.52366C3.76397 1.4563 3.93479 1.43066 4.10368 1.44924C4.27256 1.46782 4.43372 1.52999 4.57132 1.62966C5.64332 2.41166 6.38266 3.59632 7.01799 4.52432C7.15016 4.71729 7.2107 4.95039 7.18916 5.18328C7.16761 5.41618 7.06532 5.63421 6.89999 5.79966L5.99599 6.70432C6.20599 7.16766 6.63332 7.96632 7.33332 8.66632C8.03332 9.36632 8.83199 9.79366 9.29599 10.0037L10.1993 9.09966C10.3652 8.93363 10.5842 8.83123 10.8179 8.81039C11.0517 8.78955 11.2854 8.85159 11.478 8.98566C12.4247 9.64166 13.5367 10.3703 14.3473 11.4083C14.4551 11.5469 14.5236 11.7119 14.5458 11.8861C14.5679 12.0602 14.5429 12.2371 14.4733 12.3983C13.9153 13.7003 12.5033 14.809 11.0347 14.755Z" fill="#3F3F3F"/>
</svg>
