<svg width="16" height="16" viewBox="0 0 16 16" fill="none" xmlns="http://www.w3.org/2000/svg">
<path fill-rule="evenodd" clip-rule="evenodd" d="M13.1841 2.95331C13.3489 2.88397 13.5292 2.86006 13.7063 2.88405C13.8834 2.90805 14.0509 2.97909 14.1912 3.08977C14.3316 3.20044 14.4397 3.34672 14.5044 3.51337C14.569 3.68001 14.5878 3.86094 14.5588 4.03731L13.0468 13.2086C12.9001 14.0933 11.9294 14.6006 11.1181 14.16C10.4394 13.7913 9.43144 13.2233 8.52478 12.6306C8.07144 12.334 6.68278 11.384 6.85344 10.708C7.00011 10.13 9.33344 7.95798 10.6668 6.66664C11.1901 6.15931 10.9514 5.86664 10.3334 6.33331C8.79878 7.49198 6.33478 9.25398 5.52011 9.74998C4.80144 10.1873 4.42678 10.262 3.97878 10.1873C3.16144 10.0513 2.40344 9.84064 1.78478 9.58398C0.948777 9.23731 0.989444 8.08798 1.78411 7.75331L13.1841 2.95331Z" fill="#3F3F3F"/>
</svg>
