<svg width="16" height="16" viewBox="0 0 16 16" fill="none" xmlns="http://www.w3.org/2000/svg">
<path fill-rule="evenodd" clip-rule="evenodd" d="M11.117 1.75203C9.0196 1.28318 6.8445 1.28318 4.74705 1.75203L4.52105 1.80203C3.9309 1.93358 3.38884 2.22635 2.95522 2.64772C2.5216 3.0691 2.21344 3.60256 2.06505 4.1887C1.53431 6.28383 1.53431 8.47823 2.06505 10.5734C2.20658 11.1324 2.49356 11.6439 2.89683 12.0561C3.3001 12.4683 3.80528 12.7663 4.36105 12.92L4.67105 14.7707C4.68094 14.8295 4.70641 14.8845 4.7448 14.9301C4.78319 14.9757 4.8331 15.0101 4.88933 15.0299C4.94556 15.0496 5.00605 15.0539 5.06451 15.0423C5.12297 15.0308 5.17725 15.0037 5.22171 14.964L7.04238 13.3354C8.4091 13.4179 9.78064 13.3086 11.117 13.0107L11.3437 12.9607C11.9339 12.8291 12.4759 12.5364 12.9095 12.115C13.3432 11.6936 13.6513 11.1602 13.7997 10.574C14.3305 8.4789 14.3305 6.2845 13.7997 4.18936C13.6513 3.60314 13.343 3.06962 12.9093 2.64824C12.4755 2.22686 11.9333 1.93414 11.343 1.8027L11.117 1.75203ZM5.30971 4.1347C5.18581 4.11655 5.05943 4.1415 4.95171 4.20536H4.94238C4.69238 4.35203 4.46705 4.5367 4.27505 4.75403C4.11505 4.9387 4.02838 5.12536 4.00571 5.30536C3.99238 5.41203 4.00171 5.52003 4.03305 5.62203L4.04505 5.6287C4.22505 6.15736 4.45971 6.66603 4.74638 7.1447C5.11618 7.81692 5.57103 8.4387 6.09971 8.9947L6.11571 9.01736L6.14105 9.03603L6.15638 9.05403L6.17505 9.07003C6.73303 9.60025 7.35627 10.0573 8.02971 10.43C8.79971 10.8494 9.26705 11.0474 9.54771 11.13V11.134C9.62971 11.1594 9.70438 11.1707 9.77971 11.1707C10.0189 11.1535 10.2453 11.0563 10.4224 10.8947C10.639 10.7027 10.8224 10.4767 10.965 10.2254V10.2207C11.099 9.96736 11.0537 9.7287 10.8604 9.5667C10.4724 9.22698 10.0524 8.92558 9.60638 8.6667C9.30771 8.5047 9.00438 8.6027 8.88171 8.7667L8.61971 9.09736C8.48505 9.26136 8.24105 9.2387 8.24105 9.2387L8.23438 9.2427C6.41371 8.77803 5.92771 6.9347 5.92771 6.9347C5.92771 6.9347 5.90505 6.68403 6.07371 6.55603L6.40171 6.29203C6.55905 6.16403 6.66838 5.86136 6.49971 5.5627C6.24143 5.11698 5.9407 4.69725 5.60171 4.30936C5.52756 4.21828 5.42372 4.15621 5.30838 4.13403M8.38571 3.33336C8.29731 3.33336 8.21252 3.36848 8.15001 3.43099C8.0875 3.49351 8.05238 3.57829 8.05238 3.6667C8.05238 3.7551 8.0875 3.83989 8.15001 3.9024C8.21252 3.96491 8.29731 4.00003 8.38571 4.00003C9.22905 4.00003 9.92905 4.27536 10.483 4.80336C10.7677 5.09203 10.9897 5.43403 11.135 5.8087C11.281 6.18403 11.3477 6.5847 11.3304 6.98603C11.3285 7.0298 11.3353 7.07351 11.3504 7.11466C11.3654 7.1558 11.3885 7.19358 11.4181 7.22583C11.478 7.29097 11.5613 7.32965 11.6497 7.33336C11.7381 7.33708 11.8244 7.30552 11.8895 7.24563C11.9547 7.18575 11.9933 7.10244 11.997 7.01403C12.0169 6.5204 11.935 6.02796 11.7564 5.56736C11.5769 5.10442 11.3036 4.6836 10.9537 4.33136L10.947 4.3247C10.2597 3.66803 9.38971 3.33336 8.38571 3.33336ZM8.36305 4.42936C8.27464 4.42936 8.18986 4.46448 8.12735 4.52699C8.06483 4.58951 8.02971 4.67429 8.02971 4.7627C8.02971 4.8511 8.06483 4.93589 8.12735 4.9984C8.18986 5.06091 8.27464 5.09603 8.36305 5.09603H8.37438C8.98238 5.13936 9.42505 5.34203 9.73505 5.6747C10.053 6.01736 10.2177 6.44336 10.205 6.97003C10.203 7.05844 10.2362 7.14403 10.2973 7.20798C10.3583 7.27193 10.4423 7.309 10.5307 7.31103C10.6191 7.31306 10.7047 7.27989 10.7687 7.21882C10.8326 7.15775 10.8697 7.07377 10.8717 6.98536C10.8877 6.29403 10.665 5.69736 10.2237 5.22136V5.22003C9.77238 4.73603 9.15305 4.48003 8.40771 4.43003L8.39638 4.4287L8.36305 4.42936ZM8.35038 5.54603C8.30577 5.54209 8.26083 5.54719 8.21823 5.56101C8.17563 5.57482 8.13626 5.59708 8.10245 5.62646C8.06865 5.65583 8.04111 5.69171 8.02148 5.73196C8.00185 5.77221 7.99053 5.81601 7.9882 5.86073C7.98587 5.90545 7.99258 5.95018 8.00792 5.99226C8.02326 6.03433 8.04692 6.07288 8.07749 6.10561C8.10805 6.13833 8.1449 6.16457 8.18583 6.18274C8.22677 6.20091 8.27094 6.21064 8.31571 6.21136C8.59438 6.22603 8.77238 6.31003 8.88438 6.4227C8.99705 6.53603 9.08105 6.71803 9.09638 7.0027C9.09721 7.04743 9.10704 7.09154 9.12528 7.13239C9.14352 7.17324 9.1698 7.21001 9.20255 7.24049C9.2353 7.27098 9.27385 7.29455 9.3159 7.30982C9.35796 7.32509 9.40266 7.33174 9.44733 7.32936C9.49201 7.32699 9.53575 7.31565 9.57596 7.29601C9.61616 7.27637 9.65199 7.24885 9.68133 7.21507C9.71067 7.18129 9.7329 7.14195 9.74671 7.09939C9.76052 7.05683 9.76562 7.01193 9.76171 6.96736C9.74038 6.56736 9.61505 6.21403 9.35838 5.95403C9.10038 5.69403 8.74905 5.56736 8.35038 5.54603Z" fill="#3F3F3F"/>
</svg>
